<?xml version="1.0" encoding="UTF-8"?>
<svg version="1.1" xmlns="http://www.w3.org/2000/svg" width="512" height="512">
<path d="M0 0 C2.60077352 -0.30441916 4.95983401 -0.42017445 7.5625 -0.3984375 C8.68313843 -0.40274277 8.68313843 -0.40274277 9.82641602 -0.40713501 C11.40674599 -0.40917747 12.98710113 -0.40363481 14.56738281 -0.39111328 C16.99080764 -0.37506089 19.41256474 -0.39095439 21.8359375 -0.41015625 C23.36979536 -0.40817385 24.90365218 -0.40433023 26.4375 -0.3984375 C27.16461182 -0.40451019 27.89172363 -0.41058289 28.64086914 -0.4168396 C30.68359375 -0.38818359 30.68359375 -0.38818359 34 0 C36.01923284 3.02884927 36.32371847 4.08660382 36.625 7.5625 C36.73714844 8.74005859 36.73714844 8.74005859 36.8515625 9.94140625 C37.06257793 14.28943463 37 18.64685421 37 23 C46.24 23 55.48 23 65 23 C65 20.03 65 17.06 65 14 C65.09150736 12.03981612 65.21063115 10.08042254 65.375 8.125 C65.44460937 7.22007813 65.51421875 6.31515625 65.5859375 5.3828125 C66 3 66 3 68 0 C70.60077352 -0.30441916 72.95983401 -0.42017445 75.5625 -0.3984375 C76.30959229 -0.40130768 77.05668457 -0.40417786 77.82641602 -0.40713501 C79.40674599 -0.40917747 80.98710113 -0.40363481 82.56738281 -0.39111328 C84.99080764 -0.37506089 87.41256474 -0.39095439 89.8359375 -0.41015625 C91.36979536 -0.40817385 92.90365218 -0.40433023 94.4375 -0.3984375 C95.16461182 -0.40451019 95.89172363 -0.41058289 96.64086914 -0.4168396 C98.68359375 -0.38818359 98.68359375 -0.38818359 102 0 C104.01923284 3.02884927 104.32371847 4.08660382 104.625 7.5625 C104.73714844 8.74005859 104.73714844 8.74005859 104.8515625 9.94140625 C105.06257793 14.28943463 105 18.64685421 105 23 C114.24 23 123.48 23 133 23 C133 20.03 133 17.06 133 14 C133.09150736 12.03981612 133.21063115 10.08042254 133.375 8.125 C133.44460937 7.22007813 133.51421875 6.31515625 133.5859375 5.3828125 C134 3 134 3 136 0 C138.60077352 -0.30441916 140.95983401 -0.42017445 143.5625 -0.3984375 C144.30959229 -0.40130768 145.05668457 -0.40417786 145.82641602 -0.40713501 C147.40674599 -0.40917747 148.98710113 -0.40363481 150.56738281 -0.39111328 C152.99080764 -0.37506089 155.41256474 -0.39095439 157.8359375 -0.41015625 C159.36979536 -0.40817385 160.90365218 -0.40433023 162.4375 -0.3984375 C163.16461182 -0.40451019 163.89172363 -0.41058289 164.64086914 -0.4168396 C166.68359375 -0.38818359 166.68359375 -0.38818359 170 0 C172.11261084 3.16891626 172.3413676 4.43777881 172.625 8.125 C172.73714844 9.45917969 172.73714844 9.45917969 172.8515625 10.8203125 C173.04089868 14.87609284 173 18.93980267 173 23 C182.24 23 191.48 23 201 23 C201 20.03 201 17.06 201 14 C201.09150736 12.03981612 201.21063115 10.08042254 201.375 8.125 C201.44460938 7.22007813 201.51421875 6.31515625 201.5859375 5.3828125 C202 3 202 3 204 0 C206.60077352 -0.30441916 208.95983401 -0.42017445 211.5625 -0.3984375 C212.30959229 -0.40130768 213.05668457 -0.40417786 213.82641602 -0.40713501 C215.40674599 -0.40917747 216.98710113 -0.40363481 218.56738281 -0.39111328 C220.99080764 -0.37506089 223.41256474 -0.39095439 225.8359375 -0.41015625 C227.36979536 -0.40817385 228.90365218 -0.40433023 230.4375 -0.3984375 C231.16461182 -0.40451019 231.89172363 -0.41058289 232.64086914 -0.4168396 C234.68359375 -0.38818359 234.68359375 -0.38818359 238 0 C240.11261084 3.16891626 240.3413676 4.43777881 240.625 8.125 C240.73714844 9.45917969 240.73714844 9.45917969 240.8515625 10.8203125 C241.04089868 14.87609284 241 18.93980267 241 23 C250.24 23 259.48 23 269 23 C269 19.7 269 16.4 269 13 C269.08806825 11.18533054 269.20275034 9.37112138 269.375 7.5625 C269.44460938 6.75941406 269.51421875 5.95632812 269.5859375 5.12890625 C270 3 270 3 272 0 C274.60077352 -0.30441916 276.95983401 -0.42017445 279.5625 -0.3984375 C280.30959229 -0.40130768 281.05668457 -0.40417786 281.82641602 -0.40713501 C283.40674599 -0.40917747 284.98710113 -0.40363481 286.56738281 -0.39111328 C288.99080764 -0.37506089 291.41256474 -0.39095439 293.8359375 -0.41015625 C295.36979536 -0.40817385 296.90365218 -0.40433023 298.4375 -0.3984375 C299.16461182 -0.40451019 299.89172363 -0.41058289 300.64086914 -0.4168396 C302.68359375 -0.38818359 302.68359375 -0.38818359 306 0 C308.11261084 3.16891626 308.3413676 4.43777881 308.625 8.125 C308.73714844 9.45917969 308.73714844 9.45917969 308.8515625 10.8203125 C309.04119814 14.88250762 309.03041701 18.93425987 309 23 C309.71019287 22.98428955 310.42038574 22.9685791 311.15209961 22.95239258 C314.4138166 22.8894886 317.67540537 22.85083463 320.9375 22.8125 C322.05447266 22.78736328 323.17144531 22.76222656 324.32226562 22.73632812 C336.41107555 22.62997496 344.17741588 25.52550691 352.9140625 33.81640625 C360.24494112 41.53722523 363.11702435 50.73173661 363.13422108 61.24803162 C363.13867892 62.51444237 363.14313676 63.78085312 363.14772969 65.08563995 C363.14764041 66.48865256 363.14745057 67.89166516 363.14717102 69.29467773 C363.1504715 70.78703151 363.15419746 72.27938439 363.1583125 73.77173615 C363.16831976 77.87411407 363.17204725 81.97647737 363.17470181 86.07886577 C363.17860867 90.50306871 363.18818677 94.92726012 363.19691467 99.35145569 C363.21666875 110.03695573 363.22674416 120.7224567 363.23564246 131.40797043 C363.24002727 136.44206555 363.2453936 141.47615962 363.25063133 146.51025391 C363.26764289 163.24852276 363.28213643 179.98679097 363.28938007 196.72506714 C363.29128992 201.06785076 363.29321026 205.41063437 363.29516602 209.75341797 C363.29564976 210.83277359 363.2961335 211.91212921 363.2966319 213.02419257 C363.30492984 230.50384594 363.33026312 247.98343083 363.36274669 265.4630543 C363.39583699 283.41578375 363.41383064 301.36847842 363.41702431 319.32123852 C363.41918763 329.39827408 363.42791013 339.47520977 363.45348549 349.55221558 C363.47521943 358.13540439 363.48322966 366.71846908 363.47351871 375.30168229 C363.46898176 379.67800046 363.47082482 384.05406267 363.49028015 388.43034554 C363.50796825 392.44392232 363.50686877 396.4570575 363.49138286 400.47063935 C363.48901531 401.91553534 363.49328571 403.36046237 363.50521151 404.80531108 C363.61532606 419.0381516 361.12564217 430.48909031 351.1875 440.8984375 C341.99869352 449.67967595 332.32702792 450.5904425 320.04589844 450.50793457 C318.54296135 450.51254981 317.04002878 450.5189069 315.53710556 450.52684355 C311.42870812 450.54347457 307.32068442 450.53531908 303.212286 450.52289867 C298.77321267 450.51382487 294.3342023 450.52782944 289.8951416 450.53881836 C281.20753717 450.55658333 272.52007116 450.55277261 263.83246136 450.5411678 C256.77041681 450.53212579 249.70841098 450.5309128 242.6463623 450.53526306 C241.64037294 450.53587599 240.63438358 450.53648893 239.59790969 450.53712043 C237.55411433 450.53839936 235.51031898 450.53969622 233.46652365 450.5410108 C214.31221611 450.55241067 195.15798521 450.53931218 176.00369024 450.51780933 C159.57664054 450.4999389 143.14970391 450.50304317 126.72265625 450.52148438 C107.635811 450.54290154 88.54903287 450.55131209 69.46217728 450.53903532 C67.42599743 450.53776115 65.38981757 450.53650367 63.3536377 450.53526306 C61.85096899 450.53433741 61.85096899 450.53433741 60.31794333 450.53339306 C53.26626709 450.5299427 46.21463351 450.53576173 39.16296387 450.54518127 C30.56661426 450.55641202 21.97041072 450.55333856 13.3740778 450.5320583 C8.99001085 450.52156238 4.60618722 450.51740111 0.22212219 450.53065491 C-3.7948234 450.54261497 -7.81130119 450.53595719 -11.82820463 450.5147447 C-13.27759831 450.51029388 -14.7270319 450.51251061 -16.17639971 450.52224785 C-29.01966112 450.60188186 -37.46815292 448.33687948 -46.8046875 439.3515625 C-56.54736207 428.91545913 -57.45070812 416.75949067 -57.38768005 402.98379517 C-57.39185985 401.48625998 -57.3973409 399.98872797 -57.40399987 398.49120176 C-57.41838851 394.40231737 -57.41423048 390.31363568 -57.40683305 386.22474051 C-57.4020873 381.80472035 -57.41462364 377.38474316 -57.42485046 372.96473694 C-57.44201631 364.31572453 -57.44288307 355.66678484 -57.43763756 347.01775981 C-57.43359048 339.9853266 -57.4350458 332.95291483 -57.44038582 325.92048264 C-57.44113424 324.91827029 -57.44188266 323.91605795 -57.44265376 322.88347553 C-57.4441853 320.84725591 -57.44572364 318.81103629 -57.44726873 316.77481668 C-57.46098578 297.69434798 -57.45556169 278.61392031 -57.44408352 259.53345256 C-57.4341521 242.09297176 -57.44709166 224.65259708 -57.47101771 207.21213265 C-57.49542354 189.28632388 -57.50501292 171.36056451 -57.49836498 153.43473947 C-57.49487605 143.37792587 -57.49708332 133.32119386 -57.51461601 123.26439285 C-57.52935653 114.70329417 -57.52994925 106.14233453 -57.5125451 97.58123852 C-57.50404795 93.21704024 -57.50185398 88.85309013 -57.51719666 84.48890495 C-57.53109224 80.48665365 -57.52621866 76.48486201 -57.50695742 72.48263697 C-57.50321195 71.0419647 -57.50607708 69.60125517 -57.51656907 68.16061623 C-57.60171002 55.56521714 -56.00600687 43.43794964 -47 34 C-41.08682384 28.03117042 -33.84981209 23.2415775 -25.25097656 22.88647461 C-24.22456055 22.89171143 -23.19814453 22.89694824 -22.140625 22.90234375 C-21.02558594 22.90556641 -19.91054687 22.90878906 -18.76171875 22.91210938 C-17.60285156 22.92048828 -16.44398437 22.92886719 -15.25 22.9375 C-14.07566406 22.94201172 -12.90132812 22.94652344 -11.69140625 22.95117188 C-8.79421928 22.96294906 -5.89713546 22.97939674 -3 23 C-3.00435059 22.41847168 -3.00870117 21.83694336 -3.01318359 21.23779297 C-3.03217091 16.84810681 -2.99299277 12.50284506 -2.625 8.125 C-2.55539063 7.22007813 -2.48578125 6.31515625 -2.4140625 5.3828125 C-2 3 -2 3 0 0 Z " fill="#FEFEFD" transform="translate(103,31)"/>
<path d="M0 0 C2.60077352 -0.30441916 4.95983401 -0.42017445 7.5625 -0.3984375 C8.68313843 -0.40274277 8.68313843 -0.40274277 9.82641602 -0.40713501 C11.40674599 -0.40917747 12.98710113 -0.40363481 14.56738281 -0.39111328 C16.99080764 -0.37506089 19.41256474 -0.39095439 21.8359375 -0.41015625 C23.36979536 -0.40817385 24.90365218 -0.40433023 26.4375 -0.3984375 C27.16461182 -0.40451019 27.89172363 -0.41058289 28.64086914 -0.4168396 C30.68359375 -0.38818359 30.68359375 -0.38818359 34 0 C36.01923284 3.02884927 36.32371847 4.08660382 36.625 7.5625 C36.73714844 8.74005859 36.73714844 8.74005859 36.8515625 9.94140625 C37.06257793 14.28943463 37 18.64685421 37 23 C46.24 23 55.48 23 65 23 C65 20.03 65 17.06 65 14 C65.09150736 12.03981612 65.21063115 10.08042254 65.375 8.125 C65.44460937 7.22007813 65.51421875 6.31515625 65.5859375 5.3828125 C66 3 66 3 68 0 C70.60077352 -0.30441916 72.95983401 -0.42017445 75.5625 -0.3984375 C76.30959229 -0.40130768 77.05668457 -0.40417786 77.82641602 -0.40713501 C79.40674599 -0.40917747 80.98710113 -0.40363481 82.56738281 -0.39111328 C84.99080764 -0.37506089 87.41256474 -0.39095439 89.8359375 -0.41015625 C91.36979536 -0.40817385 92.90365218 -0.40433023 94.4375 -0.3984375 C95.16461182 -0.40451019 95.89172363 -0.41058289 96.64086914 -0.4168396 C98.68359375 -0.38818359 98.68359375 -0.38818359 102 0 C104.01923284 3.02884927 104.32371847 4.08660382 104.625 7.5625 C104.73714844 8.74005859 104.73714844 8.74005859 104.8515625 9.94140625 C105.06257793 14.28943463 105 18.64685421 105 23 C114.24 23 123.48 23 133 23 C133 20.03 133 17.06 133 14 C133.09150736 12.03981612 133.21063115 10.08042254 133.375 8.125 C133.44460937 7.22007813 133.51421875 6.31515625 133.5859375 5.3828125 C134 3 134 3 136 0 C138.60077352 -0.30441916 140.95983401 -0.42017445 143.5625 -0.3984375 C144.30959229 -0.40130768 145.05668457 -0.40417786 145.82641602 -0.40713501 C147.40674599 -0.40917747 148.98710113 -0.40363481 150.56738281 -0.39111328 C152.99080764 -0.37506089 155.41256474 -0.39095439 157.8359375 -0.41015625 C159.36979536 -0.40817385 160.90365218 -0.40433023 162.4375 -0.3984375 C163.16461182 -0.40451019 163.89172363 -0.41058289 164.64086914 -0.4168396 C166.68359375 -0.38818359 166.68359375 -0.38818359 170 0 C172.11261084 3.16891626 172.3413676 4.43777881 172.625 8.125 C172.73714844 9.45917969 172.73714844 9.45917969 172.8515625 10.8203125 C173.04089868 14.87609284 173 18.93980267 173 23 C182.24 23 191.48 23 201 23 C201 20.03 201 17.06 201 14 C201.09150736 12.03981612 201.21063115 10.08042254 201.375 8.125 C201.44460938 7.22007813 201.51421875 6.31515625 201.5859375 5.3828125 C202 3 202 3 204 0 C206.60077352 -0.30441916 208.95983401 -0.42017445 211.5625 -0.3984375 C212.30959229 -0.40130768 213.05668457 -0.40417786 213.82641602 -0.40713501 C215.40674599 -0.40917747 216.98710113 -0.40363481 218.56738281 -0.39111328 C220.99080764 -0.37506089 223.41256474 -0.39095439 225.8359375 -0.41015625 C227.36979536 -0.40817385 228.90365218 -0.40433023 230.4375 -0.3984375 C231.16461182 -0.40451019 231.89172363 -0.41058289 232.64086914 -0.4168396 C234.68359375 -0.38818359 234.68359375 -0.38818359 238 0 C240.11261084 3.16891626 240.3413676 4.43777881 240.625 8.125 C240.73714844 9.45917969 240.73714844 9.45917969 240.8515625 10.8203125 C241.04089868 14.87609284 241 18.93980267 241 23 C250.24 23 259.48 23 269 23 C269 19.7 269 16.4 269 13 C269.08806825 11.18533054 269.20275034 9.37112138 269.375 7.5625 C269.44460938 6.75941406 269.51421875 5.95632812 269.5859375 5.12890625 C270 3 270 3 272 0 C274.60077352 -0.30441916 276.95983401 -0.42017445 279.5625 -0.3984375 C280.30959229 -0.40130768 281.05668457 -0.40417786 281.82641602 -0.40713501 C283.40674599 -0.40917747 284.98710113 -0.40363481 286.56738281 -0.39111328 C288.99080764 -0.37506089 291.41256474 -0.39095439 293.8359375 -0.41015625 C295.36979536 -0.40817385 296.90365218 -0.40433023 298.4375 -0.3984375 C299.16461182 -0.40451019 299.89172363 -0.41058289 300.64086914 -0.4168396 C302.68359375 -0.38818359 302.68359375 -0.38818359 306 0 C308.11261084 3.16891626 308.3413676 4.43777881 308.625 8.125 C308.73714844 9.45917969 308.73714844 9.45917969 308.8515625 10.8203125 C309.04119814 14.88250762 309.03041701 18.93425987 309 23 C309.71019287 22.98428955 310.42038574 22.9685791 311.15209961 22.95239258 C314.4138166 22.8894886 317.67540537 22.85083463 320.9375 22.8125 C322.05447266 22.78736328 323.17144531 22.76222656 324.32226562 22.73632812 C336.41107555 22.62997496 344.17741588 25.52550691 352.9140625 33.81640625 C360.24494112 41.53722523 363.11702435 50.73173661 363.13422108 61.24803162 C363.13867892 62.51444237 363.14313676 63.78085312 363.14772969 65.08563995 C363.14764041 66.48865256 363.14745057 67.89166516 363.14717102 69.29467773 C363.1504715 70.78703151 363.15419746 72.27938439 363.1583125 73.77173615 C363.16831976 77.87411407 363.17204725 81.97647737 363.17470181 86.07886577 C363.17860867 90.50306871 363.18818677 94.92726012 363.19691467 99.35145569 C363.21666875 110.03695573 363.22674416 120.7224567 363.23564246 131.40797043 C363.24002727 136.44206555 363.2453936 141.47615962 363.25063133 146.51025391 C363.26764289 163.24852276 363.28213643 179.98679097 363.28938007 196.72506714 C363.29128992 201.06785076 363.29321026 205.41063437 363.29516602 209.75341797 C363.29564976 210.83277359 363.2961335 211.91212921 363.2966319 213.02419257 C363.30492984 230.50384594 363.33026312 247.98343083 363.36274669 265.4630543 C363.39583699 283.41578375 363.41383064 301.36847842 363.41702431 319.32123852 C363.41918763 329.39827408 363.42791013 339.47520977 363.45348549 349.55221558 C363.47521943 358.13540439 363.48322966 366.71846908 363.47351871 375.30168229 C363.46898176 379.67800046 363.47082482 384.05406267 363.49028015 388.43034554 C363.50796825 392.44392232 363.50686877 396.4570575 363.49138286 400.47063935 C363.48901531 401.91553534 363.49328571 403.36046237 363.50521151 404.80531108 C363.61532606 419.0381516 361.12564217 430.48909031 351.1875 440.8984375 C341.99869352 449.67967595 332.32702792 450.5904425 320.04589844 450.50793457 C318.54296135 450.51254981 317.04002878 450.5189069 315.53710556 450.52684355 C311.42870812 450.54347457 307.32068442 450.53531908 303.212286 450.52289867 C298.77321267 450.51382487 294.3342023 450.52782944 289.8951416 450.53881836 C281.20753717 450.55658333 272.52007116 450.55277261 263.83246136 450.5411678 C256.77041681 450.53212579 249.70841098 450.5309128 242.6463623 450.53526306 C241.64037294 450.53587599 240.63438358 450.53648893 239.59790969 450.53712043 C237.55411433 450.53839936 235.51031898 450.53969622 233.46652365 450.5410108 C214.31221611 450.55241067 195.15798521 450.53931218 176.00369024 450.51780933 C159.57664054 450.4999389 143.14970391 450.50304317 126.72265625 450.52148438 C107.635811 450.54290154 88.54903287 450.55131209 69.46217728 450.53903532 C67.42599743 450.53776115 65.38981757 450.53650367 63.3536377 450.53526306 C61.85096899 450.53433741 61.85096899 450.53433741 60.31794333 450.53339306 C53.26626709 450.5299427 46.21463351 450.53576173 39.16296387 450.54518127 C30.56661426 450.55641202 21.97041072 450.55333856 13.3740778 450.5320583 C8.99001085 450.52156238 4.60618722 450.51740111 0.22212219 450.53065491 C-3.7948234 450.54261497 -7.81130119 450.53595719 -11.82820463 450.5147447 C-13.27759831 450.51029388 -14.7270319 450.51251061 -16.17639971 450.52224785 C-29.01966112 450.60188186 -37.46815292 448.33687948 -46.8046875 439.3515625 C-56.54736207 428.91545913 -57.45070812 416.75949067 -57.38768005 402.98379517 C-57.39185985 401.48625998 -57.3973409 399.98872797 -57.40399987 398.49120176 C-57.41838851 394.40231737 -57.41423048 390.31363568 -57.40683305 386.22474051 C-57.4020873 381.80472035 -57.41462364 377.38474316 -57.42485046 372.96473694 C-57.44201631 364.31572453 -57.44288307 355.66678484 -57.43763756 347.01775981 C-57.43359048 339.9853266 -57.4350458 332.95291483 -57.44038582 325.92048264 C-57.44113424 324.91827029 -57.44188266 323.91605795 -57.44265376 322.88347553 C-57.4441853 320.84725591 -57.44572364 318.81103629 -57.44726873 316.77481668 C-57.46098578 297.69434798 -57.45556169 278.61392031 -57.44408352 259.53345256 C-57.4341521 242.09297176 -57.44709166 224.65259708 -57.47101771 207.21213265 C-57.49542354 189.28632388 -57.50501292 171.36056451 -57.49836498 153.43473947 C-57.49487605 143.37792587 -57.49708332 133.32119386 -57.51461601 123.26439285 C-57.52935653 114.70329417 -57.52994925 106.14233453 -57.5125451 97.58123852 C-57.50404795 93.21704024 -57.50185398 88.85309013 -57.51719666 84.48890495 C-57.53109224 80.48665365 -57.52621866 76.48486201 -57.50695742 72.48263697 C-57.50321195 71.0419647 -57.50607708 69.60125517 -57.51656907 68.16061623 C-57.60171002 55.56521714 -56.00600687 43.43794964 -47 34 C-41.08682384 28.03117042 -33.84981209 23.2415775 -25.25097656 22.88647461 C-24.22456055 22.89171143 -23.19814453 22.89694824 -22.140625 22.90234375 C-21.02558594 22.90556641 -19.91054687 22.90878906 -18.76171875 22.91210938 C-17.60285156 22.92048828 -16.44398437 22.92886719 -15.25 22.9375 C-14.07566406 22.94201172 -12.90132812 22.94652344 -11.69140625 22.95117188 C-8.79421928 22.96294906 -5.89713546 22.97939674 -3 23 C-3.00435059 22.41847168 -3.00870117 21.83694336 -3.01318359 21.23779297 C-3.03217091 16.84810681 -2.99299277 12.50284506 -2.625 8.125 C-2.55539063 7.22007813 -2.48578125 6.31515625 -2.4140625 5.3828125 C-2 3 -2 3 0 0 Z M-46 107 C-46.0825 158.459375 -46.165 209.91875 -46.25 262.9375 C-46.28641602 279.19636475 -46.32283203 295.45522949 -46.36035156 312.20678711 C-46.37372786 326.75903914 -46.37372786 326.75903914 -46.3817749 341.31129456 C-46.38550714 347.80179122 -46.40018858 354.29215038 -46.42230225 360.78260803 C-46.4477698 368.26851663 -46.45934234 375.7542932 -46.4537798 383.24024544 C-46.45137081 387.06940182 -46.4551815 390.89826315 -46.47686052 394.72736537 C-46.49994745 398.83011347 -46.49196973 402.93222062 -46.48101807 407.03501892 C-46.49266872 408.22632699 -46.50431938 409.41763506 -46.51632309 410.64504337 C-46.45659742 418.95921792 -45.07849062 425.23740035 -39.75 431.75 C-33.9167076 436.52269379 -28.79477319 440.1206377 -21.17520142 440.13701439 C-19.30267024 440.1446262 -19.30267024 440.1446262 -17.39231014 440.15239179 C-15.99412477 440.15299352 -14.59593935 440.15349259 -13.19775391 440.15390015 C-11.72235021 440.15791328 -10.24694762 440.16235125 -8.77154636 440.1671797 C-4.702207 440.17916818 -0.63287949 440.18479894 3.43647408 440.18936086 C7.81977384 440.19530853 12.20305933 440.20692063 16.58634949 440.21765137 C27.18112846 440.2421973 37.77591217 440.25680715 48.37071085 440.26971143 C51.36268424 440.27342223 54.35465717 440.27739556 57.3466301 440.2814641 C75.92091663 440.30670303 94.49520388 440.32875924 113.06950378 440.34119225 C117.3739726 440.34412202 121.6784414 440.34708367 125.98291016 440.35009766 C127.05278675 440.35084371 128.12266335 440.35158976 129.22496045 440.35235842 C146.55165204 440.3650087 163.87824093 440.39822571 181.20488453 440.43989949 C198.98913199 440.4823235 216.77332689 440.50588796 234.55762482 440.51111281 C244.54465115 440.51452675 254.53151711 440.52627967 264.51849365 440.55921555 C273.02536856 440.58722384 281.53205023 440.59821204 290.03896767 440.58702008 C294.37849588 440.58183511 298.71761948 440.58470943 303.05708885 440.60948563 C307.03370182 440.63200016 311.00962007 440.63122162 314.98624539 440.61228175 C316.42108769 440.60948476 317.8559773 440.61506369 319.29074359 440.63009469 C329.57194991 440.73117479 336.86106761 439.24520502 344.875 432.625 C349.323791 427.12943465 352.12591699 421.91838552 352.12304783 414.74261951 C352.1250387 413.64599932 352.12702957 412.54937912 352.12908077 411.41952801 C352.12616811 410.21074395 352.12325544 409.0019599 352.12025452 407.75654602 C352.12111053 406.47892899 352.12196655 405.20131195 352.12284851 403.88497925 C352.12509754 400.32453125 352.12106979 396.76411317 352.11607273 393.20366897 C352.11171677 389.31056217 352.11316663 385.41745683 352.11389065 381.52434826 C352.11442307 373.96164622 352.10979829 366.39895602 352.10338932 358.83625702 C352.0961999 350.09147974 352.09539515 341.3467096 352.09460449 332.60192871 C352.08935042 309.50545059 352.07538936 286.40897512 352.0625 263.3125 C352.041875 211.729375 352.02125 160.14625 352 107 C220.66 107 89.32 107 -46 107 Z " fill="#FCD463" transform="translate(103,31)"/>
<path d="M0 0 C2.60077352 -0.30441916 4.95983401 -0.42017445 7.5625 -0.3984375 C8.30959229 -0.40130768 9.05668457 -0.40417786 9.82641602 -0.40713501 C11.40674599 -0.40917747 12.98710113 -0.40363481 14.56738281 -0.39111328 C16.99080764 -0.37506089 19.41256474 -0.39095439 21.8359375 -0.41015625 C23.36979536 -0.40817385 24.90365218 -0.40433023 26.4375 -0.3984375 C27.16461182 -0.40451019 27.89172363 -0.41058289 28.64086914 -0.4168396 C30.68359375 -0.38818359 30.68359375 -0.38818359 34 0 C36.19451679 3.29177519 36.33609211 4.66031674 36.59423828 8.52197266 C36.7141362 10.21986435 36.7141362 10.21986435 36.8364563 11.95205688 C36.91362885 13.17701874 36.99080139 14.40198059 37.0703125 15.6640625 C37.15626678 16.9258432 37.24222107 18.1876239 37.33078003 19.48764038 C37.51131862 22.16231602 37.68852524 24.83695205 37.85986328 27.51220703 C38.07810646 30.91854005 38.30658684 34.32407988 38.53901863 37.72947121 C38.76161827 40.99908093 38.97850084 44.26906459 39.1953125 47.5390625 C39.27653351 48.75187897 39.35775452 49.96469543 39.44143677 51.21426392 C40.5869676 69.11954859 40.5869676 69.11954859 38 73 C36.1784668 73.38095093 36.1784668 73.38095093 33.94921875 73.38818359 C33.11495361 73.39764008 32.28068848 73.40709656 31.42114258 73.4168396 C30.0679895 73.40773056 30.0679895 73.40773056 28.6875 73.3984375 C27.76283936 73.40130768 26.83817871 73.40417786 25.88549805 73.40713501 C23.92854196 73.40917849 21.97156557 73.40362882 20.01464844 73.39111328 C17.01190707 73.37506364 14.01051179 73.39095237 11.0078125 73.41015625 C9.10937202 73.40817387 7.21093237 73.4043303 5.3125 73.3984375 C3.95934692 73.40754654 3.95934692 73.40754654 2.57885742 73.4168396 C1.74459229 73.40738312 0.91032715 73.39792664 0.05078125 73.38818359 C-1.05269653 73.38460342 -1.05269653 73.38460342 -2.1784668 73.38095093 C-4 73 -4 73 -6 70 C-6.06566221 66.97641141 -5.98969241 64.07558013 -5.8125 61.0625 C-5.73793579 59.62922363 -5.73793579 59.62922363 -5.66186523 58.16699219 C-5.49898489 55.19257758 -5.32176141 52.21934103 -5.13793945 49.24615479 C-4.98253242 46.71556446 -4.83210633 44.18469742 -4.68164062 41.65380859 C-4.38465952 36.69339392 -4.07427948 31.73394497 -3.75570679 26.77487183 C-3.62685546 24.75755791 -3.50057539 22.74007812 -3.37686157 20.72244263 C-3.19909043 17.85074813 -3.00934241 14.98008557 -2.81640625 12.109375 C-2.76425964 11.23528488 -2.71211304 10.36119476 -2.65838623 9.46061707 C-2.60168762 8.65344742 -2.54498901 7.84627777 -2.48657227 7.01464844 C-2.44073502 6.30902771 -2.39489777 5.60340698 -2.34767151 4.87640381 C-2 3 -2 3 0 0 Z " fill="#FEAE06" transform="translate(239,31)"/>
<path d="M0 0 C2.60077352 -0.30441916 4.95983401 -0.42017445 7.5625 -0.3984375 C8.30959229 -0.40130768 9.05668457 -0.40417786 9.82641602 -0.40713501 C11.40674599 -0.40917747 12.98710113 -0.40363481 14.56738281 -0.39111328 C16.99080764 -0.37506089 19.41256474 -0.39095439 21.8359375 -0.41015625 C23.36979536 -0.40817385 24.90365218 -0.40433023 26.4375 -0.3984375 C27.16461182 -0.40451019 27.89172363 -0.41058289 28.64086914 -0.4168396 C30.68359375 -0.38818359 30.68359375 -0.38818359 34 0 C36.20766622 3.31149933 36.32826385 4.66674123 36.5625 8.5546875 C36.67319824 10.28755005 36.67319824 10.28755005 36.78613281 12.05541992 C36.85670898 13.31588135 36.92728516 14.57634277 37 15.875 C37.07831055 17.17735596 37.15662109 18.47971191 37.23730469 19.8215332 C37.40778702 22.66898189 37.57180688 25.51672467 37.73242188 28.36474609 C37.96340028 32.42655142 38.21826141 36.48656875 38.47790527 40.54663086 C38.69242386 43.93032763 38.89692165 47.31458255 39.09912109 50.69903564 C39.19960117 52.35626596 39.30343567 54.01329635 39.41064453 55.67010498 C39.56019381 58.00224167 39.69585731 60.33479674 39.828125 62.66796875 C39.87584045 63.3666658 39.92355591 64.06536285 39.97271729 64.78523254 C40.16769523 68.50255839 40.13533166 69.7970025 38 73 C36.1784668 73.38095093 36.1784668 73.38095093 33.94921875 73.38818359 C33.11495361 73.39764008 32.28068848 73.40709656 31.42114258 73.4168396 C30.0679895 73.40773056 30.0679895 73.40773056 28.6875 73.3984375 C27.76283936 73.40130768 26.83817871 73.40417786 25.88549805 73.40713501 C23.92854196 73.40917849 21.97156557 73.40362882 20.01464844 73.39111328 C17.01190707 73.37506364 14.01051179 73.39095237 11.0078125 73.41015625 C9.10937202 73.40817387 7.21093237 73.4043303 5.3125 73.3984375 C3.95934692 73.40754654 3.95934692 73.40754654 2.57885742 73.4168396 C1.74459229 73.40738312 0.91032715 73.39792664 0.05078125 73.38818359 C-1.05269653 73.38460342 -1.05269653 73.38460342 -2.1784668 73.38095093 C-4 73 -4 73 -6 70 C-6.06566221 66.97641141 -5.98969241 64.07558013 -5.8125 61.0625 C-5.73793579 59.62922363 -5.73793579 59.62922363 -5.66186523 58.16699219 C-5.49898489 55.19257758 -5.32176141 52.21934103 -5.13793945 49.24615479 C-4.98253242 46.71556446 -4.83210633 44.18469742 -4.68164062 41.65380859 C-4.38465952 36.69339392 -4.07427948 31.73394497 -3.75570679 26.77487183 C-3.62685546 24.75755791 -3.50057539 22.74007812 -3.37686157 20.72244263 C-3.19909043 17.85074813 -3.00934241 14.98008557 -2.81640625 12.109375 C-2.76425964 11.23528488 -2.71211304 10.36119476 -2.65838623 9.46061707 C-2.60168762 8.65344742 -2.54498901 7.84627777 -2.48657227 7.01464844 C-2.44073502 6.30902771 -2.39489777 5.60340698 -2.34767151 4.87640381 C-2 3 -2 3 0 0 Z " fill="#FEAE06" transform="translate(171,31)"/>
<path d="M0 0 C2.60077352 -0.30441916 4.95983401 -0.42017445 7.5625 -0.3984375 C8.30959229 -0.40130768 9.05668457 -0.40417786 9.82641602 -0.40713501 C11.40674599 -0.40917747 12.98710113 -0.40363481 14.56738281 -0.39111328 C16.99080764 -0.37506089 19.41256474 -0.39095439 21.8359375 -0.41015625 C23.36979536 -0.40817385 24.90365218 -0.40433023 26.4375 -0.3984375 C27.16461182 -0.40451019 27.89172363 -0.41058289 28.64086914 -0.4168396 C30.68359375 -0.38818359 30.68359375 -0.38818359 34 0 C36.19451679 3.29177519 36.33609211 4.66031674 36.59423828 8.52197266 C36.7141362 10.21986435 36.7141362 10.21986435 36.8364563 11.95205688 C36.91362885 13.17701874 36.99080139 14.40198059 37.0703125 15.6640625 C37.15626678 16.9258432 37.24222107 18.1876239 37.33078003 19.48764038 C37.51131862 22.16231602 37.68852524 24.83695205 37.85986328 27.51220703 C38.07810646 30.91854005 38.30658684 34.32407988 38.53901863 37.72947121 C38.76161827 40.99908093 38.97850084 44.26906459 39.1953125 47.5390625 C39.27653351 48.75187897 39.35775452 49.96469543 39.44143677 51.21426392 C39.6500791 54.47545979 39.83457435 57.73635149 40 61 C40.05105896 61.90095398 40.10211792 62.80190796 40.15472412 63.73016357 C40.35313787 69.5191507 40.35313787 69.5191507 38.7396698 71.71612549 C36.62466461 73.27699713 35.53615876 73.37948357 32.92749023 73.38818359 C31.70623695 73.40236832 31.70623695 73.40236832 30.46031189 73.4168396 C29.5852449 73.41076691 28.71017792 73.40469421 27.80859375 73.3984375 C26.9075441 73.40130768 26.00649445 73.40417786 25.07814026 73.40713501 C23.1742388 73.40917595 21.27031639 73.40364397 19.36645508 73.39111328 C16.44500114 73.37504127 13.5249268 73.39097042 10.60351562 73.41015625 C8.75520527 73.40817419 6.90689577 73.40433129 5.05859375 73.3984375 C4.18150253 73.40451019 3.30441132 73.41058289 2.40074158 73.4168396 C-0.05688477 73.38818359 -0.05688477 73.38818359 -4 73 C-6.28106475 69.57840287 -6.1952617 68.66785255 -5.9675293 64.69335938 C-5.91054367 63.60792847 -5.85355804 62.52249756 -5.79484558 61.4041748 C-5.72203873 60.22923462 -5.64923187 59.05429443 -5.57421875 57.84375 C-5.50717239 56.63110474 -5.44012604 55.41845947 -5.37104797 54.16906738 C-5.15325108 50.27873303 -4.92031986 46.38946118 -4.6875 42.5 C-4.54137479 39.90890717 -4.39618148 37.31776161 -4.25195312 34.7265625 C-3.8604026 27.81587703 -3.46801194 20.90599195 -3 14 C-2.9327774 12.95658447 -2.86555481 11.91316895 -2.79629517 10.83813477 C-2.72276825 9.85578857 -2.64924133 8.87344238 -2.57348633 7.86132812 C-2.4802282 6.56104675 -2.4802282 6.56104675 -2.38508606 5.23449707 C-2 3 -2 3 0 0 Z " fill="#FEAE06" transform="translate(307,31)"/>
<path d="M0 0 C2.60077352 -0.30441916 4.95983401 -0.42017445 7.5625 -0.3984375 C8.30959229 -0.40130768 9.05668457 -0.40417786 9.82641602 -0.40713501 C11.40674599 -0.40917747 12.98710113 -0.40363481 14.56738281 -0.39111328 C16.99080764 -0.37506089 19.41256474 -0.39095439 21.8359375 -0.41015625 C23.36979536 -0.40817385 24.90365218 -0.40433023 26.4375 -0.3984375 C27.16461182 -0.40451019 27.89172363 -0.41058289 28.64086914 -0.4168396 C30.68359375 -0.38818359 30.68359375 -0.38818359 34 0 C36.08504445 3.12756667 36.30840837 4.18263752 36.5625 7.79296875 C36.67319824 9.29923828 36.67319824 9.29923828 36.78613281 10.8359375 C36.85670898 11.94195312 36.92728516 13.04796875 37 14.1875 C37.07831055 15.34121094 37.15662109 16.49492188 37.23730469 17.68359375 C37.45614809 21.01900935 37.66311552 24.35470739 37.86206055 27.69134521 C38.01047999 30.1754007 38.1625796 32.65921985 38.31445312 35.14306641 C38.58972282 39.68853688 38.84941916 44.23470262 39.09912109 48.78164673 C39.19967667 50.59333517 39.30351618 52.40484434 39.41064453 54.21615601 C39.56052495 56.77906999 39.69619865 59.34235711 39.828125 61.90625 C39.87584045 62.68011551 39.92355591 63.45398102 39.97271729 64.251297 C40.15554766 68.11335733 40.20599238 69.69101143 38 73 C36.1784668 73.38095093 36.1784668 73.38095093 33.94921875 73.38818359 C33.11495361 73.39764008 32.28068848 73.40709656 31.42114258 73.4168396 C30.0679895 73.40773056 30.0679895 73.40773056 28.6875 73.3984375 C27.76283936 73.40130768 26.83817871 73.40417786 25.88549805 73.40713501 C23.92854196 73.40917849 21.97156557 73.40362882 20.01464844 73.39111328 C17.01190707 73.37506364 14.01051179 73.39095237 11.0078125 73.41015625 C9.10937202 73.40817387 7.21093237 73.4043303 5.3125 73.3984375 C3.95934692 73.40754654 3.95934692 73.40754654 2.57885742 73.4168396 C1.74459229 73.40738312 0.91032715 73.39792664 0.05078125 73.38818359 C-1.05269653 73.38460342 -1.05269653 73.38460342 -2.1784668 73.38095093 C-4 73 -4 73 -6 70 C-6.99071213 62.55508976 -5.59596273 54.75250736 -4.78442383 47.33251953 C-3.93308378 39.17979265 -3.5945746 31.03218048 -3.34204102 22.84130859 C-3.18303698 17.86727384 -2.97015332 12.90450184 -2.59765625 7.94140625 C-2.49916382 6.62378296 -2.49916382 6.62378296 -2.39868164 5.27954102 C-2 3 -2 3 0 0 Z " fill="#FEAE06" transform="translate(103,31)"/>
<path d="M0 0 C2.60077352 -0.30441916 4.95983401 -0.42017445 7.5625 -0.3984375 C8.30959229 -0.40130768 9.05668457 -0.40417786 9.82641602 -0.40713501 C11.40674599 -0.40917747 12.98710113 -0.40363481 14.56738281 -0.39111328 C16.99080764 -0.37506089 19.41256474 -0.39095439 21.8359375 -0.41015625 C23.36979536 -0.40817385 24.90365218 -0.40433023 26.4375 -0.3984375 C27.16461182 -0.40451019 27.89172363 -0.41058289 28.64086914 -0.4168396 C30.68359375 -0.38818359 30.68359375 -0.38818359 34 0 C36.03706827 3.0556024 36.3007046 3.96352485 36.5625 7.45703125 C36.63597656 8.43623535 36.70945312 9.41543945 36.78515625 10.42431641 C37.30394974 19.05869087 37.71753967 27.69790666 38.125 36.33813477 C38.24744814 38.91695962 38.37357907 41.49558605 38.5 44.07421875 C38.53544922 44.85149826 38.57089844 45.62877777 38.60742188 46.42961121 C38.84920505 51.33065833 39.35084681 56.1359597 40 61 C40.12301895 62.60161215 40.21527666 64.20654563 40.25 65.8125 C40.27578125 66.54082031 40.3015625 67.26914063 40.328125 68.01953125 C39.89752475 70.61851133 39.03085002 71.35978672 37 73 C35.09617615 73.38095093 35.09617615 73.38095093 32.92749023 73.38818359 C31.70623695 73.40236832 31.70623695 73.40236832 30.46031189 73.4168396 C29.5852449 73.41076691 28.71017792 73.40469421 27.80859375 73.3984375 C26.9075441 73.40130768 26.00649445 73.40417786 25.07814026 73.40713501 C23.1742388 73.40917595 21.27031639 73.40364397 19.36645508 73.39111328 C16.44500114 73.37504127 13.5249268 73.39097042 10.60351562 73.41015625 C8.75520527 73.40817419 6.90689577 73.40433129 5.05859375 73.3984375 C4.18150253 73.40451019 3.30441132 73.41058289 2.40074158 73.4168396 C-0.05688477 73.38818359 -0.05688477 73.38818359 -4 73 C-8.22488993 66.6626651 -5.83144627 57.23537598 -5.0625 49.9375 C-4.13048242 40.51458214 -3.6336472 31.11550337 -3.34204102 21.65209961 C-2.77917104 4.16875656 -2.77917104 4.16875656 0 0 Z " fill="#FEAE06" transform="translate(375,31)"/>
<path d="M0 0 C0.87100342 -0.00945648 1.74200684 -0.01891296 2.6394043 -0.02865601 C3.57695557 -0.02258331 4.51450684 -0.01651062 5.48046875 -0.01025391 C6.44573486 -0.01312408 7.41100098 -0.01599426 8.40551758 -0.01895142 C10.44645779 -0.02099302 12.48741752 -0.01545648 14.52832031 -0.00292969 C17.65604315 0.01312239 20.78247371 -0.00277536 23.91015625 -0.02197266 C25.89192994 -0.01999024 27.87370283 -0.0161466 29.85546875 -0.01025391 C30.79302002 -0.0163266 31.73057129 -0.02239929 32.6965332 -0.02865601 C33.56753662 -0.01919952 34.43854004 -0.00974304 35.3359375 0 C36.10188232 0.00238678 36.86782715 0.00477356 37.65698242 0.00723267 C40.25978338 0.50029392 41.13088311 1.24659201 42.66796875 3.38818359 C43.04891968 5.39916992 43.04891968 5.39916992 43.05615234 7.72021484 C43.06560883 8.59121826 43.07506531 9.46222168 43.08480835 10.35961914 C43.07873566 11.29717041 43.07266296 12.23472168 43.06640625 13.20068359 C43.06927643 14.16594971 43.07214661 15.13121582 43.07510376 16.12573242 C43.07714536 18.16667263 43.07160882 20.20763237 43.05908203 22.24853516 C43.04302995 25.37625799 43.0589277 28.50268855 43.078125 31.63037109 C43.07614259 33.61214479 43.07229895 35.59391767 43.06640625 37.57568359 C43.07551529 38.9820105 43.07551529 38.9820105 43.08480835 40.41674805 C43.07535187 41.28775146 43.06589539 42.15875488 43.05615234 43.05615234 C43.05376556 43.82209717 43.05137878 44.58804199 43.04891968 45.37719727 C42.55585842 47.97999822 41.80956034 48.85109795 39.66796875 50.38818359 C37.65698242 50.76913452 37.65698242 50.76913452 35.3359375 50.77636719 C34.46493408 50.78582367 33.59393066 50.79528015 32.6965332 50.80502319 C31.75898193 50.7989505 30.82143066 50.79287781 29.85546875 50.78662109 C28.40756958 50.79092636 28.40756958 50.79092636 26.93041992 50.7953186 C24.88947971 50.7973602 22.84851998 50.79182366 20.80761719 50.77929688 C17.67989435 50.7632448 14.55346379 50.77914255 11.42578125 50.79833984 C9.44400756 50.79635743 7.46223467 50.79251379 5.48046875 50.78662109 C4.54291748 50.79269379 3.60536621 50.79876648 2.6394043 50.80502319 C1.33289917 50.79083847 1.33289917 50.79083847 0 50.77636719 C-0.76594482 50.77398041 -1.53188965 50.77159363 -2.32104492 50.76913452 C-4.92384588 50.27607327 -5.79494561 49.52977518 -7.33203125 47.38818359 C-7.71298218 45.37719727 -7.71298218 45.37719727 -7.72021484 43.05615234 C-7.72967133 42.18514893 -7.73912781 41.31414551 -7.74887085 40.41674805 C-7.74279816 39.47919678 -7.73672546 38.54164551 -7.73046875 37.57568359 C-7.73333893 36.61041748 -7.73620911 35.64515137 -7.73916626 34.65063477 C-7.74120786 32.60969455 -7.73567132 30.56873482 -7.72314453 28.52783203 C-7.70709245 25.40010919 -7.7229902 22.27367864 -7.7421875 19.14599609 C-7.74020509 17.1642224 -7.73636145 15.18244952 -7.73046875 13.20068359 C-7.73654144 12.26313232 -7.74261414 11.32558105 -7.74887085 10.35961914 C-7.73941437 9.48861572 -7.72995789 8.6176123 -7.72021484 7.72021484 C-7.71782806 6.95427002 -7.71544128 6.1883252 -7.71298218 5.39916992 C-6.87262661 0.96305116 -4.17729285 0.01301697 0 0 Z " fill="#FFAF09" transform="translate(389.33203125,243.61181640625)"/>
<path d="M0 0 C0.87100342 -0.00945648 1.74200684 -0.01891296 2.6394043 -0.02865601 C3.57695557 -0.02258331 4.51450684 -0.01651062 5.48046875 -0.01025391 C6.44573486 -0.01312408 7.41100098 -0.01599426 8.40551758 -0.01895142 C10.44645779 -0.02099302 12.48741752 -0.01545648 14.52832031 -0.00292969 C17.65604315 0.01312239 20.78247371 -0.00277536 23.91015625 -0.02197266 C25.89192994 -0.01999024 27.87370283 -0.0161466 29.85546875 -0.01025391 C30.79302002 -0.0163266 31.73057129 -0.02239929 32.6965332 -0.02865601 C33.56753662 -0.01919952 34.43854004 -0.00974304 35.3359375 0 C36.10188232 0.00238678 36.86782715 0.00477356 37.65698242 0.00723267 C40.25978338 0.50029392 41.13088311 1.24659201 42.66796875 3.38818359 C43.04891968 5.39916992 43.04891968 5.39916992 43.05615234 7.72021484 C43.06560883 8.59121826 43.07506531 9.46222168 43.08480835 10.35961914 C43.07873566 11.29717041 43.07266296 12.23472168 43.06640625 13.20068359 C43.06927643 14.16594971 43.07214661 15.13121582 43.07510376 16.12573242 C43.07714536 18.16667263 43.07160882 20.20763237 43.05908203 22.24853516 C43.04302995 25.37625799 43.0589277 28.50268855 43.078125 31.63037109 C43.07614259 33.61214479 43.07229895 35.59391767 43.06640625 37.57568359 C43.07551529 38.9820105 43.07551529 38.9820105 43.08480835 40.41674805 C43.07535187 41.28775146 43.06589539 42.15875488 43.05615234 43.05615234 C43.05376556 43.82209717 43.05137878 44.58804199 43.04891968 45.37719727 C42.55585842 47.97999822 41.80956034 48.85109795 39.66796875 50.38818359 C37.65698242 50.76913452 37.65698242 50.76913452 35.3359375 50.77636719 C34.46493408 50.78582367 33.59393066 50.79528015 32.6965332 50.80502319 C31.75898193 50.7989505 30.82143066 50.79287781 29.85546875 50.78662109 C28.40756958 50.79092636 28.40756958 50.79092636 26.93041992 50.7953186 C24.88947971 50.7973602 22.84851998 50.79182366 20.80761719 50.77929688 C17.67989435 50.7632448 14.55346379 50.77914255 11.42578125 50.79833984 C9.44400756 50.79635743 7.46223467 50.79251379 5.48046875 50.78662109 C4.54291748 50.79269379 3.60536621 50.79876648 2.6394043 50.80502319 C1.33289917 50.79083847 1.33289917 50.79083847 0 50.77636719 C-0.76594482 50.77398041 -1.53188965 50.77159363 -2.32104492 50.76913452 C-4.92384588 50.27607327 -5.79494561 49.52977518 -7.33203125 47.38818359 C-7.71298218 45.37719727 -7.71298218 45.37719727 -7.72021484 43.05615234 C-7.72967133 42.18514893 -7.73912781 41.31414551 -7.74887085 40.41674805 C-7.74279816 39.47919678 -7.73672546 38.54164551 -7.73046875 37.57568359 C-7.73333893 36.61041748 -7.73620911 35.64515137 -7.73916626 34.65063477 C-7.74120786 32.60969455 -7.73567132 30.56873482 -7.72314453 28.52783203 C-7.70709245 25.40010919 -7.7229902 22.27367864 -7.7421875 19.14599609 C-7.74020509 17.1642224 -7.73636145 15.18244952 -7.73046875 13.20068359 C-7.73654144 12.26313232 -7.74261414 11.32558105 -7.74887085 10.35961914 C-7.73941437 9.48861572 -7.72995789 8.6176123 -7.72021484 7.72021484 C-7.71782806 6.95427002 -7.71544128 6.1883252 -7.71298218 5.39916992 C-6.87262661 0.96305116 -4.17729285 0.01301697 0 0 Z " fill="#FFAF09" transform="translate(238.33203125,243.61181640625)"/>
<path d="M0 0 C0.87100342 -0.00945648 1.74200684 -0.01891296 2.6394043 -0.02865601 C3.57695557 -0.02258331 4.51450684 -0.01651062 5.48046875 -0.01025391 C6.44573486 -0.01312408 7.41100098 -0.01599426 8.40551758 -0.01895142 C10.44645779 -0.02099302 12.48741752 -0.01545648 14.52832031 -0.00292969 C17.65604315 0.01312239 20.78247371 -0.00277536 23.91015625 -0.02197266 C25.89192994 -0.01999024 27.87370283 -0.0161466 29.85546875 -0.01025391 C30.79302002 -0.0163266 31.73057129 -0.02239929 32.6965332 -0.02865601 C33.56753662 -0.01919952 34.43854004 -0.00974304 35.3359375 0 C36.10188232 0.00238678 36.86782715 0.00477356 37.65698242 0.00723267 C40.25978338 0.50029392 41.13088311 1.24659201 42.66796875 3.38818359 C43.04891968 5.39916992 43.04891968 5.39916992 43.05615234 7.72021484 C43.06560883 8.59121826 43.07506531 9.46222168 43.08480835 10.35961914 C43.07873566 11.29717041 43.07266296 12.23472168 43.06640625 13.20068359 C43.06927643 14.16594971 43.07214661 15.13121582 43.07510376 16.12573242 C43.07714536 18.16667263 43.07160882 20.20763237 43.05908203 22.24853516 C43.04302995 25.37625799 43.0589277 28.50268855 43.078125 31.63037109 C43.07614259 33.61214479 43.07229895 35.59391767 43.06640625 37.57568359 C43.07551529 38.9820105 43.07551529 38.9820105 43.08480835 40.41674805 C43.07535187 41.28775146 43.06589539 42.15875488 43.05615234 43.05615234 C43.05376556 43.82209717 43.05137878 44.58804199 43.04891968 45.37719727 C42.55585842 47.97999822 41.80956034 48.85109795 39.66796875 50.38818359 C37.65698242 50.76913452 37.65698242 50.76913452 35.3359375 50.77636719 C34.46493408 50.78582367 33.59393066 50.79528015 32.6965332 50.80502319 C31.75898193 50.7989505 30.82143066 50.79287781 29.85546875 50.78662109 C28.40756958 50.79092636 28.40756958 50.79092636 26.93041992 50.7953186 C24.88947971 50.7973602 22.84851998 50.79182366 20.80761719 50.77929688 C17.67989435 50.7632448 14.55346379 50.77914255 11.42578125 50.79833984 C9.44400756 50.79635743 7.46223467 50.79251379 5.48046875 50.78662109 C4.54291748 50.79269379 3.60536621 50.79876648 2.6394043 50.80502319 C1.33289917 50.79083847 1.33289917 50.79083847 0 50.77636719 C-0.76594482 50.77398041 -1.53188965 50.77159363 -2.32104492 50.76913452 C-4.92384588 50.27607327 -5.79494561 49.52977518 -7.33203125 47.38818359 C-7.71298218 45.37719727 -7.71298218 45.37719727 -7.72021484 43.05615234 C-7.72967133 42.18514893 -7.73912781 41.31414551 -7.74887085 40.41674805 C-7.74279816 39.47919678 -7.73672546 38.54164551 -7.73046875 37.57568359 C-7.73333893 36.61041748 -7.73620911 35.64515137 -7.73916626 34.65063477 C-7.74120786 32.60969455 -7.73567132 30.56873482 -7.72314453 28.52783203 C-7.70709245 25.40010919 -7.7229902 22.27367864 -7.7421875 19.14599609 C-7.74020509 17.1642224 -7.73636145 15.18244952 -7.73046875 13.20068359 C-7.73654144 12.26313232 -7.74261414 11.32558105 -7.74887085 10.35961914 C-7.73941437 9.48861572 -7.72995789 8.6176123 -7.72021484 7.72021484 C-7.71782806 6.95427002 -7.71544128 6.1883252 -7.71298218 5.39916992 C-6.87262661 0.96305116 -4.17729285 0.01301697 0 0 Z " fill="#FFAF09" transform="translate(87.33203125,243.61181640625)"/>
<path d="M0 0 C1.92869568 -0.38095093 1.92869568 -0.38095093 4.31030273 -0.38818359 C5.20140244 -0.39764008 6.09250214 -0.40709656 7.01060486 -0.4168396 C7.97519119 -0.41076691 8.93977753 -0.40469421 9.93359375 -0.3984375 C10.92247086 -0.40130768 11.91134796 -0.40417786 12.93019104 -0.40713501 C15.02418591 -0.40917897 17.11819972 -0.40362602 19.2121582 -0.39111328 C22.42116985 -0.37508158 25.62891866 -0.39094232 28.83789062 -0.41015625 C30.86979445 -0.40817354 32.9016975 -0.4043293 34.93359375 -0.3984375 C35.89615585 -0.40451019 36.85871796 -0.41058289 37.85044861 -0.4168396 C39.1918264 -0.40265488 39.1918264 -0.40265488 40.56030273 -0.38818359 C41.34702866 -0.38579681 42.13375458 -0.38341003 42.94432068 -0.38095093 C45.57852067 0.10720932 46.45009389 0.83061665 48 3 C48.38768005 5.01098633 48.38768005 5.01098633 48.40405273 7.33203125 C48.41673691 8.20303467 48.42942108 9.07403809 48.44248962 9.97143555 C48.43955399 10.90898682 48.43661835 11.84653809 48.43359375 12.8125 C48.4388356 13.77776611 48.44407745 14.74303223 48.44947815 15.73754883 C48.45590192 17.77847328 48.45455677 19.81943475 48.44604492 21.86035156 C48.43753185 24.98829824 48.46629665 28.1144212 48.49804688 31.2421875 C48.49965884 33.22395778 48.49908146 35.20573131 48.49609375 37.1875 C48.51294472 38.5938269 48.51294472 38.5938269 48.53013611 40.02856445 C48.46234807 46.32255475 48.46234807 46.32255475 46.57470703 49.08837891 C42.51338157 50.52636385 38.58616266 50.42696677 34.30859375 50.3984375 C33.36693863 50.40130768 32.42528351 50.40417786 31.45509338 50.40713501 C29.46720782 50.40917413 27.47930212 50.4036549 25.49145508 50.39111328 C22.44502058 50.37503968 19.3999092 50.39097644 16.35351562 50.41015625 C14.42187207 50.40817414 12.49022933 50.40433114 10.55859375 50.3984375 C9.64605331 50.40451019 8.73351288 50.41058289 7.7933197 50.4168396 C6.52168724 50.40265488 6.52168724 50.40265488 5.22436523 50.38818359 C4.10661964 50.38460342 4.10661964 50.38460342 2.96629333 50.38095093 C0.39506624 49.88279975 -0.47598303 49.11370882 -2 47 C-2.3742218 44.98901367 -2.3742218 44.98901367 -2.37231445 42.66796875 C-2.37854324 41.79696533 -2.38477203 40.92596191 -2.39118958 40.02856445 C-2.38197983 39.09101318 -2.37277008 38.15346191 -2.36328125 37.1875 C-2.36377975 36.22223389 -2.36427826 35.25696777 -2.36479187 34.26245117 C-2.36245123 32.22149599 -2.35272332 30.18053793 -2.33618164 28.13964844 C-2.31259133 25.01210777 -2.31562057 21.88541951 -2.32226562 18.7578125 C-2.31668883 16.77603657 -2.30957894 14.79426425 -2.30078125 12.8125 C-2.30169266 11.87494873 -2.30260406 10.93739746 -2.30354309 9.97143555 C-2.29401108 9.10043213 -2.28447906 8.22942871 -2.2746582 7.33203125 C-2.27005081 6.56608643 -2.26544342 5.8001416 -2.26069641 5.01098633 C-2 3 -2 3 0 0 Z " fill="#FFAF09" transform="translate(233,174)"/>
<path d="M0 0 C1.33664955 -0.01429802 1.33664955 -0.01429802 2.70030212 -0.02888489 C3.66488846 -0.02797348 4.62947479 -0.02706207 5.62329102 -0.02612305 C6.61216812 -0.03040817 7.60104523 -0.0346933 8.61988831 -0.03910828 C10.71386956 -0.04485816 12.8078708 -0.04534701 14.90185547 -0.04101562 C18.11077887 -0.03785795 21.31877874 -0.06129897 24.52758789 -0.08666992 C26.55948777 -0.08894302 28.59139013 -0.08964636 30.62329102 -0.08862305 C32.06713417 -0.10243767 32.06713417 -0.10243767 33.54014587 -0.11653137 C34.43439774 -0.11030258 35.3286496 -0.10407379 36.25 -0.09765625 C37.03672592 -0.09828568 37.82345184 -0.0989151 38.63401794 -0.0995636 C41.26859395 0.38004223 42.13779324 1.10961411 43.68969727 3.2746582 C44.07737732 5.24095154 44.07737732 5.24095154 44.09375 7.49902344 C44.10643417 8.34677841 44.11911835 9.19453339 44.13218689 10.06797791 C44.12925125 10.98051834 44.12631561 11.89305878 44.12329102 12.83325195 C44.12853287 13.77395035 44.13377472 14.71464874 44.13917542 15.68385315 C44.14559933 17.67350274 44.14425385 19.66319028 44.13574219 21.65283203 C44.12723853 24.69738446 44.15597812 27.74005715 44.18774414 30.78442383 C44.18935639 32.71736597 44.18877818 34.65031144 44.18579102 36.58325195 C44.20264198 37.94902626 44.20264198 37.94902626 44.21983337 39.34239197 C44.17891406 43.05401302 44.07980245 45.56995638 42.2644043 48.84936523 C38.26627449 51.0626292 34.49622304 50.82624758 29.99829102 50.77075195 C29.05663589 50.77220718 28.11498077 50.77366241 27.14479065 50.77516174 C25.15687969 50.77350365 23.16895578 50.7619524 21.18115234 50.74121094 C18.13461977 50.71222881 15.08982431 50.72060921 12.04321289 50.73364258 C10.11156379 50.72740593 8.17992019 50.71901557 6.24829102 50.70825195 C4.87948036 50.71265541 4.87948036 50.71265541 3.48301697 50.71714783 C2.63526199 50.70446365 1.78750702 50.69177948 0.9140625 50.67871094 C0.16889877 50.67330795 -0.57626495 50.66790497 -1.3440094 50.66233826 C-3.91494754 50.15544469 -4.78803579 49.39287551 -6.31030273 47.2746582 C-6.68452454 45.21897888 -6.68452454 45.21897888 -6.68261719 42.83496094 C-6.68884598 41.94070908 -6.69507477 41.04645721 -6.70149231 40.12510681 C-6.69228256 39.16254471 -6.68307281 38.1999826 -6.67358398 37.20825195 C-6.67433174 35.72350121 -6.67433174 35.72350121 -6.6750946 34.20875549 C-6.67275401 32.1165262 -6.6630264 30.02429411 -6.64648438 27.93212891 C-6.62286909 24.72118092 -6.62592641 21.51106169 -6.63256836 18.30004883 C-6.6269925 16.2694449 -6.6198832 14.23884447 -6.61108398 12.20825195 C-6.61199539 11.24366562 -6.6129068 10.27907928 -6.61384583 9.28526306 C-6.60431381 8.39416336 -6.5947818 7.50306366 -6.58496094 6.58496094 C-6.58035355 5.79903061 -6.57574615 5.01310028 -6.57099915 4.20335388 C-6.01778501 0.11054066 -3.52902145 0.02068833 0 0 Z " fill="#FFAF09" transform="translate(86.310302734375,173.725341796875)"/>
<path d="M0 0 C1.34137779 -0.00934319 1.34137779 -0.00934319 2.70985413 -0.01887512 C3.67241623 -0.00966537 4.63497833 -0.00045563 5.62670898 0.0090332 C6.61654282 0.0085347 7.60637665 0.00803619 8.62620544 0.00752258 C10.71843473 0.00986317 12.81066683 0.01959078 14.90283203 0.03613281 C18.11378001 0.05974809 21.32389925 0.05669078 24.53491211 0.05004883 C26.56551604 0.05562469 28.59611646 0.06273399 30.62670898 0.0715332 C31.59129532 0.0706218 32.55588165 0.06971039 33.54969788 0.06877136 C34.44079758 0.07830338 35.33189728 0.08783539 36.25 0.09765625 C37.03593033 0.10226364 37.82186066 0.10687103 38.63160706 0.11161804 C40.56030273 0.37231445 40.56030273 0.37231445 42.56030273 2.37231445 C42.82772827 4.30101013 42.82772827 4.30101013 42.85083008 6.68261719 C42.86358978 7.57371689 42.87634949 8.46481659 42.88949585 9.38291931 C42.8917215 10.34750565 42.89394714 11.31209198 42.89624023 12.3059082 C42.90289703 13.29478531 42.90955383 14.28366241 42.91641235 15.30250549 C42.92654945 17.39647559 42.93122905 19.49047805 42.9309082 21.58447266 C42.93528063 24.79358988 42.97158746 28.00133147 43.00952148 31.21020508 C43.01538947 33.2421014 43.01935899 35.27400428 43.02124023 37.3059082 C43.03561127 38.26847031 43.0499823 39.23103241 43.06478882 40.22276306 C43.05863556 41.11701492 43.0524823 42.01126678 43.04614258 42.93261719 C43.04899261 43.71934311 43.05184265 44.50606903 43.05477905 45.31663513 C42.56030273 47.37231445 42.56030273 47.37231445 40.7953186 49.12454224 C38.38139086 50.47219798 37.05161848 50.75597195 34.31420898 50.77636719 C33.07272095 50.79539345 33.07272095 50.79539345 31.80615234 50.81480408 C30.92064697 50.81186844 30.0351416 50.8089328 29.12280273 50.8059082 C28.20571533 50.81115005 27.28862793 50.81639191 26.34375 50.8217926 C24.40715547 50.82820851 22.47052195 50.82688138 20.53393555 50.81835938 C17.57066554 50.80984423 14.60932009 50.83862459 11.64624023 50.87036133 C9.76342831 50.87197332 7.88061298 50.87139584 5.99780273 50.8684082 C5.11229736 50.87964218 4.22679199 50.89087616 3.31445312 50.90245056 C-0.34026683 50.86102679 -2.77310325 50.7436126 -5.99853516 48.94702148 C-8.23467092 44.9520549 -7.9913717 41.18573366 -7.93579102 36.6809082 C-7.93724625 35.73925308 -7.93870148 34.79759796 -7.94020081 33.82740784 C-7.93854271 31.83949688 -7.92699146 29.85157297 -7.90625 27.86376953 C-7.87726788 24.81723695 -7.88564827 21.7724415 -7.89868164 18.72583008 C-7.89244499 16.79418098 -7.88405463 14.86253738 -7.87329102 12.9309082 C-7.87622665 12.01836777 -7.87916229 11.10582733 -7.88218689 10.16563416 C-7.86950272 9.31787918 -7.85681854 8.47012421 -7.84375 7.59667969 C-7.83834702 6.85151596 -7.83294403 6.10635223 -7.82737732 5.33860779 C-6.94644873 0.87058317 -4.1931955 -0.00335479 0 0 Z " fill="#FFAF0A" transform="translate(389.439697265625,173.627685546875)"/>
<path d="M0 0 C0.87100342 -0.00945648 1.74200684 -0.01891296 2.6394043 -0.02865601 C3.57695557 -0.02258331 4.51450684 -0.01651062 5.48046875 -0.01025391 C6.44573486 -0.01312408 7.41100098 -0.01599426 8.40551758 -0.01895142 C10.44645779 -0.02099302 12.48741752 -0.01545648 14.52832031 -0.00292969 C17.65604315 0.01312239 20.78247371 -0.00277536 23.91015625 -0.02197266 C25.89192994 -0.01999024 27.87370283 -0.0161466 29.85546875 -0.01025391 C30.79302002 -0.0163266 31.73057129 -0.02239929 32.6965332 -0.02865601 C33.56753662 -0.01919952 34.43854004 -0.00974304 35.3359375 0 C36.10188232 0.00238678 36.86782715 0.00477356 37.65698242 0.00723267 C40.25978338 0.50029392 41.13088311 1.24659201 42.66796875 3.38818359 C43.04891968 5.39916992 43.04891968 5.39916992 43.05615234 7.72021484 C43.06560883 8.59121826 43.07506531 9.46222168 43.08480835 10.35961914 C43.07873566 11.29717041 43.07266296 12.23472168 43.06640625 13.20068359 C43.06927643 14.16594971 43.07214661 15.13121582 43.07510376 16.12573242 C43.07714536 18.16667263 43.07160882 20.20763237 43.05908203 22.24853516 C43.04302995 25.37625799 43.0589277 28.50268855 43.078125 31.63037109 C43.07614259 33.61214479 43.07229895 35.59391767 43.06640625 37.57568359 C43.07551529 38.9820105 43.07551529 38.9820105 43.08480835 40.41674805 C43.07535187 41.28775146 43.06589539 42.15875488 43.05615234 43.05615234 C43.05376556 43.82209717 43.05137878 44.58804199 43.04891968 45.37719727 C42.55585842 47.97999822 41.80956034 48.85109795 39.66796875 50.38818359 C37.65698242 50.76913452 37.65698242 50.76913452 35.3359375 50.77636719 C34.46493408 50.78582367 33.59393066 50.79528015 32.6965332 50.80502319 C31.75898193 50.7989505 30.82143066 50.79287781 29.85546875 50.78662109 C28.40756958 50.79092636 28.40756958 50.79092636 26.93041992 50.7953186 C24.88947971 50.7973602 22.84851998 50.79182366 20.80761719 50.77929688 C17.67989435 50.7632448 14.55346379 50.77914255 11.42578125 50.79833984 C9.44400756 50.79635743 7.46223467 50.79251379 5.48046875 50.78662109 C4.54291748 50.79269379 3.60536621 50.79876648 2.6394043 50.80502319 C1.33289917 50.79083847 1.33289917 50.79083847 0 50.77636719 C-0.76594482 50.77398041 -1.53188965 50.77159363 -2.32104492 50.76913452 C-4.92384588 50.27607327 -5.79494561 49.52977518 -7.33203125 47.38818359 C-7.71298218 45.37719727 -7.71298218 45.37719727 -7.72021484 43.05615234 C-7.72967133 42.18514893 -7.73912781 41.31414551 -7.74887085 40.41674805 C-7.74279816 39.47919678 -7.73672546 38.54164551 -7.73046875 37.57568359 C-7.73333893 36.61041748 -7.73620911 35.64515137 -7.73916626 34.65063477 C-7.74120786 32.60969455 -7.73567132 30.56873482 -7.72314453 28.52783203 C-7.70709245 25.40010919 -7.7229902 22.27367864 -7.7421875 19.14599609 C-7.74020509 17.1642224 -7.73636145 15.18244952 -7.73046875 13.20068359 C-7.73654144 12.26313232 -7.74261414 11.32558105 -7.74887085 10.35961914 C-7.73941437 9.48861572 -7.72995789 8.6176123 -7.72021484 7.72021484 C-7.71782806 6.95427002 -7.71544128 6.1883252 -7.71298218 5.39916992 C-6.87262661 0.96305116 -4.17729285 0.01301697 0 0 Z " fill="#FFAF09" transform="translate(389.33203125,314.61181640625)"/>
<path d="M0 0 C0.87100342 -0.00945648 1.74200684 -0.01891296 2.6394043 -0.02865601 C3.57695557 -0.02258331 4.51450684 -0.01651062 5.48046875 -0.01025391 C6.44573486 -0.01312408 7.41100098 -0.01599426 8.40551758 -0.01895142 C10.44645779 -0.02099302 12.48741752 -0.01545648 14.52832031 -0.00292969 C17.65604315 0.01312239 20.78247371 -0.00277536 23.91015625 -0.02197266 C25.89192994 -0.01999024 27.87370283 -0.0161466 29.85546875 -0.01025391 C30.79302002 -0.0163266 31.73057129 -0.02239929 32.6965332 -0.02865601 C33.56753662 -0.01919952 34.43854004 -0.00974304 35.3359375 0 C36.10188232 0.00238678 36.86782715 0.00477356 37.65698242 0.00723267 C40.25978338 0.50029392 41.13088311 1.24659201 42.66796875 3.38818359 C43.04891968 5.39916992 43.04891968 5.39916992 43.05615234 7.72021484 C43.06560883 8.59121826 43.07506531 9.46222168 43.08480835 10.35961914 C43.07873566 11.29717041 43.07266296 12.23472168 43.06640625 13.20068359 C43.06927643 14.16594971 43.07214661 15.13121582 43.07510376 16.12573242 C43.07714536 18.16667263 43.07160882 20.20763237 43.05908203 22.24853516 C43.04302995 25.37625799 43.0589277 28.50268855 43.078125 31.63037109 C43.07614259 33.61214479 43.07229895 35.59391767 43.06640625 37.57568359 C43.07551529 38.9820105 43.07551529 38.9820105 43.08480835 40.41674805 C43.07535187 41.28775146 43.06589539 42.15875488 43.05615234 43.05615234 C43.05376556 43.82209717 43.05137878 44.58804199 43.04891968 45.37719727 C42.55585842 47.97999822 41.80956034 48.85109795 39.66796875 50.38818359 C37.65698242 50.76913452 37.65698242 50.76913452 35.3359375 50.77636719 C34.46493408 50.78582367 33.59393066 50.79528015 32.6965332 50.80502319 C31.75898193 50.7989505 30.82143066 50.79287781 29.85546875 50.78662109 C28.40756958 50.79092636 28.40756958 50.79092636 26.93041992 50.7953186 C24.88947971 50.7973602 22.84851998 50.79182366 20.80761719 50.77929688 C17.67989435 50.7632448 14.55346379 50.77914255 11.42578125 50.79833984 C9.44400756 50.79635743 7.46223467 50.79251379 5.48046875 50.78662109 C4.54291748 50.79269379 3.60536621 50.79876648 2.6394043 50.80502319 C1.33289917 50.79083847 1.33289917 50.79083847 0 50.77636719 C-0.76594482 50.77398041 -1.53188965 50.77159363 -2.32104492 50.76913452 C-4.92384588 50.27607327 -5.79494561 49.52977518 -7.33203125 47.38818359 C-7.71298218 45.37719727 -7.71298218 45.37719727 -7.72021484 43.05615234 C-7.72967133 42.18514893 -7.73912781 41.31414551 -7.74887085 40.41674805 C-7.74279816 39.47919678 -7.73672546 38.54164551 -7.73046875 37.57568359 C-7.73333893 36.61041748 -7.73620911 35.64515137 -7.73916626 34.65063477 C-7.74120786 32.60969455 -7.73567132 30.56873482 -7.72314453 28.52783203 C-7.70709245 25.40010919 -7.7229902 22.27367864 -7.7421875 19.14599609 C-7.74020509 17.1642224 -7.73636145 15.18244952 -7.73046875 13.20068359 C-7.73654144 12.26313232 -7.74261414 11.32558105 -7.74887085 10.35961914 C-7.73941437 9.48861572 -7.72995789 8.6176123 -7.72021484 7.72021484 C-7.71782806 6.95427002 -7.71544128 6.1883252 -7.71298218 5.39916992 C-6.87262661 0.96305116 -4.17729285 0.01301697 0 0 Z " fill="#FFAE08" transform="translate(238.33203125,314.61181640625)"/>
<path d="M0 0 C0.87100342 -0.00945648 1.74200684 -0.01891296 2.6394043 -0.02865601 C3.57695557 -0.02258331 4.51450684 -0.01651062 5.48046875 -0.01025391 C6.44573486 -0.01312408 7.41100098 -0.01599426 8.40551758 -0.01895142 C10.44645779 -0.02099302 12.48741752 -0.01545648 14.52832031 -0.00292969 C17.65604315 0.01312239 20.78247371 -0.00277536 23.91015625 -0.02197266 C25.89192994 -0.01999024 27.87370283 -0.0161466 29.85546875 -0.01025391 C30.79302002 -0.0163266 31.73057129 -0.02239929 32.6965332 -0.02865601 C33.56753662 -0.01919952 34.43854004 -0.00974304 35.3359375 0 C36.10188232 0.00238678 36.86782715 0.00477356 37.65698242 0.00723267 C40.25978338 0.50029392 41.13088311 1.24659201 42.66796875 3.38818359 C43.04891968 5.39916992 43.04891968 5.39916992 43.05615234 7.72021484 C43.06560883 8.59121826 43.07506531 9.46222168 43.08480835 10.35961914 C43.07873566 11.29717041 43.07266296 12.23472168 43.06640625 13.20068359 C43.06927643 14.16594971 43.07214661 15.13121582 43.07510376 16.12573242 C43.07714536 18.16667263 43.07160882 20.20763237 43.05908203 22.24853516 C43.04302995 25.37625799 43.0589277 28.50268855 43.078125 31.63037109 C43.07614259 33.61214479 43.07229895 35.59391767 43.06640625 37.57568359 C43.07551529 38.9820105 43.07551529 38.9820105 43.08480835 40.41674805 C43.07535187 41.28775146 43.06589539 42.15875488 43.05615234 43.05615234 C43.05376556 43.82209717 43.05137878 44.58804199 43.04891968 45.37719727 C42.55585842 47.97999822 41.80956034 48.85109795 39.66796875 50.38818359 C37.65698242 50.76913452 37.65698242 50.76913452 35.3359375 50.77636719 C34.46493408 50.78582367 33.59393066 50.79528015 32.6965332 50.80502319 C31.75898193 50.7989505 30.82143066 50.79287781 29.85546875 50.78662109 C28.40756958 50.79092636 28.40756958 50.79092636 26.93041992 50.7953186 C24.88947971 50.7973602 22.84851998 50.79182366 20.80761719 50.77929688 C17.67989435 50.7632448 14.55346379 50.77914255 11.42578125 50.79833984 C9.44400756 50.79635743 7.46223467 50.79251379 5.48046875 50.78662109 C4.54291748 50.79269379 3.60536621 50.79876648 2.6394043 50.80502319 C1.33289917 50.79083847 1.33289917 50.79083847 0 50.77636719 C-0.76594482 50.77398041 -1.53188965 50.77159363 -2.32104492 50.76913452 C-4.92384588 50.27607327 -5.79494561 49.52977518 -7.33203125 47.38818359 C-7.71298218 45.37719727 -7.71298218 45.37719727 -7.72021484 43.05615234 C-7.72967133 42.18514893 -7.73912781 41.31414551 -7.74887085 40.41674805 C-7.74279816 39.47919678 -7.73672546 38.54164551 -7.73046875 37.57568359 C-7.73333893 36.61041748 -7.73620911 35.64515137 -7.73916626 34.65063477 C-7.74120786 32.60969455 -7.73567132 30.56873482 -7.72314453 28.52783203 C-7.70709245 25.40010919 -7.7229902 22.27367864 -7.7421875 19.14599609 C-7.74020509 17.1642224 -7.73636145 15.18244952 -7.73046875 13.20068359 C-7.73654144 12.26313232 -7.74261414 11.32558105 -7.74887085 10.35961914 C-7.73941437 9.48861572 -7.72995789 8.6176123 -7.72021484 7.72021484 C-7.71782806 6.95427002 -7.71544128 6.1883252 -7.71298218 5.39916992 C-6.87262661 0.96305116 -4.17729285 0.01301697 0 0 Z " fill="#FFAE08" transform="translate(87.33203125,314.61181640625)"/>
<path d="M0 0 C1.37152222 -0.00945648 1.37152222 -0.00945648 2.77075195 -0.019104 C3.76034912 -0.01505554 4.74994629 -0.01100708 5.76953125 -0.00683594 C6.78297607 -0.00874939 7.7964209 -0.01066284 8.84057617 -0.01263428 C10.98584237 -0.01399685 13.13111678 -0.01029541 15.27636719 -0.00195312 C18.56854697 0.00874524 21.86018103 -0.00184613 25.15234375 -0.01464844 C27.23307413 -0.01332686 29.31380416 -0.01076449 31.39453125 -0.00683594 C32.38412842 -0.0108844 33.37372559 -0.01493286 34.39331055 -0.019104 C35.30765869 -0.01279968 36.22200684 -0.00649536 37.1640625 0 C38.37412964 0.00238678 38.37412964 0.00238678 39.60864258 0.00482178 C41.58203125 0.25878906 41.58203125 0.25878906 43.58203125 2.25878906 C43.83599854 4.14952087 43.83599854 4.14952087 43.84082031 6.47729492 C43.84712463 7.34837387 43.85342896 8.21945282 43.85992432 9.1169281 C43.85587585 10.05964066 43.85182739 11.00235321 43.84765625 11.97363281 C43.85052643 13.4236544 43.85052643 13.4236544 43.85345459 14.90296936 C43.85481717 16.94988261 43.85111568 18.99680447 43.84277344 21.04370117 C43.83208659 24.18004772 43.84266037 27.31581993 43.85546875 30.45214844 C43.85414694 32.43847783 43.8515841 34.42480686 43.84765625 36.41113281 C43.85170471 37.35182114 43.85575317 38.29250946 43.85992432 39.26170349 C43.85362 40.1359346 43.84731567 41.01016571 43.84082031 41.91088867 C43.83922913 42.6798497 43.83763794 43.44881073 43.83599854 44.24107361 C43.58203125 46.25878906 43.58203125 46.25878906 41.58203125 49.25878906 C39.60864258 49.63973999 39.60864258 49.63973999 37.1640625 49.64697266 C36.24971436 49.65642914 35.33536621 49.66588562 34.39331055 49.67562866 C33.40371338 49.66955597 32.41411621 49.66348328 31.39453125 49.65722656 C30.38108643 49.66009674 29.3676416 49.66296692 28.32348633 49.66592407 C26.17821698 49.66796793 24.03292914 49.66241567 21.88769531 49.64990234 C18.59528109 49.63385365 15.30409458 49.64974061 12.01171875 49.66894531 C9.93098686 49.66696294 7.85025574 49.66311938 5.76953125 49.65722656 C4.77993408 49.66329926 3.79033691 49.66937195 2.77075195 49.67562866 C1.39922974 49.66144394 1.39922974 49.66144394 0 49.64697266 C-0.80671143 49.64458588 -1.61342285 49.6421991 -2.44458008 49.63973999 C-3.09579834 49.51402618 -3.7470166 49.38831238 -4.41796875 49.25878906 C-6.49569512 46.14219951 -6.6694363 45.44910204 -6.67675781 41.91088867 C-6.68306213 41.03665756 -6.68936646 40.16242645 -6.69586182 39.26170349 C-6.69181335 38.32101517 -6.68776489 37.38032684 -6.68359375 36.41113281 C-6.6855072 35.44349503 -6.68742065 34.47585724 -6.68939209 33.47889709 C-6.69075303 31.43376404 -6.68706294 29.38862232 -6.67871094 27.34350586 C-6.66799863 24.20504467 -6.67861535 21.06715441 -6.69140625 17.92871094 C-6.69008487 15.94368363 -6.68752291 13.95865667 -6.68359375 11.97363281 C-6.68764221 11.03092026 -6.69169067 10.0882077 -6.69586182 9.1169281 C-6.6895575 8.24584915 -6.68325317 7.3747702 -6.67675781 6.47729492 C-6.67516663 5.70912949 -6.67357544 4.94096405 -6.67193604 4.14952087 C-6.11752163 0.02202484 -3.52860844 0.00695995 0 0 Z " fill="#FFAE07" transform="translate(237.41796875,385.7412109375)"/>
<path d="M0 0 C1.97338867 -0.3742218 1.97338867 -0.3742218 4.41796875 -0.37231445 C5.33231689 -0.37854324 6.24666504 -0.38477203 7.1887207 -0.39118958 C8.17831787 -0.38197983 9.16791504 -0.37277008 10.1875 -0.36328125 C11.20094482 -0.36377975 12.21438965 -0.36427826 13.25854492 -0.36479187 C15.40382851 -0.36244864 17.54911471 -0.35270556 19.69433594 -0.33618164 C22.986577 -0.31259616 26.2780085 -0.31561799 29.5703125 -0.32226562 C31.65104652 -0.31668894 33.73177711 -0.30957912 35.8125 -0.30078125 C36.80209717 -0.30169266 37.79169434 -0.30260406 38.8112793 -0.30354309 C39.72562744 -0.29401108 40.63997559 -0.28447906 41.58203125 -0.2746582 C42.38874268 -0.27005081 43.1954541 -0.26544342 44.02661133 -0.26069641 C46 0 46 0 48 2 C48.25396729 3.89073181 48.25396729 3.89073181 48.25878906 6.21850586 C48.26509338 7.08958481 48.27139771 7.96066376 48.27789307 8.85813904 C48.2738446 9.80085159 48.26979614 10.74356415 48.265625 11.71484375 C48.26849518 13.16486534 48.26849518 13.16486534 48.27142334 14.6441803 C48.27278592 16.69109354 48.26908443 18.73801541 48.26074219 20.78491211 C48.25005534 23.92125866 48.26062912 27.05703087 48.2734375 30.19335938 C48.27211569 32.17968877 48.26955285 34.1660178 48.265625 36.15234375 C48.26967346 37.09303207 48.27372192 38.0337204 48.27789307 39.00291443 C48.27158875 39.87714554 48.26528442 40.75137665 48.25878906 41.65209961 C48.25719788 42.42106064 48.25560669 43.19002167 48.25396729 43.98228455 C48 46 48 46 46 49 C44.02661133 49.38095093 44.02661133 49.38095093 41.58203125 49.38818359 C40.66768311 49.39764008 39.75333496 49.40709656 38.8112793 49.4168396 C37.82168213 49.41076691 36.83208496 49.40469421 35.8125 49.3984375 C34.79905518 49.40130768 33.78561035 49.40417786 32.74145508 49.40713501 C30.59618573 49.40917887 28.45089789 49.40362661 26.30566406 49.39111328 C23.01324984 49.37506459 19.72206333 49.39095155 16.4296875 49.41015625 C14.34895561 49.40817388 12.26822449 49.40433032 10.1875 49.3984375 C9.19790283 49.40451019 8.20830566 49.41058289 7.1887207 49.4168396 C5.81719849 49.40265488 5.81719849 49.40265488 4.41796875 49.38818359 C3.61125732 49.38579681 2.8045459 49.38341003 1.97338867 49.38095093 C1.32217041 49.25523712 0.67095215 49.12952332 0 49 C-2.06013396 45.90979905 -2.25135713 45.25427888 -2.25878906 41.75976562 C-2.26509338 40.90878296 -2.27139771 40.05780029 -2.27789307 39.18103027 C-2.2738446 38.26535278 -2.26979614 37.34967529 -2.265625 36.40625 C-2.26753845 35.46317993 -2.2694519 34.52010986 -2.27142334 33.54846191 C-2.27278431 31.55460341 -2.26909403 29.56073601 -2.26074219 27.56689453 C-2.25004148 24.51184214 -2.26064052 21.45737781 -2.2734375 18.40234375 C-2.27211589 16.46614453 -2.26955347 14.52994568 -2.265625 12.59375 C-2.26967346 11.67807251 -2.27372192 10.76239502 -2.27789307 9.81896973 C-2.27158875 8.96798706 -2.26528442 8.11700439 -2.25878906 7.24023438 C-2.25719788 6.49205444 -2.25560669 5.74387451 -2.25396729 4.97302246 C-2 3 -2 3 0 0 Z " fill="#FFAE08" transform="translate(384,386)"/>
<path d="M0 0 C0.91434814 -0.00953201 1.82869629 -0.01906403 2.77075195 -0.02888489 C3.76034912 -0.02797348 4.74994629 -0.02706207 5.76953125 -0.02612305 C6.78297607 -0.03040817 7.7964209 -0.0346933 8.84057617 -0.03910828 C10.98583223 -0.04485789 13.13110779 -0.04534721 15.27636719 -0.04101562 C18.56869548 -0.0378546 21.8601266 -0.06131109 25.15234375 -0.08666992 C27.23307178 -0.08894264 29.31380223 -0.08964654 31.39453125 -0.08862305 C32.38412842 -0.09783279 33.37372559 -0.10704254 34.39331055 -0.11653137 C35.30765869 -0.11030258 36.22200684 -0.10407379 37.1640625 -0.09765625 C38.37412964 -0.09860039 38.37412964 -0.09860039 39.60864258 -0.0995636 C40.25986084 0.0239296 40.9110791 0.14742279 41.58203125 0.2746582 C43.64216521 3.36485915 43.83338838 4.02037932 43.84082031 7.51489258 C43.84712463 8.36587524 43.85342896 9.21685791 43.85992432 10.09362793 C43.85587585 11.00930542 43.85182739 11.92498291 43.84765625 12.8684082 C43.85052643 14.28301331 43.85052643 14.28301331 43.85345459 15.72619629 C43.85481556 17.7200548 43.85112528 19.71392219 43.84277344 21.70776367 C43.83207273 24.76281606 43.84267177 27.81728039 43.85546875 30.87231445 C43.85414714 32.80851367 43.85158472 34.74471252 43.84765625 36.6809082 C43.85170471 37.59658569 43.85575317 38.51226318 43.85992432 39.45568848 C43.85362 40.30667114 43.84731567 41.15765381 43.84082031 42.03442383 C43.83922913 42.78260376 43.83763794 43.53078369 43.83599854 44.30163574 C43.58203125 46.2746582 43.58203125 46.2746582 41.58203125 49.2746582 C39.60864258 49.65560913 39.60864258 49.65560913 37.1640625 49.6628418 C36.24971436 49.67229828 35.33536621 49.68175476 34.39331055 49.6914978 C33.40371338 49.68542511 32.41411621 49.67935242 31.39453125 49.6730957 C30.38108643 49.67596588 29.3676416 49.67883606 28.32348633 49.68179321 C26.17821698 49.68383707 24.03292914 49.67828481 21.88769531 49.66577148 C18.59528109 49.64972279 15.30409458 49.66560975 12.01171875 49.68481445 C9.93098686 49.68283208 7.85025574 49.67898853 5.76953125 49.6730957 C4.77993408 49.6791684 3.79033691 49.68524109 2.77075195 49.6914978 C1.39922974 49.67731308 1.39922974 49.67731308 0 49.6628418 C-0.80671143 49.66045502 -1.61342285 49.65806824 -2.44458008 49.65560913 C-3.09579834 49.52989532 -3.7470166 49.40418152 -4.41796875 49.2746582 C-6.49569512 46.15806865 -6.6694363 45.46497118 -6.67675781 41.92675781 C-6.68306213 41.0525267 -6.68936646 40.17829559 -6.69586182 39.27757263 C-6.69181335 38.33688431 -6.68776489 37.39619598 -6.68359375 36.42700195 C-6.6855072 35.45936417 -6.68742065 34.49172638 -6.68939209 33.49476624 C-6.69075303 31.44963318 -6.68706294 29.40449146 -6.67871094 27.359375 C-6.66799863 24.22091381 -6.67861535 21.08302355 -6.69140625 17.94458008 C-6.69008487 15.95955277 -6.68752291 13.97452581 -6.68359375 11.98950195 C-6.68764221 11.0467894 -6.69169067 10.10407684 -6.69586182 9.13279724 C-6.6895575 8.26171829 -6.68325317 7.39063934 -6.67675781 6.49316406 C-6.67516663 5.72499863 -6.67357544 4.95683319 -6.67193604 4.16539001 C-6.11810015 0.04220099 -3.52690737 0.02014332 0 0 Z " fill="#FFAE07" transform="translate(86.41796875,385.725341796875)"/>
<path d="M0 0 C0.87107895 -0.00630432 1.7421579 -0.01260864 2.63963318 -0.019104 C3.58234573 -0.01505554 4.52505829 -0.01100708 5.49633789 -0.00683594 C6.46301895 -0.00874939 7.42970001 -0.01066284 8.42567444 -0.01263428 C10.47258769 -0.01399686 12.51950955 -0.01029536 14.56640625 -0.00195312 C17.7027528 0.00873372 20.83852501 -0.00184006 23.97485352 -0.01464844 C25.96118291 -0.01332663 27.94751194 -0.01076379 29.93383789 -0.00683594 C30.87452621 -0.0108844 31.81521454 -0.01493286 32.78440857 -0.019104 C34.09575523 -0.00964752 34.09575523 -0.00964752 35.43359375 0 C36.58703529 0.00238678 36.58703529 0.00238678 37.76377869 0.00482178 C39.78149414 0.25878906 39.78149414 0.25878906 42.78149414 2.25878906 C43.16244507 4.23217773 43.16244507 4.23217773 43.16967773 6.67675781 C43.17913422 7.59110596 43.1885907 8.5054541 43.19833374 9.44750977 C43.19226105 10.43710693 43.18618835 11.4267041 43.17993164 12.44628906 C43.18280182 13.45973389 43.185672 14.47317871 43.18862915 15.51733398 C43.19067301 17.66260333 43.18512075 19.80789118 43.17260742 21.953125 C43.15655873 25.24553922 43.17244569 28.53672574 43.19165039 31.82910156 C43.18966802 33.90983345 43.18582446 35.99056457 43.17993164 38.07128906 C43.18904068 39.55568481 43.18904068 39.55568481 43.19833374 41.07006836 C43.18887726 41.9844165 43.17942078 42.89876465 43.16967773 43.84082031 C43.16729095 44.64753174 43.16490417 45.45424316 43.16244507 46.28540039 C43.03673126 46.93661865 42.91101746 47.58783691 42.78149414 48.25878906 C39.69129319 50.31892303 39.03577302 50.51014619 35.54125977 50.51757812 C34.6902771 50.52388245 33.83929443 50.53018677 32.96252441 50.53668213 C32.04684692 50.53263367 31.13116943 50.52858521 30.18774414 50.52441406 C29.24467407 50.52632751 28.301604 50.52824097 27.32995605 50.5302124 C25.33609755 50.53157337 23.34223015 50.52788309 21.34838867 50.51953125 C18.29333629 50.50883054 15.23887195 50.51942958 12.18383789 50.53222656 C10.24763867 50.53090495 8.31143982 50.52834253 6.37524414 50.52441406 C5.45956665 50.52846252 4.54388916 50.53251099 3.60046387 50.53668213 C2.7494812 50.53037781 1.89849854 50.52407349 1.02172852 50.51757812 C0.27354858 50.51598694 -0.47463135 50.51439575 -1.2454834 50.51275635 C-3.21850586 50.25878906 -3.21850586 50.25878906 -6.21850586 48.25878906 C-6.59272766 46.28540039 -6.59272766 46.28540039 -6.59082031 43.84082031 C-6.5970491 42.92647217 -6.60327789 42.01212402 -6.60969543 41.07006836 C-6.60048569 40.08047119 -6.59127594 39.09087402 -6.58178711 38.07128906 C-6.58228561 37.05784424 -6.58278412 36.04439941 -6.58329773 35.00024414 C-6.5809545 32.85496055 -6.57121141 30.70967436 -6.5546875 28.56445312 C-6.53110202 25.27221206 -6.53412385 21.98078056 -6.54077148 18.68847656 C-6.5351948 16.60774254 -6.52808498 14.52701195 -6.51928711 12.44628906 C-6.52019852 11.45669189 -6.52110992 10.46709473 -6.52204895 9.44750977 C-6.51251694 8.53316162 -6.50298492 7.61881348 -6.49316406 6.67675781 C-6.48855667 5.87004639 -6.48394928 5.06333496 -6.47920227 4.23217773 C-5.94027984 0.15270682 -3.53756519 0.00732775 0 0 Z " fill="#FFAE07" transform="translate(313.218505859375,314.7412109375)"/>
<path d="M0 0 C0.87107895 -0.00630432 1.7421579 -0.01260864 2.63963318 -0.019104 C3.58234573 -0.01505554 4.52505829 -0.01100708 5.49633789 -0.00683594 C6.46301895 -0.00874939 7.42970001 -0.01066284 8.42567444 -0.01263428 C10.47258769 -0.01399686 12.51950955 -0.01029536 14.56640625 -0.00195312 C17.7027528 0.00873372 20.83852501 -0.00184006 23.97485352 -0.01464844 C25.96118291 -0.01332663 27.94751194 -0.01076379 29.93383789 -0.00683594 C30.87452621 -0.0108844 31.81521454 -0.01493286 32.78440857 -0.019104 C34.09575523 -0.00964752 34.09575523 -0.00964752 35.43359375 0 C36.58703529 0.00238678 36.58703529 0.00238678 37.76377869 0.00482178 C39.78149414 0.25878906 39.78149414 0.25878906 42.78149414 2.25878906 C43.16244507 4.23217773 43.16244507 4.23217773 43.16967773 6.67675781 C43.17913422 7.59110596 43.1885907 8.5054541 43.19833374 9.44750977 C43.19226105 10.43710693 43.18618835 11.4267041 43.17993164 12.44628906 C43.18280182 13.45973389 43.185672 14.47317871 43.18862915 15.51733398 C43.19067301 17.66260333 43.18512075 19.80789118 43.17260742 21.953125 C43.15655873 25.24553922 43.17244569 28.53672574 43.19165039 31.82910156 C43.18966802 33.90983345 43.18582446 35.99056457 43.17993164 38.07128906 C43.18904068 39.55568481 43.18904068 39.55568481 43.19833374 41.07006836 C43.18887726 41.9844165 43.17942078 42.89876465 43.16967773 43.84082031 C43.16729095 44.64753174 43.16490417 45.45424316 43.16244507 46.28540039 C43.03673126 46.93661865 42.91101746 47.58783691 42.78149414 48.25878906 C39.69129319 50.31892303 39.03577302 50.51014619 35.54125977 50.51757812 C34.6902771 50.52388245 33.83929443 50.53018677 32.96252441 50.53668213 C32.04684692 50.53263367 31.13116943 50.52858521 30.18774414 50.52441406 C29.24467407 50.52632751 28.301604 50.52824097 27.32995605 50.5302124 C25.33609755 50.53157337 23.34223015 50.52788309 21.34838867 50.51953125 C18.29333629 50.50883054 15.23887195 50.51942958 12.18383789 50.53222656 C10.24763867 50.53090495 8.31143982 50.52834253 6.37524414 50.52441406 C5.45956665 50.52846252 4.54388916 50.53251099 3.60046387 50.53668213 C2.7494812 50.53037781 1.89849854 50.52407349 1.02172852 50.51757812 C0.27354858 50.51598694 -0.47463135 50.51439575 -1.2454834 50.51275635 C-3.21850586 50.25878906 -3.21850586 50.25878906 -6.21850586 48.25878906 C-6.59272766 46.28540039 -6.59272766 46.28540039 -6.59082031 43.84082031 C-6.5970491 42.92647217 -6.60327789 42.01212402 -6.60969543 41.07006836 C-6.60048569 40.08047119 -6.59127594 39.09087402 -6.58178711 38.07128906 C-6.58228561 37.05784424 -6.58278412 36.04439941 -6.58329773 35.00024414 C-6.5809545 32.85496055 -6.57121141 30.70967436 -6.5546875 28.56445312 C-6.53110202 25.27221206 -6.53412385 21.98078056 -6.54077148 18.68847656 C-6.5351948 16.60774254 -6.52808498 14.52701195 -6.51928711 12.44628906 C-6.52019852 11.45669189 -6.52110992 10.46709473 -6.52204895 9.44750977 C-6.51251694 8.53316162 -6.50298492 7.61881348 -6.49316406 6.67675781 C-6.48855667 5.87004639 -6.48394928 5.06333496 -6.47920227 4.23217773 C-5.94027984 0.15270682 -3.53756519 0.00732775 0 0 Z " fill="#FFAE07" transform="translate(162.218505859375,314.7412109375)"/>
<path d="M0 0 C0.85098267 -0.00953201 1.70196533 -0.01906403 2.57873535 -0.02888489 C3.49441284 -0.02797348 4.41009033 -0.02706207 5.35351562 -0.02612305 C6.29658569 -0.03040817 7.23965576 -0.0346933 8.21130371 -0.03910828 C10.20515134 -0.04485112 12.19901991 -0.04535218 14.19287109 -0.04101562 C17.2480834 -0.03785389 20.3023292 -0.06132156 23.35742188 -0.08666992 C25.29361857 -0.08894269 27.22981787 -0.08964652 29.16601562 -0.08862305 C30.53953186 -0.10243767 30.53953186 -0.10243767 31.9407959 -0.11653137 C33.2172699 -0.10718819 33.2172699 -0.10718819 34.51953125 -0.09765625 C35.26771118 -0.09828568 36.01589111 -0.0989151 36.78674316 -0.0995636 C39.36964558 0.39033371 40.2348794 1.14871964 41.75976562 3.2746582 C42.13398743 5.33033752 42.13398743 5.33033752 42.13208008 7.71435547 C42.14142326 9.05573326 42.14142326 9.05573326 42.1509552 10.42420959 C42.14174545 11.3867717 42.13253571 12.3493338 42.12304688 13.34106445 C42.12379463 14.8258152 42.12379463 14.8258152 42.1245575 16.34056091 C42.12221691 18.4327902 42.11248929 20.5250223 42.09594727 22.6171875 C42.07233198 25.82813548 42.0753893 29.03825472 42.08203125 32.24926758 C42.07645539 34.27987151 42.06934609 36.31047193 42.06054688 38.34106445 C42.06145828 39.30565079 42.06236969 40.27023712 42.06330872 41.26405334 C42.0537767 42.15515305 42.04424469 43.04625275 42.03442383 43.96435547 C42.02981644 44.7502858 42.02520905 45.53621613 42.02046204 46.34596252 C41.75976562 48.2746582 41.75976562 48.2746582 39.75976562 50.2746582 C37.82434082 50.52862549 37.82434082 50.52862549 35.43359375 50.53344727 C34.53926636 50.53975159 33.64493896 50.54605591 32.72351074 50.55255127 C31.75578735 50.54850281 30.78806396 50.54445435 29.79101562 50.5402832 C28.30414246 50.54315338 28.30414246 50.54315338 26.78723145 50.54608154 C24.68904365 50.54744406 22.59084744 50.54374302 20.49267578 50.53540039 C17.27292017 50.52470191 14.05372254 50.53529356 10.83398438 50.5480957 C8.79882689 50.54677412 6.76366975 50.54421175 4.72851562 50.5402832 C3.27693054 50.5463559 3.27693054 50.5463559 1.79602051 50.55255127 C0.90169312 50.54624695 0.00736572 50.53994263 -0.9140625 50.53344727 C-1.70300903 50.53185608 -2.49195557 50.53026489 -3.30480957 50.52862549 C-5.24023438 50.2746582 -5.24023438 50.2746582 -7.24023438 48.2746582 C-7.50093079 46.30126953 -7.50093079 46.30126953 -7.51489258 43.85668945 C-7.5291906 42.48516724 -7.5291906 42.48516724 -7.54377747 41.0859375 C-7.54286606 40.09634033 -7.54195465 39.10674316 -7.54101562 38.0871582 C-7.54530075 37.07371338 -7.54958588 36.06026855 -7.55400085 35.01611328 C-7.55975047 32.87085722 -7.56023979 30.72558166 -7.5559082 28.58032227 C-7.55274718 25.28799397 -7.57620366 21.99656285 -7.6015625 18.7043457 C-7.60383522 16.62361768 -7.60453912 14.54288722 -7.60351562 12.4621582 C-7.61272537 11.47256104 -7.62193512 10.48296387 -7.63142395 9.46337891 C-7.62519516 8.54903076 -7.61896637 7.63468262 -7.61254883 6.69262695 C-7.61317825 5.88591553 -7.61380768 5.0792041 -7.61445618 4.24804688 C-7.42921638 3.27121948 -7.42921638 3.27121948 -7.24023438 2.2746582 C-4.15579891 0.21836789 -3.48907047 0.02148616 0 0 Z " fill="#FFAE08" transform="translate(163.240234375,243.725341796875)"/>
<path d="M0 0 C0.85098267 -0.00945648 1.70196533 -0.01891296 2.57873535 -0.02865601 C3.49441284 -0.02258331 4.41009033 -0.01651062 5.35351562 -0.01025391 C6.29658569 -0.01312408 7.23965576 -0.01599426 8.21130371 -0.01895142 C10.20516561 -0.02099287 12.1990475 -0.01545734 14.19287109 -0.00292969 C17.24817607 0.0131227 20.30215814 -0.00277574 23.35742188 -0.02197266 C25.29362272 -0.01999024 27.22982273 -0.0161466 29.16601562 -0.01025391 C30.53953186 -0.01936295 30.53953186 -0.01936295 31.9407959 -0.02865601 C32.79177856 -0.01919952 33.64276123 -0.00974304 34.51953125 0 C35.64180115 0.00358017 35.64180115 0.00358017 36.78674316 0.00723267 C39.3660545 0.50524577 40.23525303 1.26396763 41.75976562 3.38818359 C42.13398743 5.44386292 42.13398743 5.44386292 42.13208008 7.82788086 C42.14142326 9.16925865 42.14142326 9.16925865 42.1509552 10.53773499 C42.14174545 11.50029709 42.13253571 12.46285919 42.12304688 13.45458984 C42.12379463 14.93934059 42.12379463 14.93934059 42.1245575 16.4540863 C42.12221691 18.54631559 42.11248929 20.63854769 42.09594727 22.73071289 C42.07233198 25.94166087 42.0753893 29.15178011 42.08203125 32.36279297 C42.07645539 34.3933969 42.06934609 36.42399732 42.06054688 38.45458984 C42.06145828 39.41917618 42.06236969 40.38376251 42.06330872 41.37757874 C42.0537767 42.26867844 42.04424469 43.15977814 42.03442383 44.07788086 C42.02981644 44.86381119 42.02520905 45.64974152 42.02046204 46.45948792 C41.75976562 48.38818359 41.75976562 48.38818359 39.75976562 50.38818359 C37.82434082 50.64215088 37.82434082 50.64215088 35.43359375 50.64697266 C34.53926636 50.65327698 33.64493896 50.6595813 32.72351074 50.66607666 C31.75578735 50.6620282 30.78806396 50.65797974 29.79101562 50.65380859 C28.30414246 50.65667877 28.30414246 50.65667877 26.78723145 50.65960693 C24.68904365 50.66096945 22.59084744 50.65726841 20.49267578 50.64892578 C17.27292017 50.6382273 14.05372254 50.64881895 10.83398438 50.66162109 C8.79882689 50.66029951 6.76366975 50.65773714 4.72851562 50.65380859 C3.27693054 50.65988129 3.27693054 50.65988129 1.79602051 50.66607666 C0.90169312 50.65977234 0.00736572 50.65346802 -0.9140625 50.64697266 C-1.70300903 50.64538147 -2.49195557 50.64379028 -3.30480957 50.64215088 C-5.24023438 50.38818359 -5.24023438 50.38818359 -7.24023438 48.38818359 C-7.50093079 46.45948792 -7.50093079 46.45948792 -7.51489258 44.07788086 C-7.5291906 42.74123131 -7.5291906 42.74123131 -7.54377747 41.37757874 C-7.54286606 40.4129924 -7.54195465 39.44840607 -7.54101562 38.45458984 C-7.54530075 37.46571274 -7.54958588 36.47683563 -7.55400085 35.45799255 C-7.55975074 33.3640113 -7.56023959 31.27001006 -7.5559082 29.17602539 C-7.55275053 25.96710199 -7.57619155 22.75910212 -7.6015625 19.55029297 C-7.6038356 17.51839309 -7.60453894 15.48649073 -7.60351562 13.45458984 C-7.61272537 12.49202774 -7.62193512 11.52946564 -7.63142395 10.53773499 C-7.62519516 9.64348312 -7.61896637 8.74923126 -7.61254883 7.82788086 C-7.61317825 7.04115494 -7.61380768 6.25442902 -7.61445618 5.44386292 C-6.81073188 1.02883577 -4.170746 0.01330516 0 0 Z " fill="#FFAE08" transform="translate(314.240234375,243.61181640625)"/>
<path d="M0 0 C0.89432739 -0.00630432 1.78865479 -0.01260864 2.71008301 -0.019104 C4.16166809 -0.01303131 4.16166809 -0.01303131 5.64257812 -0.00683594 C6.6338269 -0.00874939 7.62507568 -0.01066284 8.6463623 -0.01263428 C10.7445501 -0.01399679 12.84274631 -0.01029576 14.94091797 -0.00195312 C18.16067358 0.00874535 21.37987121 -0.0018463 24.59960938 -0.01464844 C26.63476686 -0.01332685 28.669924 -0.01076449 30.70507812 -0.00683594 C31.67280151 -0.0108844 32.6405249 -0.01493286 33.63757324 -0.019104 C34.53190063 -0.01279968 35.42622803 -0.00649536 36.34765625 0 C37.13660278 0.00159119 37.92554932 0.00318237 38.73840332 0.00482178 C40.67382812 0.25878906 40.67382812 0.25878906 42.67382812 2.25878906 C42.93452454 4.18748474 42.93452454 4.18748474 42.94848633 6.5690918 C42.96278435 7.90574135 42.96278435 7.90574135 42.97737122 9.26939392 C42.97645981 10.23398026 42.9755484 11.19856659 42.97460938 12.19238281 C42.9788945 13.18125992 42.98317963 14.17013702 42.9875946 15.1889801 C42.99334449 17.28296136 42.99383334 19.37696259 42.98950195 21.47094727 C42.98634428 24.67987066 43.0097853 27.88787054 43.03515625 31.09667969 C43.03742935 33.12857956 43.03813269 35.16048192 43.03710938 37.19238281 C43.04631912 38.15494492 43.05552887 39.11750702 43.0650177 40.10923767 C43.05878891 41.00348953 43.05256012 41.89774139 43.04614258 42.8190918 C43.046772 43.60581772 43.04740143 44.39254364 43.04804993 45.20310974 C42.56836646 47.83811225 41.84039651 48.70791049 39.67382812 50.25878906 C37.70080566 50.63973999 37.70080566 50.63973999 35.43359375 50.64697266 C34.58261108 50.65642914 33.73162842 50.66588562 32.8548584 50.67562866 C31.93918091 50.66955597 31.02350342 50.66348328 30.08007812 50.65722656 C29.13700806 50.66009674 28.19393799 50.66296692 27.22229004 50.66592407 C25.22842814 50.66796553 23.23454625 50.66242999 21.24072266 50.64990234 C18.18541768 50.63384995 15.13143561 50.64974839 12.07617188 50.66894531 C10.13997103 50.6669629 8.20377102 50.66311925 6.26757812 50.65722656 C4.89406189 50.6663356 4.89406189 50.6663356 3.49279785 50.67562866 C2.21632385 50.66144394 2.21632385 50.66144394 0.9140625 50.64697266 C-0.2082074 50.64339249 -0.2082074 50.64339249 -1.35314941 50.63973999 C-3.93246075 50.14172688 -4.80165928 49.38300503 -6.32617188 47.25878906 C-6.70039368 45.20310974 -6.70039368 45.20310974 -6.69848633 42.8190918 C-6.70471512 41.92483994 -6.71094391 41.03058807 -6.71736145 40.10923767 C-6.7081517 39.14667557 -6.69894196 38.18411346 -6.68945312 37.19238281 C-6.69020088 35.70763206 -6.69020088 35.70763206 -6.69096375 34.19288635 C-6.68862316 32.10065706 -6.67889554 30.00842497 -6.66235352 27.91625977 C-6.63873823 24.70531178 -6.64179555 21.49519255 -6.6484375 18.28417969 C-6.64286164 16.25357576 -6.63575234 14.22297533 -6.62695312 12.19238281 C-6.62786453 11.22779648 -6.62877594 10.26321014 -6.62971497 9.26939392 C-6.62018295 8.37829422 -6.61065094 7.48719452 -6.60083008 6.5690918 C-6.59622269 5.78316147 -6.5916153 4.99723114 -6.58686829 4.18748474 C-6.03203173 0.08266844 -3.53548017 0.00713053 0 0 Z " fill="#FFAE08" transform="translate(313.326171875,173.7412109375)"/>
<path d="M0 0 C0.89432739 -0.00630432 1.78865479 -0.01260864 2.71008301 -0.019104 C4.16166809 -0.01303131 4.16166809 -0.01303131 5.64257812 -0.00683594 C6.6338269 -0.00874939 7.62507568 -0.01066284 8.6463623 -0.01263428 C10.7445501 -0.01399679 12.84274631 -0.01029576 14.94091797 -0.00195312 C18.16067358 0.00874535 21.37987121 -0.0018463 24.59960938 -0.01464844 C26.63476686 -0.01332685 28.669924 -0.01076449 30.70507812 -0.00683594 C31.67280151 -0.0108844 32.6405249 -0.01493286 33.63757324 -0.019104 C34.53190063 -0.01279968 35.42622803 -0.00649536 36.34765625 0 C37.13660278 0.00159119 37.92554932 0.00318237 38.73840332 0.00482178 C40.67382812 0.25878906 40.67382812 0.25878906 42.67382812 2.25878906 C42.93452454 4.18748474 42.93452454 4.18748474 42.94848633 6.5690918 C42.96278435 7.90574135 42.96278435 7.90574135 42.97737122 9.26939392 C42.97645981 10.23398026 42.9755484 11.19856659 42.97460938 12.19238281 C42.9788945 13.18125992 42.98317963 14.17013702 42.9875946 15.1889801 C42.99334449 17.28296136 42.99383334 19.37696259 42.98950195 21.47094727 C42.98634428 24.67987066 43.0097853 27.88787054 43.03515625 31.09667969 C43.03742935 33.12857956 43.03813269 35.16048192 43.03710938 37.19238281 C43.04631912 38.15494492 43.05552887 39.11750702 43.0650177 40.10923767 C43.05878891 41.00348953 43.05256012 41.89774139 43.04614258 42.8190918 C43.046772 43.60581772 43.04740143 44.39254364 43.04804993 45.20310974 C42.56836646 47.83811225 41.84039651 48.70791049 39.67382812 50.25878906 C37.70080566 50.63973999 37.70080566 50.63973999 35.43359375 50.64697266 C34.58261108 50.65642914 33.73162842 50.66588562 32.8548584 50.67562866 C31.93918091 50.66955597 31.02350342 50.66348328 30.08007812 50.65722656 C29.13700806 50.66009674 28.19393799 50.66296692 27.22229004 50.66592407 C25.22842814 50.66796553 23.23454625 50.66242999 21.24072266 50.64990234 C18.18541768 50.63384995 15.13143561 50.64974839 12.07617188 50.66894531 C10.13997103 50.6669629 8.20377102 50.66311925 6.26757812 50.65722656 C4.89406189 50.6663356 4.89406189 50.6663356 3.49279785 50.67562866 C2.21632385 50.66144394 2.21632385 50.66144394 0.9140625 50.64697266 C-0.2082074 50.64339249 -0.2082074 50.64339249 -1.35314941 50.63973999 C-3.93246075 50.14172688 -4.80165928 49.38300503 -6.32617188 47.25878906 C-6.70039368 45.20310974 -6.70039368 45.20310974 -6.69848633 42.8190918 C-6.70471512 41.92483994 -6.71094391 41.03058807 -6.71736145 40.10923767 C-6.7081517 39.14667557 -6.69894196 38.18411346 -6.68945312 37.19238281 C-6.69020088 35.70763206 -6.69020088 35.70763206 -6.69096375 34.19288635 C-6.68862316 32.10065706 -6.67889554 30.00842497 -6.66235352 27.91625977 C-6.63873823 24.70531178 -6.64179555 21.49519255 -6.6484375 18.28417969 C-6.64286164 16.25357576 -6.63575234 14.22297533 -6.62695312 12.19238281 C-6.62786453 11.22779648 -6.62877594 10.26321014 -6.62971497 9.26939392 C-6.62018295 8.37829422 -6.61065094 7.48719452 -6.60083008 6.5690918 C-6.59622269 5.78316147 -6.5916153 4.99723114 -6.58686829 4.18748474 C-6.03203173 0.08266844 -3.53548017 0.00713053 0 0 Z " fill="#FFAE08" transform="translate(162.326171875,173.7412109375)"/>
<path d="M0 0 C0.89432739 -0.00630432 1.78865479 -0.01260864 2.71008301 -0.019104 C4.16166809 -0.01303131 4.16166809 -0.01303131 5.64257812 -0.00683594 C6.6338269 -0.00874939 7.62507568 -0.01066284 8.6463623 -0.01263428 C10.7445501 -0.01399679 12.84274631 -0.01029576 14.94091797 -0.00195312 C18.16067358 0.00874535 21.37987121 -0.0018463 24.59960938 -0.01464844 C26.63476686 -0.01332685 28.669924 -0.01076449 30.70507812 -0.00683594 C31.67280151 -0.0108844 32.6405249 -0.01493286 33.63757324 -0.019104 C34.53190063 -0.01279968 35.42622803 -0.00649536 36.34765625 0 C37.13660278 0.00159119 37.92554932 0.00318237 38.73840332 0.00482178 C40.67382812 0.25878906 40.67382812 0.25878906 42.67382812 2.25878906 C42.92779541 4.19421387 42.92779541 4.19421387 42.93261719 6.58496094 C42.93892151 7.47928833 42.94522583 8.37361572 42.95172119 9.29504395 C42.94767273 10.26276733 42.94362427 11.23049072 42.93945312 12.22753906 C42.9423233 13.71441223 42.9423233 13.71441223 42.94525146 15.23132324 C42.94661398 17.32951104 42.94291294 19.42770725 42.93457031 21.52587891 C42.92387183 24.74563452 42.93446349 27.96483214 42.94726562 31.18457031 C42.94594404 33.2197278 42.94338167 35.25488494 42.93945312 37.29003906 C42.94350159 38.25776245 42.94755005 39.22548584 42.95172119 40.22253418 C42.94541687 41.11686157 42.93911255 42.01118896 42.93261719 42.93261719 C42.931026 43.72156372 42.92943481 44.51051025 42.92779541 45.32336426 C42.67382812 47.25878906 42.67382812 47.25878906 40.67382812 49.25878906 C38.73840332 49.51275635 38.73840332 49.51275635 36.34765625 49.51757812 C35.45332886 49.52388245 34.55900146 49.53018677 33.63757324 49.53668213 C32.66984985 49.53263367 31.70212646 49.52858521 30.70507812 49.52441406 C29.21820496 49.52728424 29.21820496 49.52728424 27.70129395 49.5302124 C25.60310615 49.53157492 23.50490994 49.52787388 21.40673828 49.51953125 C18.18698267 49.50883277 14.96778504 49.51942442 11.74804688 49.53222656 C9.71288939 49.53090498 7.67773225 49.52834261 5.64257812 49.52441406 C4.19099304 49.53048676 4.19099304 49.53048676 2.71008301 49.53668213 C1.81575562 49.53037781 0.92142822 49.52407349 0 49.51757812 C-0.78894653 49.51598694 -1.57789307 49.51439575 -2.39074707 49.51275635 C-4.32617188 49.25878906 -4.32617188 49.25878906 -6.32617188 47.25878906 C-6.58013916 45.32336426 -6.58013916 45.32336426 -6.58496094 42.93261719 C-6.59126526 42.03828979 -6.59756958 41.1439624 -6.60406494 40.22253418 C-6.60001648 39.25481079 -6.59596802 38.2870874 -6.59179688 37.29003906 C-6.59371033 36.29879028 -6.59562378 35.3075415 -6.59759521 34.28625488 C-6.59895773 32.18806708 -6.59525669 30.08987088 -6.58691406 27.99169922 C-6.57621558 24.7719436 -6.58680724 21.55274598 -6.59960938 18.33300781 C-6.59828779 16.29785033 -6.59572542 14.26269319 -6.59179688 12.22753906 C-6.59786957 10.77595398 -6.59786957 10.77595398 -6.60406494 9.29504395 C-6.59776062 8.40071655 -6.5914563 7.50638916 -6.58496094 6.58496094 C-6.58336975 5.7960144 -6.58177856 5.00706787 -6.58013916 4.19421387 C-6.04059588 0.08248176 -3.53669634 0.00713298 0 0 Z " fill="#FFAE06" transform="translate(313.326171875,385.7412109375)"/>
<path d="M0 0 C0.89432739 -0.00630432 1.78865479 -0.01260864 2.71008301 -0.019104 C4.16166809 -0.01303131 4.16166809 -0.01303131 5.64257812 -0.00683594 C6.6338269 -0.00874939 7.62507568 -0.01066284 8.6463623 -0.01263428 C10.7445501 -0.01399679 12.84274631 -0.01029576 14.94091797 -0.00195312 C18.16067358 0.00874535 21.37987121 -0.0018463 24.59960938 -0.01464844 C26.63476686 -0.01332685 28.669924 -0.01076449 30.70507812 -0.00683594 C31.67280151 -0.0108844 32.6405249 -0.01493286 33.63757324 -0.019104 C34.53190063 -0.01279968 35.42622803 -0.00649536 36.34765625 0 C37.13660278 0.00159119 37.92554932 0.00318237 38.73840332 0.00482178 C40.67382812 0.25878906 40.67382812 0.25878906 42.67382812 2.25878906 C42.92779541 4.19421387 42.92779541 4.19421387 42.93261719 6.58496094 C42.93892151 7.47928833 42.94522583 8.37361572 42.95172119 9.29504395 C42.94767273 10.26276733 42.94362427 11.23049072 42.93945312 12.22753906 C42.9423233 13.71441223 42.9423233 13.71441223 42.94525146 15.23132324 C42.94661398 17.32951104 42.94291294 19.42770725 42.93457031 21.52587891 C42.92387183 24.74563452 42.93446349 27.96483214 42.94726562 31.18457031 C42.94594404 33.2197278 42.94338167 35.25488494 42.93945312 37.29003906 C42.94350159 38.25776245 42.94755005 39.22548584 42.95172119 40.22253418 C42.94541687 41.11686157 42.93911255 42.01118896 42.93261719 42.93261719 C42.931026 43.72156372 42.92943481 44.51051025 42.92779541 45.32336426 C42.67382812 47.25878906 42.67382812 47.25878906 40.67382812 49.25878906 C38.73840332 49.51275635 38.73840332 49.51275635 36.34765625 49.51757812 C35.45332886 49.52388245 34.55900146 49.53018677 33.63757324 49.53668213 C32.66984985 49.53263367 31.70212646 49.52858521 30.70507812 49.52441406 C29.21820496 49.52728424 29.21820496 49.52728424 27.70129395 49.5302124 C25.60310615 49.53157492 23.50490994 49.52787388 21.40673828 49.51953125 C18.18698267 49.50883277 14.96778504 49.51942442 11.74804688 49.53222656 C9.71288939 49.53090498 7.67773225 49.52834261 5.64257812 49.52441406 C4.19099304 49.53048676 4.19099304 49.53048676 2.71008301 49.53668213 C1.81575562 49.53037781 0.92142822 49.52407349 0 49.51757812 C-0.78894653 49.51598694 -1.57789307 49.51439575 -2.39074707 49.51275635 C-4.32617188 49.25878906 -4.32617188 49.25878906 -6.32617188 47.25878906 C-6.58013916 45.32336426 -6.58013916 45.32336426 -6.58496094 42.93261719 C-6.59126526 42.03828979 -6.59756958 41.1439624 -6.60406494 40.22253418 C-6.60001648 39.25481079 -6.59596802 38.2870874 -6.59179688 37.29003906 C-6.59371033 36.29879028 -6.59562378 35.3075415 -6.59759521 34.28625488 C-6.59895773 32.18806708 -6.59525669 30.08987088 -6.58691406 27.99169922 C-6.57621558 24.7719436 -6.58680724 21.55274598 -6.59960938 18.33300781 C-6.59828779 16.29785033 -6.59572542 14.26269319 -6.59179688 12.22753906 C-6.59786957 10.77595398 -6.59786957 10.77595398 -6.60406494 9.29504395 C-6.59776062 8.40071655 -6.5914563 7.50638916 -6.58496094 6.58496094 C-6.58336975 5.7960144 -6.58177856 5.00706787 -6.58013916 4.19421387 C-6.04059588 0.08248176 -3.53669634 0.00713298 0 0 Z " fill="#FFAE06" transform="translate(162.326171875,385.7412109375)"/>
<path d="M0 0 C3.5625 0.3125 3.5625 0.3125 5.5625 1.4375 C7.07337147 4.270384 6.35029328 6.29262574 5.5625 9.3125 C3.97382134 10.90117866 2.31560484 10.52044039 0.125 10.5625 C-0.67808594 10.58828125 -1.48117187 10.6140625 -2.30859375 10.640625 C-3.01113281 10.53234375 -3.71367187 10.4240625 -4.4375 10.3125 C-6.4375 7.3125 -6.4375 7.3125 -6.1875 4.75 C-4.98952697 0.85658766 -4.06891683 0.36990153 0 0 Z " fill="#FFF9EF" transform="translate(331.4375,263.6875)"/>
<path d="M0 0 C0.70125 0.00515625 1.4025 0.0103125 2.125 0.015625 C2.82625 0.01046875 3.5275 0.0053125 4.25 0 C6.125 0.265625 6.125 0.265625 8.125 2.265625 C8.375 5.265625 8.375 5.265625 8.125 8.265625 C6.125 10.265625 6.125 10.265625 4.25 10.53125 C3.54875 10.52609375 2.8475 10.5209375 2.125 10.515625 C1.42375 10.52078125 0.7225 10.5259375 0 10.53125 C-1.875 10.265625 -1.875 10.265625 -3.875 8.265625 C-4.125 5.265625 -4.125 5.265625 -3.875 2.265625 C-1.875 0.265625 -1.875 0.265625 0 0 Z " fill="#FFFAF2" transform="translate(404.875,334.734375)"/>
<path d="M0 0 C2 1.1875 2 1.1875 3 3 C2.75546876 6.34192692 2.39456443 7.60543557 0 10 C-6.02608696 10.54782609 -6.02608696 10.54782609 -9 8.875 C-10.52480785 6.01598528 -9.8570682 4.03270286 -9 1 C-5.95016004 -0.52491998 -3.3576631 -0.23562548 0 0 Z " fill="#FFFBF3" transform="translate(335,335)"/>
<path d="M0 0 C0.99 0.66 1.98 1.32 3 2 C3.3125 5 3.3125 5 3 8 C1 10 1 10 -0.875 10.265625 C-1.57625 10.26046875 -2.2775 10.2553125 -3 10.25 C-3.70125 10.25515625 -4.4025 10.2603125 -5.125 10.265625 C-7 10 -7 10 -9 8 C-9.3125 5 -9.3125 5 -9 2 C-5.53001271 -0.31332486 -4.07490752 -0.33957563 0 0 Z " fill="#FFFBF3" transform="translate(410,264)"/>
<path d="M0 0 C1.19109375 0.00773438 1.19109375 0.00773438 2.40625 0.015625 C3.2003125 0.01046875 3.994375 0.0053125 4.8125 0 C6.90625 0.265625 6.90625 0.265625 8.90625 2.265625 C9.15625 4.765625 9.15625 4.765625 8.90625 7.265625 C6.90625 9.265625 6.90625 9.265625 4.8125 9.53125 C4.0184375 9.52609375 3.224375 9.5209375 2.40625 9.515625 C1.6121875 9.52078125 0.818125 9.5259375 0 9.53125 C-2.09375 9.265625 -2.09375 9.265625 -4.09375 7.265625 C-4.34375 4.765625 -4.34375 4.765625 -4.09375 2.265625 C-2.09375 0.265625 -2.09375 0.265625 0 0 Z " fill="#FFFBF3" transform="translate(329.09375,193.734375)"/>
<path d="M0 0 C1.20462891 -0.02126953 1.20462891 -0.02126953 2.43359375 -0.04296875 C4.5625 0.1875 4.5625 0.1875 6.5625 2.1875 C6.8125 4.6875 6.8125 4.6875 6.5625 7.1875 C4.13727793 9.61272207 3.3904321 9.48379254 0.0625 9.5 C-0.7315625 9.51675781 -1.525625 9.53351563 -2.34375 9.55078125 C-3.0346875 9.43089844 -3.725625 9.31101562 -4.4375 9.1875 C-6.4375 6.1875 -6.4375 6.1875 -6.125 3.5625 C-4.99577401 -0.33846251 -3.83793026 0.03070344 0 0 Z " fill="#FFFBF5" transform="translate(331.4375,405.8125)"/>
<path d="M0 0 C0.70125 0.00515625 1.4025 0.0103125 2.125 0.015625 C2.82625 0.01046875 3.5275 0.0053125 4.25 0 C6.125 0.265625 6.125 0.265625 8.125 2.265625 C8.4375 5.265625 8.4375 5.265625 8.125 8.265625 C4.65576119 10.57845087 3.20294425 10.69041086 -0.875 10.265625 C-2.75 9.078125 -2.75 9.078125 -3.875 7.265625 C-4.1875 4.703125 -4.1875 4.703125 -3.875 2.265625 C-1.875 0.265625 -1.875 0.265625 0 0 Z " fill="#FFFBF4" transform="translate(404.875,193.734375)"/>
<path d="M0 0 C0.70125 0.00515625 1.4025 0.0103125 2.125 0.015625 C2.82625 0.01046875 3.5275 0.0053125 4.25 0 C6.125 0.265625 6.125 0.265625 8.125 2.265625 C8.375 4.765625 8.375 4.765625 8.125 7.265625 C6.125 9.265625 6.125 9.265625 4.25 9.53125 C3.54875 9.52609375 2.8475 9.5209375 2.125 9.515625 C1.42375 9.52078125 0.7225 9.5259375 0 9.53125 C-1.875 9.265625 -1.875 9.265625 -3.875 7.265625 C-4.125 4.765625 -4.125 4.765625 -3.875 2.265625 C-1.875 0.265625 -1.875 0.265625 0 0 Z " fill="#FFFEFD" transform="translate(404.875,405.734375)"/>
</svg>
