<?xml version="1.0" encoding="UTF-8"?>
<svg version="1.1" xmlns="http://www.w3.org/2000/svg" width="512" height="512">
<path d="M0 0 C1.17977921 0.52546921 1.17977921 0.52546921 2.38339233 1.06155396 C4.95910652 2.21381818 7.5221261 3.3918322 10.0859375 4.5703125 C11.91068794 5.39233728 13.7362244 6.21261922 15.5625 7.03125 C20.28407599 9.15248404 24.99587391 11.29457621 29.70568848 13.44177246 C34.00108963 15.39602679 38.30492092 17.33141108 42.609375 19.265625 C44.25506212 20.00533428 45.90073275 20.74508024 47.54638672 21.48486328 C48.76162018 22.03113373 48.76162018 22.03113373 50.00140381 22.58843994 C52.47990819 23.70384995 54.95715347 24.82201344 57.43408203 25.94091797 C70.09148651 31.65534311 82.79811364 37.25212654 95.52261353 42.8152771 C109.27690824 48.83076119 122.98026065 54.95265287 136.65664673 61.14312744 C145.22905772 65.02283742 153.80905197 68.87447431 162.4609375 72.57421875 C163.16442825 72.87558243 163.86791901 73.17694611 164.59272766 73.48744202 C167.85415213 74.88264807 171.11915612 76.26820226 174.39135742 77.63793945 C175.52162354 78.11835693 176.65188965 78.59877441 177.81640625 79.09375 C179.28049927 79.70742432 179.28049927 79.70742432 180.77416992 80.33349609 C184.32235892 82.13193301 187.64422629 84.06189008 189.4609375 87.6953125 C189.55053489 90.01451691 189.57233258 92.3364095 189.56532288 94.65733337 C189.56461633 95.38223687 189.56390978 96.10714037 189.56318182 96.85401064 C189.55979313 99.29585335 189.54943056 101.73761999 189.53930664 104.17944336 C189.535792 105.92541405 189.53282444 107.67138591 189.53036499 109.4173584 C189.52468149 113.1851211 189.51666357 116.95286956 189.50734138 120.72062492 C189.49418015 126.68450131 189.49589181 132.64831291 189.50157166 138.61219788 C189.50295178 140.12163897 189.50295178 140.12163897 189.50435978 141.66157383 C189.5073317 144.76201291 189.51049687 147.86245175 189.51367188 150.96289062 C189.52645874 163.80814356 189.52853272 176.65309189 189.48510742 189.49829102 C189.45356175 198.86060489 189.45035139 208.22245374 189.47986692 217.58478075 C189.49439115 222.53797012 189.49467099 227.49022993 189.46046638 232.44334221 C189.42852035 237.11002932 189.4342159 241.77519646 189.46796799 246.44185638 C189.47375794 248.1481708 189.46606325 249.85459662 189.44337654 251.56077003 C189.30653536 262.58204631 190.90968401 269.20775587 198.4609375 277.6953125 C211.75238093 299.33470666 214.49153712 326.26249061 208.95703125 350.6875 C205.05246832 366.49021924 197.40772207 380.71225744 186.4609375 392.6953125 C185.76355469 393.47390625 185.06617188 394.2525 184.34765625 395.0546875 C168.22456782 412.15046682 144.38992014 423.2014466 120.8828125 423.99609375 C118.99228149 424.01534626 117.1015339 424.01892134 115.2109375 424.0078125 C114.20877197 424.00289795 113.20660645 423.9979834 112.17407227 423.99291992 C89.31302757 423.63459634 65.67917153 415.22890108 49.4609375 398.6953125 C43.15994672 400.66113453 37.17980815 403.03429512 31.18359375 405.78515625 C29.90650795 406.36385216 29.90650795 406.36385216 28.60362244 406.95423889 C25.9082979 408.1762344 23.21570037 409.4040882 20.5234375 410.6328125 C17.83439694 411.8571718 15.14475969 413.08017651 12.45396423 414.30067444 C10.78877042 415.05625892 9.12459587 415.81409572 7.46168518 416.57469177 C5.13528404 417.63191203 2.79984036 418.66608121 0.4609375 419.6953125 C-0.37349884 420.07551544 -1.20793518 420.45571838 -2.06765747 420.84744263 C-8.89508946 423.81307049 -14.27644263 425.14396284 -21.46850586 422.32861328 C-22.86230184 421.69785317 -24.24885212 421.0509099 -25.62890625 420.390625 C-26.39332535 420.04031219 -27.15774445 419.68999939 -27.94532776 419.32907104 C-29.59663576 418.57036 -31.24482564 417.80483259 -32.89013672 417.03320312 C-36.44059673 415.36823377 -40.00595049 413.73633192 -43.57058716 412.10198975 C-45.43422289 411.2471245 -47.2970682 410.39053417 -49.15914917 409.5322876 C-57.89159186 405.51179738 -66.68670197 401.6425168 -75.49954224 397.80218506 C-90.72293506 391.16693351 -105.88886461 384.4121825 -121.02175903 377.57333374 C-132.94093391 372.18880257 -144.89283552 366.8853275 -156.87637329 361.64562988 C-161.96537563 359.4187322 -167.0501888 357.18228339 -172.13502502 354.94589233 C-176.24654058 353.13836302 -180.3603355 351.33644176 -184.47949219 349.54638672 C-188.3846793 347.84860159 -192.28198253 346.1338613 -196.17410278 344.40634155 C-197.60742612 343.77373955 -199.04347955 343.14728169 -200.48239136 342.52749634 C-202.45292168 341.67777471 -204.41256209 340.80663982 -206.37109375 339.9296875 C-208.02202026 339.20604004 -208.02202026 339.20604004 -209.70629883 338.46777344 C-213.278768 336.23247858 -214.56136775 334.43257947 -216.5390625 330.6953125 C-217.10391302 327.41125434 -217.07511086 324.18401469 -217.04026794 320.85813904 C-217.04856954 319.37953678 -217.04856954 319.37953678 -217.05703884 317.87106377 C-217.07064361 314.57060512 -217.05567661 311.27090288 -217.04077148 307.97045898 C-217.04455468 305.60332925 -217.05005473 303.23620173 -217.05714417 300.86907959 C-217.07111502 294.4415242 -217.05991763 288.01423601 -217.04343295 281.58669543 C-217.02931143 275.54518037 -217.03519262 269.50366914 -217.03856266 263.46214391 C-217.04443905 251.49172674 -217.0302778 239.52141482 -217.00561523 227.55102539 C-216.98168971 215.93705298 -216.97461333 204.32322115 -216.98510742 192.70922852 C-216.99651735 180.05902214 -216.9984462 167.40888075 -216.98400933 154.75867516 C-216.9824835 153.40976052 -216.98096314 152.06084588 -216.97944832 150.71193123 C-216.9786905 150.04825414 -216.97793269 149.38457705 -216.97715191 148.70078854 C-216.97241007 144.02477603 -216.97436848 139.34880194 -216.97851372 134.67278862 C-216.98327989 128.37972788 -216.97319651 122.08686214 -216.95155907 115.7938385 C-216.94598639 113.48192057 -216.94553028 111.16998393 -216.95051193 108.85806465 C-216.95645115 105.7069929 -216.94398535 102.55652005 -216.92674255 99.40550232 C-216.93575762 98.0269099 -216.93575762 98.0269099 -216.94495481 96.62046713 C-216.89711245 91.82625788 -216.68482466 88.56866648 -213.5390625 84.6953125 C-209.17262796 81.3016734 -204.43664634 79.15764755 -199.390625 77 C-198.59844574 76.65534698 -197.80626648 76.31069397 -196.99008179 75.95559692 C-195.27927659 75.21177488 -193.56737372 74.47047339 -191.85449219 73.73144531 C-187.21528001 71.729259 -182.58459196 69.70752261 -177.953125 67.6875 C-176.99988342 67.2722406 -176.04664185 66.8569812 -175.06451416 66.42913818 C-165.51964189 62.26465763 -156.02690937 57.9877313 -146.5390625 53.6953125 C-133.07576172 47.60984357 -119.57610315 41.61489322 -106.0390625 35.6953125 C-93.06828482 30.0228985 -80.12626736 24.29211362 -67.22076416 18.47259521 C-64.69474631 17.33414142 -62.16758808 16.19825553 -59.64013672 15.06298828 C-52.85381823 12.01206179 -46.07123442 8.95671238 -39.33010864 5.80691528 C-37.43869763 4.92450975 -35.54401972 4.04958774 -33.64794922 3.17724609 C-31.41837532 2.14886099 -29.19529117 1.10621174 -26.98095703 0.04541016 C-26.00239746 -0.4027002 -25.02383789 -0.85081055 -24.015625 -1.3125 C-22.7793335 -1.89475342 -22.7793335 -1.89475342 -21.51806641 -2.48876953 C-13.7198462 -4.62462037 -7.17485226 -3.36239132 0 0 Z " fill="#FE9500" transform="translate(258.5390625,35.3046875)"/>
<path d="M0 0 C-0.00222061 0.91237836 -0.00444122 1.82475672 -0.00672913 2.76478291 C-0.05807389 24.99202578 -0.06516492 47.21890155 -0.02334595 69.44617176 C-0.0041831 80.19528565 0.00014687 90.94401907 -0.03076172 101.69311523 C-0.05767208 111.06495639 -0.05642589 120.4363046 -0.02174091 129.80812758 C-0.00435783 134.76802653 -0.000822 139.72704284 -0.03103638 144.68689919 C-0.05906918 149.3618004 -0.04926518 154.03514096 -0.01126289 158.70995712 C-0.00388474 160.41948185 -0.00996903 162.12912998 -0.03101921 163.83854103 C-0.15702896 174.86649889 1.44290395 181.50779305 9 190 C22.29152967 211.63928779 25.03058137 238.56725866 19.49609375 262.9921875 C15.59153082 278.79490674 7.94678457 293.01694494 -3 305 C-3.69738281 305.77859375 -4.39476562 306.5571875 -5.11328125 307.359375 C-21.23636968 324.45515432 -45.07101736 335.5061341 -68.578125 336.30078125 C-70.46865601 336.32003376 -72.3594036 336.32360884 -74.25 336.3125 C-75.25216553 336.30758545 -76.25433105 336.3026709 -77.28686523 336.29760742 C-100.14790993 335.93928384 -123.78176597 327.53358858 -140 311 C-146.30099078 312.96582203 -152.28112935 315.33898262 -158.27734375 318.08984375 C-159.55442955 318.66853966 -159.55442955 318.66853966 -160.85731506 319.25892639 C-163.5526396 320.4809219 -166.24523713 321.7087757 -168.9375 322.9375 C-171.62654056 324.1618593 -174.31617781 325.38486401 -177.00697327 326.60536194 C-178.67216708 327.36094642 -180.33634163 328.11878322 -181.99925232 328.87937927 C-184.32570957 329.93662503 -186.65995495 330.9731991 -189 332 C-189.88084259 332.3918045 -190.76168518 332.78360901 -191.66921997 333.18728638 C-192.99033279 333.75115555 -192.99033279 333.75115555 -194.33813477 334.32641602 C-195.53334496 334.84353905 -195.53334496 334.84353905 -196.75270081 335.37110901 C-199 336 -199 336 -203 335 C-203 254.15 -203 173.3 -203 90 C-171.125 75.83333333 -139.25 61.66666667 -107.375 47.5 C-106.44699081 47.08755035 -105.51898163 46.67510071 -104.56285095 46.25015259 C-102.68668447 45.41630308 -100.81051462 44.58246113 -98.93434143 43.74862671 C-94.26466117 41.67325263 -89.59503817 39.5977499 -84.92553711 37.52197266 C-76.27633225 33.67721945 -67.62661194 29.83364086 -58.97488403 25.99456787 C-54.96643481 24.21578602 -50.95830459 22.43628598 -46.95019531 20.65673828 C-45.07193493 19.82304983 -43.19352495 18.98969829 -41.31494141 18.15673828 C-30.12592916 13.19543737 -18.96086075 8.18705768 -7.83815002 3.07846069 C-6.51725624 2.47428818 -6.51725624 2.47428818 -5.16967773 1.85791016 C-3.99609962 1.31899643 -3.99609962 1.31899643 -2.79881287 0.76919556 C-1 0 -1 0 0 0 Z " fill="#FAAA01" transform="translate(448,123)"/>
<path d="M0 0 C1.17977921 0.52546921 1.17977921 0.52546921 2.38339233 1.06155396 C4.95910652 2.21381818 7.5221261 3.3918322 10.0859375 4.5703125 C11.91068794 5.39233728 13.7362244 6.21261922 15.5625 7.03125 C20.28407599 9.15248404 24.99587391 11.29457621 29.70568848 13.44177246 C34.00108963 15.39602679 38.30492092 17.33141108 42.609375 19.265625 C44.25506212 20.00533428 45.90073275 20.74508024 47.54638672 21.48486328 C48.76162018 22.03113373 48.76162018 22.03113373 50.00140381 22.58843994 C52.47990819 23.70384995 54.95715347 24.82201344 57.43408203 25.94091797 C70.09148651 31.65534311 82.79811364 37.25212654 95.52261353 42.8152771 C109.27690824 48.83076119 122.98026065 54.95265287 136.65664673 61.14312744 C145.22905772 65.02283742 153.80905197 68.87447431 162.4609375 72.57421875 C163.16442825 72.87558243 163.86791901 73.17694611 164.59272766 73.48744202 C167.85415213 74.88264807 171.11915612 76.26820226 174.39135742 77.63793945 C175.52162354 78.11835693 176.65188965 78.59877441 177.81640625 79.09375 C179.28049927 79.70742432 179.28049927 79.70742432 180.77416992 80.33349609 C183.72405429 81.82867601 186.05422613 83.42569748 188.4609375 85.6953125 C188.4609375 86.6853125 188.4609375 87.6753125 188.4609375 88.6953125 C173.34941816 95.79736533 158.13530028 102.63421565 142.8359375 109.3203125 C129.00666218 115.36396784 115.21361436 121.4792965 101.4609375 127.6953125 C87.15369769 134.16060133 72.80308198 140.51853908 58.41738892 146.80722046 C43.44650927 153.35388542 28.53505664 160.02687862 13.65234375 166.77148438 C9.91907048 168.46266598 6.17995696 170.14023058 2.4364624 171.80865479 C0.5777519 172.6428837 -1.27271709 173.49540626 -3.12255859 174.34912109 C-4.17137207 174.81785645 -5.22018555 175.2865918 -6.30078125 175.76953125 C-7.18080811 176.17131592 -8.06083496 176.57310059 -8.9675293 176.98706055 C-14.93115652 178.6295634 -20.08732356 175.77523971 -25.43359375 173.29296875 C-26.20129593 172.9438443 -26.96899811 172.59471985 -27.75996399 172.23501587 C-29.42201677 171.47848242 -31.08265074 170.71882579 -32.74200439 169.95639038 C-37.2338657 167.89326498 -41.73683959 165.85461515 -46.23828125 163.8125 C-47.63614868 163.17724648 -47.63614868 163.17724648 -49.06225586 162.52915955 C-58.89429156 158.06660342 -68.77374836 153.71434376 -78.6640625 149.3828125 C-79.51737152 149.00870239 -80.37068054 148.63459229 -81.24984741 148.24914551 C-89.91030321 144.45286581 -98.57740113 140.67231268 -107.2578125 136.921875 C-107.93858856 136.62761124 -108.61936462 136.33334747 -109.32077026 136.03016663 C-112.42597827 134.68850696 -115.5323745 133.34982781 -118.64111328 132.01635742 C-124.99813443 129.2783304 -131.29545354 126.43324729 -137.55934143 123.48960876 C-145.02318391 119.98667693 -152.53843387 116.59873865 -160.05706787 113.21536255 C-161.77618754 112.44174014 -163.49496992 111.66736786 -165.21343994 110.89230347 C-174.3601172 106.76787116 -183.51650367 102.67425578 -192.74609375 98.73828125 C-193.45026932 98.43726501 -194.15444489 98.13624878 -194.87995911 97.82611084 C-198.15699225 96.42695582 -201.43794942 95.03860937 -204.72680664 93.66748047 C-205.86883545 93.1829541 -207.01086426 92.69842773 -208.1875 92.19921875 C-209.67515869 91.57768921 -209.67515869 91.57768921 -211.19287109 90.94360352 C-213.5390625 89.6953125 -213.5390625 89.6953125 -215.5390625 86.6953125 C-210.93110134 82.47720977 -206.40804736 79.99093022 -200.69140625 77.53515625 C-199.82411392 77.15299454 -198.95682159 76.77083282 -198.06324768 76.37709045 C-195.20489848 75.11993846 -192.34077983 73.87652941 -189.4765625 72.6328125 C-187.45266771 71.74518256 -185.42923777 70.85649205 -183.40625 69.96679688 C-179.20344993 68.11941904 -174.9986869 66.27661984 -170.79248047 64.43701172 C-162.11603513 60.63825151 -153.46428789 56.78422676 -144.81228638 52.9302063 C-140.13905739 50.84925584 -135.46395927 48.77251279 -130.7890625 46.6953125 C-128.91405369 45.86199898 -127.03905369 45.02866566 -125.1640625 44.1953125 C-119.5390625 41.6953125 -119.5390625 41.6953125 -113.9140625 39.1953125 C-112.52213181 38.5766758 -112.52213181 38.5766758 -111.1020813 37.94554138 C-109.22535365 37.11144133 -107.34862432 36.27734507 -105.47189331 35.44325256 C-100.81081266 33.37168081 -96.14976036 31.30004532 -91.48876953 29.22827148 C-82.73645049 25.33801561 -73.98384277 21.44841299 -65.23028564 17.5609436 C-61.11508744 15.73333242 -57.00004287 13.90537547 -52.88500977 12.07739258 C-50.93147311 11.20970702 -48.97786197 10.34218913 -47.02416992 9.47485352 C-45.18280595 8.65737695 -43.34163306 7.8394698 -41.50067139 7.02108765 C-39.77712213 6.25594941 -38.05258255 5.49303732 -36.32696533 4.73257446 C-31.20323889 2.46827699 -26.15698237 0.09553929 -21.20556641 -2.52954102 C-13.60113741 -4.74013084 -6.98723375 -3.27446661 0 0 Z " fill="#FAC000" transform="translate(258.5390625,35.3046875)"/>
<path d="M0 0 C4.13017825 3.42291024 7.96208265 7.02166692 11.625 10.9375 C12.18703125 11.50597656 12.7490625 12.07445312 13.328125 12.66015625 C24.49181501 24.5027193 32.18625698 41.91147441 34.625 57.9375 C34.73457031 58.58976562 34.84414063 59.24203125 34.95703125 59.9140625 C38.50743689 85.19295064 32.29181506 111.23095745 17.42578125 132.01171875 C15.24226065 134.74397752 12.98370537 137.35550927 10.625 139.9375 C9.92761719 140.71609375 9.23023438 141.4946875 8.51171875 142.296875 C-7.61136968 159.39265432 -31.44601736 170.4436341 -54.953125 171.23828125 C-56.84365601 171.25753376 -58.7344036 171.26110884 -60.625 171.25 C-61.62716553 171.24508545 -62.62933105 171.2401709 -63.66186523 171.23510742 C-88.84000483 170.84046574 -111.8895078 160.88246499 -129.375 142.9375 C-130.18582031 142.12410156 -130.99664062 141.31070313 -131.83203125 140.47265625 C-150.11161814 121.25884857 -158.30177843 95.04642798 -157.6875 68.8828125 C-156.56673875 45.0946549 -145.75053638 23.81553479 -129.375 6.9375 C-128.76398438 6.25300781 -128.15296875 5.56851562 -127.5234375 4.86328125 C-94.62359438 -30.76654886 -36.12917769 -28.1307001 0 0 Z " fill="#00CE66" transform="translate(434.375,288.0625)"/>
<path d="M0 0 C0.66 0.33 1.32 0.66 2 1 C1.52691406 1.36609375 1.05382812 1.7321875 0.56640625 2.109375 C-13.54039334 13.65880156 -22.5521316 30.53881365 -27 48 C-27.35707031 49.20785156 -27.71414063 50.41570312 -28.08203125 51.66015625 C-29.37675292 56.90440149 -29.3423707 62.12370026 -29.3125 67.5 C-29.30686035 68.56081787 -29.3012207 69.62163574 -29.29541016 70.71459961 C-28.91908548 95.27816823 -20.07556932 116.6875096 -2.8671875 134.25390625 C7.93246779 144.59744531 22.24604186 153.53308051 37 157 C37.85335937 157.20238281 38.70671875 157.40476562 39.5859375 157.61328125 C65.36545836 162.5864959 88.84351538 157.89638074 110.9375 144.17578125 C118.27413398 139.19894875 124.8372704 133.3553149 131 127 C127.42158163 138.74543064 119.44168902 147.438059 111 156 C110.28070313 156.7321875 109.56140625 157.464375 108.8203125 158.21875 C89.80188258 176.30420034 64.1435406 182.87966683 38.53515625 182.28515625 C14.57018608 181.31090419 -7.4064355 171.02959977 -24 154 C-24.81082031 153.18660156 -25.62164062 152.37320313 -26.45703125 151.53515625 C-44.73661814 132.32134857 -52.92677843 106.10892798 -52.3125 79.9453125 C-51.19173875 56.1571549 -40.37553638 34.87803479 -24 18 C-23.38898438 17.31550781 -22.77796875 16.63101562 -22.1484375 15.92578125 C-16.00693167 9.27466111 -8.08890409 4.04445205 0 0 Z " fill="#00B157" transform="translate(329,277)"/>
<path d="M0 0 C6.76296354 2.08067333 13.13878613 4.73249736 19.5625 7.6875 C20.47580078 8.10322266 21.38910156 8.51894531 22.33007812 8.94726562 C24.55525752 9.96082902 26.77847781 10.97845216 29 12 C26.69229508 13.53846994 24.74161052 14.64059837 22.24267578 15.74560547 C21.48540192 16.08212128 20.72812805 16.41863708 19.94790649 16.76535034 C19.12205048 17.1289566 18.29619446 17.49256287 17.4453125 17.8671875 C16.57377533 18.25359406 15.70223816 18.64000061 14.80429077 19.03811646 C11.91231952 20.31963648 9.01864871 21.59727272 6.125 22.875 C4.08776017 23.77704917 2.05065281 24.6793976 0.01367188 25.58203125 C-4.22311855 27.45917203 -8.46047943 29.33501635 -12.69824219 31.20996094 C-21.38005892 35.0522638 -30.05494051 38.91014389 -38.72979736 42.76812744 C-43.40286096 44.84617716 -48.07645965 46.92302278 -52.75 49 C-54.62500252 49.83332767 -56.50000252 50.666661 -58.375 51.5 C-69.625 56.5 -69.625 56.5 -72.43716431 57.74984741 C-74.31328664 58.58368182 -76.18940561 59.41752379 -78.06552124 60.25137329 C-82.73582211 62.32710195 -87.40618015 64.40270179 -92.07666016 66.47802734 C-102.72706159 71.21072401 -113.37641828 75.94575081 -124.02282715 80.68742371 C-128.87678157 82.84861921 -133.73249974 85.0056373 -138.59277344 87.15258789 C-146.3020527 90.56004892 -154.00047411 93.97153832 -161.6171875 97.58203125 C-162.68469238 98.07815918 -163.75219727 98.57428711 -164.85205078 99.08544922 C-166.6874418 99.94175886 -168.51298442 100.81978834 -170.32373047 101.72705078 C-174.459665 103.63204038 -177.06173857 104.37010794 -181.48046875 102.984375 C-183.00039662 102.3543591 -184.50704212 101.69150383 -186 101 C-186.79003418 100.66621338 -187.58006836 100.33242676 -188.39404297 99.98852539 C-190.80029964 98.96388979 -193.18218308 97.89588704 -195.5625 96.8125 C-196.78936523 96.26045898 -196.78936523 96.26045898 -198.04101562 95.69726562 C-200.02909218 94.80204987 -202.01480308 93.9015835 -204 93 C-200.21807913 89.75464746 -195.86785738 88.00939018 -191.34765625 86.03515625 C-190.47753403 85.65016464 -189.6074118 85.26517303 -188.71092224 84.86851501 C-185.83016833 83.59513426 -182.94632884 82.32889961 -180.0625 81.0625 C-178.02970862 80.16525549 -175.99716033 79.26746007 -173.96484375 78.36914062 C-169.73938511 76.50192744 -165.51288637 74.63709822 -161.28564453 72.77392578 C-152.60564513 68.9460772 -143.93843468 65.08954161 -135.27120972 61.23287964 C-130.59809123 59.15386245 -125.92399239 57.07705157 -121.25 55 C-119.37499539 54.16667705 -117.49999538 53.33334372 -115.625 52.5 C-88.84765625 40.59895833 -62.0703125 28.69791667 -35.29296875 16.796875 C-33.97321548 16.21021057 -33.97321548 16.21021057 -32.62680054 15.61169434 C-30.91023935 14.84892113 -29.19346817 14.08662029 -27.47647095 13.3248291 C-23.23742593 11.44337947 -19.00276625 9.55294139 -14.77490234 7.64648438 C-13.94149826 7.27207214 -13.10809418 6.89765991 -12.24943542 6.51190186 C-10.67019049 5.80210161 -9.09224651 5.08939743 -7.51582336 4.37335205 C-2.22465022 2 -2.22465022 2 0 2 C0 1.34 0 0.68 0 0 Z " fill="#FBAB00" transform="translate(334,70)"/>
<path d="M0 0 C3.02508145 1.73602105 5.41790069 3.83580137 7 7 C7.61161349 12.38219876 6.15209199 14.71644264 3 19 C1.23900758 20.93392817 -0.52293326 22.78725662 -2.37939453 24.62231445 C-3.16549103 25.41125847 -3.16549103 25.41125847 -3.96746826 26.21614075 C-5.68441671 27.93676548 -7.4084074 29.65013227 -9.1328125 31.36328125 C-10.3333627 32.56263823 -11.53354225 33.76236633 -12.73336792 34.96244812 C-15.24022281 37.46774383 -17.75038694 39.9696583 -20.26318359 42.46899414 C-23.48758593 45.67634317 -26.70530181 48.89030017 -29.92080879 52.10656452 C-32.39456891 54.5800532 -34.87092266 57.05093102 -37.34817123 59.52092552 C-38.53613101 60.70569977 -39.72348313 61.89108361 -40.9102211 63.07708168 C-42.5641104 64.72880985 -44.2212457 66.37720762 -45.87939453 68.0246582 C-46.37085968 68.51657654 -46.86232483 69.00849487 -47.36868286 69.51531982 C-50.52846359 72.64524141 -52.55786567 74.19665133 -57 74.625 C-61.50955675 74.5170485 -63.41681171 73.1778205 -66.65625 70.109375 C-67.52507812 69.29227051 -68.39390625 68.47516602 -69.2890625 67.63330078 C-70.18367188 66.76431152 -71.07828125 65.89532227 -72 65 C-72.87398438 64.1529248 -73.74796875 63.30584961 -74.6484375 62.43310547 C-77.28435858 59.84851446 -79.89548498 57.24121195 -82.5 54.625 C-83.39203125 53.73683594 -84.2840625 52.84867187 -85.203125 51.93359375 C-86.05390625 51.08152344 -86.9046875 50.22945313 -87.78125 49.3515625 C-88.54501953 48.58666504 -89.30878906 47.82176758 -90.09570312 47.03369141 C-94.03769598 42.82384519 -94.51799962 40.02298618 -94.36328125 34.453125 C-94 32 -94 32 -92.125 28.875 C-88.40573812 26.64344287 -85.98103791 26.0336747 -81.671875 26.26953125 C-76.21672631 27.76092424 -72.79699199 32.01515083 -69 36 C-67.97865169 37.01903532 -66.95380196 38.0345713 -65.92578125 39.046875 C-63.26067253 41.67567779 -60.62445908 44.33063572 -58 47 C-54.47552204 45.49622732 -52.22424627 43.46154914 -49.53857422 40.74975586 C-48.66441864 39.87222153 -47.79026306 38.99468719 -46.88961792 38.09056091 C-45.94460927 37.13201992 -44.99963324 36.17344676 -44.0546875 35.21484375 C-43.07921603 34.23309878 -42.10322556 33.25186924 -41.1267395 32.27113342 C-38.56194141 29.69305471 -36.00277627 27.1094626 -33.44519043 24.52423096 C-29.3457336 20.38159008 -25.23948429 16.24570853 -21.1300087 12.1130085 C-19.69509728 10.66786343 -18.2636402 9.21936031 -16.83248901 7.77049255 C-15.96463776 6.89611038 -15.0967865 6.02172821 -14.20263672 5.12084961 C-13.43748749 4.34744736 -12.67233826 3.5740451 -11.88400269 2.77720642 C-8.37915987 -0.52896146 -4.64310863 -0.79251576 0 0 Z " fill="#E6EEEE" transform="translate(420,331)"/>
</svg>
