<?xml version="1.0" encoding="UTF-8"?>
<svg version="1.1" xmlns="http://www.w3.org/2000/svg" width="512" height="512">
<path d="M0 0 C10.29897841 10.93051953 15.46697888 24.76554832 15.3125 39.75 C14.17079652 56.54935124 6.55022786 67.95849895 -3.6875 80.75 C-3.24434448 81.84849274 -3.24434448 81.84849274 -2.79223633 82.96917725 C0.03106312 89.96771576 2.85407563 96.96636992 5.67678833 103.96514511 C7.12698531 107.56080868 8.57728237 111.15643181 10.02783203 114.75195312 C16.47875161 130.74225113 22.92376053 146.73472333 29.3125 162.75 C31.9525 162.75 34.5925 162.75 37.3125 162.75 C48.2025 135.69 59.0925 108.63 70.3125 80.75 C68.3325 78.44 66.3525 76.13 64.3125 73.75 C54.62477112 60.32885781 49.94990605 46.07414223 51.875 29.5 C54.68108302 13.88894321 62.75378824 2.25388998 75.3125 -7.25 C89.51213574 -15.82474778 104.13894709 -17.89040777 120.3125 -14.25 C134.49004569 -9.81196195 146.25868958 -1.26114907 153.2590332 11.98413086 C157.61387421 20.55983538 159.69615288 27.98470304 159.625 37.5625 C159.62008545 38.35076172 159.6151709 39.13902344 159.61010742 39.95117188 C159.48415046 46.25031198 158.6412192 51.85749189 156.3125 57.75 C155.98378906 58.58660156 155.65507812 59.42320313 155.31640625 60.28515625 C150.65711625 70.71616189 141.65224045 80.70039022 131.3125 85.75 C130.99683602 102.56787561 131.56007789 119.32290277 132.25 136.125 C132.29356628 137.2057077 132.33713257 138.28641541 132.38201904 139.39987183 C132.51003344 142.54539817 132.64268033 145.69068936 132.77734375 148.8359375 C132.83523827 150.23971901 132.83523827 150.23971901 132.89430237 151.67185974 C133.17749033 158.05242167 133.68422596 164.39437731 134.3125 170.75 C134.869375 170.18152344 135.42625 169.61304688 136 169.02734375 C139.6176027 165.36696534 143.23185147 161.74359799 147.125 158.375 C147.75921875 157.82328125 148.3934375 157.2715625 149.046875 156.703125 C150.30810204 155.61586031 151.57194306 154.53153902 152.84570312 153.45898438 C154.53596612 152.02967426 156.20584324 150.57886782 157.875 149.125 C158.42454346 148.66947754 158.97408691 148.21395508 159.5402832 147.74462891 C161.28107163 146.27424248 161.28107163 146.27424248 163.3125 143.75 C162.9373945 140.37266121 161.86330012 137.29355242 160.77734375 134.0859375 C159.16718448 128.78546195 158.8101727 123.89144628 158.875 118.375 C158.88329834 117.455979 158.89159668 116.53695801 158.90014648 115.59008789 C159.23997371 101.88936672 164.68383487 89.40743002 174.125 79.375 C187.67781182 66.78838093 203.01463944 63.94139269 220.79150391 64.57080078 C233.58761803 65.48038317 245.76224152 73.5481419 254.3125 82.75 C264.88061142 96.68069233 267.61288276 110.65368712 266.3125 127.75 C263.90331269 141.09001428 256.51836337 153.43971601 245.7421875 161.7265625 C242.15949879 164.12522873 238.86845053 166.30785855 234.68432617 167.49682617 C229.0806431 169.05957934 229.0806431 169.05957934 224.68579102 172.65698242 C223.33205659 175.19851663 222.27531859 177.74626595 221.25 180.4375 C220.33259483 182.62263253 219.41457916 184.80750881 218.49609375 186.9921875 C217.99127657 188.22983833 217.48723786 189.4678069 216.98388672 190.70605469 C215.1620619 195.15366473 213.22904775 199.54994837 211.28515625 203.9453125 C210.92675156 204.75597672 210.56834686 205.56664093 210.19908142 206.40187073 C209.45264073 208.08965303 208.70603012 209.77736019 207.95925903 211.46499634 C206.00347421 215.89501005 204.06526303 220.33270322 202.125 224.76953125 C197.38118641 235.60833136 192.59971833 246.43031675 187.8125 257.25 C178.60483349 278.06535982 169.45118798 298.90427778 160.3125 319.75 C161.71363037 320.19569336 161.71363037 320.19569336 163.14306641 320.65039062 C173.37069487 324.19878368 181.40117514 332.81469563 186.62109375 342.0703125 C190.7441332 350.73926724 191.62702807 359.45101782 191.6484375 368.953125 C191.6550943 369.99394226 191.6617511 371.03475952 191.66860962 372.1071167 C191.67867648 374.29209641 191.6834285 376.4771065 191.68310547 378.66210938 C191.68750581 382.0044143 191.72396351 385.34542573 191.76171875 388.6875 C191.76758272 390.81770384 191.77155492 392.94791392 191.7734375 395.078125 C191.78780853 396.07402649 191.80217957 397.06992798 191.81698608 398.0960083 C191.78843558 402.41839558 191.71398547 405.04930151 189.53369141 408.85449219 C185.98139269 411.88593286 182.70617564 411.87509554 178.14906406 411.87863445 C177.09916469 411.8818589 176.04926532 411.88508335 174.96755081 411.8884055 C173.81532829 411.8868569 172.66310577 411.8853083 171.47596741 411.88371277 C170.25101183 411.88597833 169.02605625 411.88824388 167.76398081 411.89057809 C164.36218165 411.89581996 160.96043529 411.89656184 157.55863583 411.89538372 C153.89054238 411.89517985 150.22245684 411.90069704 146.55436707 411.90544128 C139.36761732 411.91375122 132.18087577 411.91649627 124.99412162 411.91705366 C119.15377375 411.91752861 113.3134286 411.9195823 107.47308159 411.92275429 C90.9207826 411.9315614 74.36849011 411.93617351 57.81618876 411.93542381 C56.92366532 411.93538386 56.03114187 411.9353439 55.11157227 411.93530273 C53.77115596 411.93524141 53.77115596 411.93524141 52.40366053 411.93517885 C37.9157957 411.93477225 23.42795685 411.94434519 8.94009954 411.9584411 C-5.92988627 411.97279486 -20.7998594 411.97971185 -35.66985232 411.97884732 C-44.02069067 411.97851503 -52.37150179 411.98127622 -60.72233391 411.99202538 C-67.83122913 412.00111718 -74.94008476 412.00331648 -82.04898327 411.99651595 C-85.67691058 411.9932442 -89.30476189 411.99321762 -92.93268204 412.0018692 C-96.86315143 412.01114603 -100.79350901 412.00497536 -104.72398376 411.99723816 C-106.44897147 412.0049535 -106.44897147 412.0049535 -108.20880741 412.01282471 C-109.26131453 412.00822592 -110.31382165 412.00362712 -111.39822292 411.99888897 C-112.30548482 411.99910634 -113.21274672 411.99932371 -114.14750141 411.99954766 C-117.73669921 411.64691915 -120.58707771 410.57119931 -123.47573853 408.41551208 C-125.08041185 406.20996019 -125.06785338 404.81695922 -125.07568359 402.10180664 C-125.08514008 401.15974869 -125.09459656 400.21769073 -125.1043396 399.24708557 C-125.09826691 398.2283989 -125.09219421 397.20971222 -125.0859375 396.16015625 C-125.08880768 395.10525497 -125.09167786 394.0503537 -125.09463501 392.96348572 C-125.09667879 390.72491929 -125.09112712 388.48633512 -125.07861328 386.24780273 C-125.06270798 382.85683984 -125.078377 379.4670952 -125.09765625 376.07617188 C-125.09567107 373.89583074 -125.09182173 371.71549035 -125.0859375 369.53515625 C-125.09201019 368.53468765 -125.09808289 367.53421906 -125.1043396 366.50343323 C-124.96361412 352.06213645 -120.48511903 340.3318718 -110.75 329.640625 C-105.87500173 325.17187659 -100.18461807 321.21764718 -93.6875 319.75 C-94.16356689 318.67258545 -94.63963379 317.5951709 -95.13012695 316.48510742 C-105.13806152 293.83557129 -105.13806152 293.83557129 -115.14599609 271.18603516 C-115.53868179 270.29732727 -115.93136749 269.40861938 -116.33595276 268.49298096 C-117.11943608 266.71983074 -117.90291387 264.94667807 -118.68638611 263.17352295 C-120.63609008 258.76096946 -122.58589172 254.34845918 -124.53588867 249.93603516 C-128.19412084 241.65797621 -131.85148405 233.37953703 -135.5055542 225.09963989 C-137.20036244 221.25946344 -138.8956958 217.41951891 -140.59106445 213.57958984 C-141.38640897 211.77778397 -142.18150631 209.97586895 -142.97631836 208.17382812 C-143.34958252 207.32755859 -143.72284668 206.48128906 -144.10742188 205.609375 C-144.47503632 204.77560333 -144.84265076 203.94183167 -145.22140503 203.08279419 C-145.94762948 201.44046489 -146.67668635 199.79938482 -147.40872192 198.15963745 C-149.33183059 193.84987002 -151.2052002 189.52628681 -153.01708984 185.16845703 C-153.40645721 184.2532579 -153.79582458 183.33805878 -154.19699097 182.39512634 C-154.94116205 180.64565987 -155.66949561 178.88933936 -156.37893677 177.12550354 C-158.14429796 173.02893074 -159.11377002 171.1263379 -162.9375 168.61816406 C-166.06700486 167.44117276 -166.06700486 167.44117276 -169.40625 166.66015625 C-179.35332459 163.90102723 -187.59690335 155.14748372 -192.59765625 146.4140625 C-200.03197106 132.33255131 -202.50491083 117.27295799 -198.0625 101.6875 C-192.93166075 87.53284207 -183.97331007 76.8443646 -170.6875 69.75 C-157.97288003 63.88308559 -142.71150616 62.07915454 -129.125 66.3125 C-113.40045951 72.70550148 -102.56462084 82.1365536 -95.6875 97.75 C-93.08752564 104.56457099 -92.16990563 110.85660388 -92.25 118.125 C-92.25249756 119.03822021 -92.25499512 119.95144043 -92.25756836 120.89233398 C-92.38414459 127.2340842 -93.35326164 132.60987771 -95.91015625 138.47265625 C-96.84139123 141.20084718 -96.91589047 142.14540445 -95.6875 144.75 C-93.44294339 147.17516847 -93.44294339 147.17516847 -90.5625 149.625 C-89.47958778 150.58755144 -88.39760321 151.55114727 -87.31640625 152.515625 C-86.7352002 153.03060547 -86.15399414 153.54558594 -85.55517578 154.07617188 C-82.15499856 157.12344181 -78.83169616 160.25328806 -75.5 163.375 C-74.8404834 163.99101074 -74.1809668 164.60702148 -73.50146484 165.24169922 C-68.85170312 169.58579688 -68.85170312 169.58579688 -67.6875 170.75 C-66.96569729 163.44824091 -66.45503414 156.16649606 -66.15234375 148.8359375 C-66.1088681 147.83030258 -66.06539246 146.82466766 -66.02059937 145.78855896 C-65.65037024 137.08574055 -65.32585515 128.38114351 -65.01869202 119.67588806 C-64.81132529 113.84114753 -64.55310508 108.01365982 -64.2421875 102.18359375 C-64.15867797 99.97666595 -64.07760433 97.76964334 -64 95.5625 C-63.89836548 94.13526611 -63.89836548 94.13526611 -63.79467773 92.67919922 C-63.73800959 90.06952074 -63.77833605 88.19774909 -64.6875 85.75 C-67.39240785 83.17319343 -70.41286557 81.50999403 -73.6875 79.75 C-84.12070668 72.25159126 -89.9327191 60.0123941 -92.6875 47.75 C-94.30515868 29.5452039 -90.35800721 14.85046055 -78.6875 0.625 C-71.10494172 -7.49460288 -60.57749444 -13.10472564 -49.6875 -15.25 C-48.92566406 -15.40210938 -48.16382813 -15.55421875 -47.37890625 -15.7109375 C-29.6096384 -18.33693767 -12.89341569 -11.97450856 0 0 Z " fill="#010000" transform="translate(222.6875,58.25)"/>
<path d="M0 0 C0.72981079 1.80573486 0.72981079 1.80573486 1.47436523 3.64794922 C1.80049301 4.45482681 2.12662079 5.26170441 2.46263123 6.09303284 C3.20778365 7.9367054 3.95286781 9.78040556 4.69789124 11.62413025 C6.80191174 16.83050984 8.90745252 22.03626693 11.015625 27.2409668 C14.94634044 36.94865113 18.8716899 46.65802738 22.74269104 56.38970947 C24.28912416 60.27623513 25.84217445 64.16010006 27.39578247 68.04376221 C28.13100082 69.88726386 28.8628437 71.73211534 29.59127808 73.57830811 C30.60451986 76.14549764 31.62907751 78.70789042 32.65625 81.26953125 C32.95233658 82.02878403 33.24842316 82.7880368 33.55348206 83.57029724 C35.00568129 87.15923327 35.6977531 88.79850207 39 91 C43.29753414 91.46870733 47.61717395 91.37034698 51.9375 91.375 C53.72704102 91.41173828 53.72704102 91.41173828 55.55273438 91.44921875 C56.69935547 91.45308594 57.84597656 91.45695312 59.02734375 91.4609375 C60.60116821 91.47326416 60.60116821 91.47326416 62.20678711 91.48583984 C65.86748203 90.84911378 66.79364604 89.98775892 69 87 C70.43801335 84.15261622 71.58677849 81.21807738 72.73046875 78.2421875 C73.25277321 76.92164116 73.25277321 76.92164116 73.78562927 75.57441711 C74.92899363 72.67821708 76.0580756 69.77666108 77.1875 66.875 C77.97781073 64.86712435 78.76932952 62.85972381 79.56201172 60.8527832 C80.79111861 57.74066194 82.01951465 54.62828317 83.24420166 51.51441956 C87.62738903 40.37414868 92.12167678 29.27962103 96.625 18.1875 C97.37277456 16.34299075 98.12041816 14.49842841 98.86791992 12.65380859 C100.57750809 8.43542333 102.28833395 4.21754254 104 0 C105.90072266 0.47566406 105.90072266 0.47566406 107.83984375 0.9609375 C113.07869502 2.12512667 118.21157259 2.43655942 123.5625 2.625 C124.93245117 2.68300781 124.93245117 2.68300781 126.33007812 2.7421875 C128.55319924 2.83530252 130.77633613 2.92112166 133 3 C133.06850662 4.90347198 133.06850662 4.90347198 133.13839722 6.84539795 C133.56963604 18.79403058 134.01054973 30.74227202 134.46098137 42.69019699 C134.69225025 48.83301134 134.92008751 54.97591331 135.14013672 61.11914062 C135.35255127 67.04572275 135.57390876 72.97190896 135.80151749 78.89792633 C135.88684992 81.16086245 135.96893837 83.42392326 136.0477562 85.68709564 C136.15855125 88.85265916 136.2807871 92.01758624 136.40576172 95.18261719 C136.43597412 96.12201141 136.46618652 97.06140564 136.49731445 98.02926636 C136.5337204 98.89300873 136.57012634 99.7567511 136.6076355 100.64666748 C136.63528929 101.39516338 136.66294308 102.14365929 136.69143486 102.91483688 C137.04486681 105.30319242 137.73835099 106.94736552 139 109 C141.85208911 110.42604455 143.83394436 110.30116139 147 110 C149.74079254 108.42014346 149.74079254 108.42014346 152.25 106.125 C153.20003906 105.30515625 154.15007812 104.4853125 155.12890625 103.640625 C158.67118098 100.38269614 162.08291555 97.02407735 165.41796875 93.5546875 C168.12208495 90.87920793 170.947672 88.40754827 173.8215332 85.91796875 C177.63535809 82.56019576 181.31118293 79.05632761 185 75.5625 C185.77472656 74.83095703 186.54945313 74.09941406 187.34765625 73.34570312 C189.233003 71.56509786 191.11709191 69.78318322 193 68 C193.59748047 68.4019458 194.19496094 68.8038916 194.81054688 69.21801758 C195.60525391 69.75064209 196.39996094 70.2832666 197.21875 70.83203125 C198.00185547 71.35772705 198.78496094 71.88342285 199.59179688 72.42504883 C207.52411857 77.61274218 215.57063223 81.47913423 225 83 C224.41060153 88.52706336 222.43746411 92.99148912 220.16015625 97.98828125 C219.76682098 98.8666011 219.37348572 99.74492096 218.9682312 100.64985657 C218.11776634 102.54693336 217.26413587 104.44259351 216.40768433 106.3369751 C214.57509039 110.39064179 212.7577092 114.45107025 210.93928528 118.5111084 C210.0012688 120.60497093 209.06244875 122.69847366 208.12284851 124.79162598 C204.04213522 133.88566311 200.02269304 143.00569239 196.02639771 152.13708496 C194.20350256 156.3020384 192.37702373 160.46541972 190.55078125 164.62890625 C190.18635422 165.45985809 189.82192719 166.29080994 189.44645691 167.14694214 C185.27062236 176.6664588 181.0850721 186.18168164 176.89016724 195.69281006 C176.05633473 197.58413374 175.2232082 199.47576885 174.39083862 201.36773682 C173.23381429 203.99730279 172.07425416 206.62573649 170.9140625 209.25390625 C170.40742317 210.40740822 170.40742317 210.40740822 169.89054871 211.58421326 C167.73152306 216.46534069 165.41857871 221.24189209 163 226 C157.39167281 225.53418251 151.80544239 224.99916334 146.22596741 224.26010132 C128.44924313 221.95431894 110.91611326 221.55136195 93.03114963 221.59702349 C89.00888473 221.60480056 84.98663677 221.59752606 80.96437073 221.59286499 C74.22010534 221.5874591 67.47593959 221.59446165 60.73168945 221.60888672 C53.01250424 221.62520979 45.29355697 221.61990605 37.57437748 221.6034075 C30.86093548 221.58965097 24.14756372 221.58794085 17.43411213 221.59572351 C13.46200594 221.60032255 9.49001032 221.60124646 5.51791191 221.59111404 C-12.27547316 221.5518375 -29.71167974 222.17290829 -47.37063408 224.6426506 C-51.23986693 225.16850667 -55.11737273 225.58577756 -59 226 C-63.75573262 216.84546965 -67.94339721 207.48987701 -72.05734253 198.034729 C-73.62704145 194.42738429 -75.20394757 190.82320363 -76.78041077 187.21881104 C-77.6081657 185.32617456 -78.43558541 183.43339143 -79.26268005 181.54046631 C-83.23884284 172.44308734 -87.24725065 163.36010595 -91.26342773 154.28033447 C-92.4364775 151.62731252 -93.60806321 148.97364837 -94.77929688 146.31982422 C-98.51983459 137.84779702 -102.27217169 129.38136792 -106.05467224 120.92797852 C-107.8398546 116.93654658 -109.6196443 112.9427211 -111.3989563 108.94866943 C-112.25242348 107.03701452 -113.10857047 105.12655359 -113.96749878 103.21734619 C-115.15555309 100.57619504 -116.33456796 97.93118106 -117.51171875 95.28515625 C-117.86695618 94.50184433 -118.2221936 93.71853241 -118.5881958 92.91148376 C-120.17474998 89.3223533 -121 86.98375067 -121 83 C-120.24976562 82.84144531 -119.49953125 82.68289062 -118.7265625 82.51953125 C-107.32774279 79.92105976 -98.9390298 75.49237522 -90 68 C-80.64870498 75.86358899 -71.77532022 84.2599745 -62.875 92.625 C-52.70541787 103.92431083 -52.70541787 103.92431083 -40.0625 110.25 C-37.03008188 110.27866487 -37.03008188 110.27866487 -35.1875 108.625 C-33.22463341 105.93897203 -32.85257406 104.16113821 -32.72789001 100.88717651 C-32.69285873 100.02618347 -32.65782745 99.16519043 -32.62173462 98.27810669 C-32.5710231 96.85822952 -32.5710231 96.85822952 -32.51928711 95.40966797 C-32.46054665 93.91693359 -32.46054665 93.91693359 -32.40061951 92.39404297 C-32.27183322 89.09357692 -32.14957376 85.79290234 -32.02734375 82.4921875 C-31.93949241 80.20816531 -31.85123566 77.92415868 -31.7625885 75.64016724 C-31.53002887 69.6200431 -31.3029959 63.5997226 -31.0770874 57.5793457 C-30.8457249 51.43948858 -30.60917188 45.29983173 -30.37304688 39.16015625 C-29.91026514 27.10696185 -29.45331779 15.05355378 -29 3 C-28.42556152 2.98018066 -27.85112305 2.96036133 -27.25927734 2.93994141 C-24.63076167 2.84407976 -22.00297509 2.73465126 -19.375 2.625 C-18.47136719 2.5940625 -17.56773437 2.563125 -16.63671875 2.53125 C-10.90327492 2.28015027 -5.54011846 0 0 0 Z " fill="#FAAF3A" transform="translate(204,146)"/>
<path d="M0 0 C3.28932351 0.00108531 6.57862839 -0.00385281 9.86794782 -0.00860542 C17.64567756 -0.01962349 25.42335899 -0.02018204 33.20109272 -0.01409125 C41.15135078 -0.00805986 49.1014315 -0.02035918 57.05165935 -0.04166132 C63.94496092 -0.05943349 70.83820686 -0.06525436 77.73153043 -0.06202358 C81.81882302 -0.06023502 85.90598914 -0.06259743 89.99326038 -0.07673812 C157.58019329 -0.29058896 157.58019329 -0.29058896 177.13175678 17.61408257 C190.39749751 32.49186269 186.06925678 50.94414271 186.06925678 70.30158257 C92.34925678 70.30158257 -1.37074322 70.30158257 -97.93074322 70.30158257 C-97.93074322 27.80266717 -97.93074322 27.80266717 -89.12996197 18.37189507 C-66.77239451 -3.29083025 -28.68666027 -0.01880615 0 0 Z " fill="#FAAF3A" transform="translate(211.93074321746826,382.69841742515564)"/>
<path d="M0 0 C8.18226158 5.82676204 14.86339752 14.46711915 16.5703125 24.52734375 C17.67318817 35.55610049 16.37304917 44.6379812 9.9609375 53.8359375 C8.2694451 55.88822988 6.51217369 57.71168318 4.5703125 59.52734375 C3.98636719 60.08164063 3.40242188 60.6359375 2.80078125 61.20703125 C-4.42101628 67.31895252 -14.46830165 70.38081852 -23.8984375 69.90625 C-35.57497429 68.15837335 -44.733422 62.60896352 -52.1484375 53.484375 C-57.62889401 45.11331186 -59.37118083 35.36788367 -58.4296875 25.52734375 C-55.63700762 14.60261158 -49.60004381 4.89846186 -39.828125 -1.05859375 C-26.9176597 -7.64712029 -12.54150273 -7.60152175 0 0 Z " fill="#F9AE3A" transform="translate(204.4296875,64.47265625)"/>
<path d="M0 0 C8.97439898 6.4316526 15.78699357 15.01927286 18 26 C19.04539822 36.26546779 16.96329418 46.46414656 10.8125 54.875 C3.01793917 63.85604789 -5.59157501 68.86176788 -17.55078125 70.30859375 C-28.56646387 70.63202485 -38.80340857 66.31201347 -46.8125 58.875 C-54.87928636 50.3656112 -57.50460893 40.3733571 -57.2734375 28.9296875 C-56.61212778 19.42572211 -52.6644737 11.74078447 -46 5 C-32.59156189 -6.41049204 -15.66528018 -9.16879634 0 0 Z " fill="#F9AE3A" transform="translate(348,64)"/>
<path d="M0 0 C8.87659172 7.10127337 15.02116493 14.69588878 16.8125 26.25 C17.77628276 37.27820271 15.59633216 46.74872477 8.5 55.40625 C2.62434887 61.82594291 -2.90027113 65.51212332 -11.1875 68.25 C-12.1775 68.58 -13.1675 68.91 -14.1875 69.25 C-26.59153357 70.32478132 -36.56320515 67.64407995 -46.1484375 59.60546875 C-53.63750384 52.7706517 -57.51588753 44.39787554 -58.4609375 34.33984375 C-58.80875752 23.54404534 -55.76027577 14.41984163 -48.90625 5.9921875 C-35.19512124 -7.90591119 -16.66260087 -9.1480946 0 0 Z " fill="#F9AF3A" transform="translate(456.1875,144.75)"/>
<path d="M0 0 C10.2015122 5.85642367 16.68932316 14.83303448 20 26 C21.32724411 36.44590275 19.42723289 46.29961662 13.5078125 55.0546875 C8.61407994 61.36836319 3.48922615 66.09601435 -4 69 C-5.051875 69.4125 -6.10375 69.825 -7.1875 70.25 C-17.97618559 72.37236438 -27.70857471 71.34656393 -37.21484375 65.6796875 C-46.18851872 59.37572389 -52.83622928 50.90050534 -55 40 C-55.9555924 27.46703818 -53.22615511 17.61604851 -45.28515625 7.90234375 C-33.46082449 -5.03429734 -15.55067054 -7.56729954 0 0 Z " fill="#F9AF3A" transform="translate(94,143)"/>
</svg>
