<?xml version="1.0" encoding="UTF-8"?>
<svg version="1.1" xmlns="http://www.w3.org/2000/svg" width="646" height="128">
<path d="M0 0 C8.91 0 17.82 0 27 0 C27 8.25 27 16.5 27 25 C35.25 25 43.5 25 52 25 C52 33.91 52 42.82 52 52 C43.75 52 35.5 52 27 52 C27 59.92 27 67.84 27 76 C35.25 76 43.5 76 52 76 C52 84.91 52 93.82 52 103 C43.75 103 35.5 103 27 103 C27 111.25 27 119.5 27 128 C18.09 128 9.18 128 0 128 C0 119.75 0 111.5 0 103 C-8.25 103 -16.5 103 -25 103 C-25 94.42 -25 85.84 -25 77 C-33.58 77 -42.16 77 -51 77 C-51 68.42 -51 59.84 -51 51 C-42.42 51 -33.84 51 -25 51 C-25 42.42 -25 33.84 -25 25 C-16.75 25 -8.5 25 0 25 C0 16.75 0 8.5 0 0 Z M1 26 C1 34.25 1 42.5 1 51 C9.25 51 17.5 51 26 51 C26 42.75 26 34.5 26 26 C17.75 26 9.5 26 1 26 Z M-24 52 C-24 59.92 -24 67.84 -24 76 C-16.08 76 -8.16 76 0 76 C0 68.08 0 60.16 0 52 C-7.92 52 -15.84 52 -24 52 Z M1 77 C1 85.25 1 93.5 1 102 C9.25 102 17.5 102 26 102 C26 93.75 26 85.5 26 77 C17.75 77 9.5 77 1 77 Z " fill="#D1AB41" transform="translate(76,0)"/>
<path d="M0 0 C0 5.28 0 10.56 0 16 C-1.423125 16.2475 -2.84625 16.495 -4.3125 16.75 C-17.87543708 19.5198956 -29.92610356 24.94884215 -38.28125 36.3515625 C-45.71710527 47.80953948 -48.81790808 61.45910243 -45.95703125 74.98828125 C-41.45385653 89.15949638 -34.1619082 98.9452172 -21 106 C-14.19295582 109.05274126 -7.32918305 110.72535947 0 112 C0 117.28 0 122.56 0 128 C-16.62126496 128.89844675 -30.96475227 122.84646402 -43.58984375 112.2421875 C-55.60429163 101.06505122 -63.59588549 86.35353209 -64.3359375 69.80078125 C-64.66889805 49.53958281 -60.1341353 33.19296425 -46 18 C-33.07988248 5.34991709 -17.90369887 -0.4532582 0 0 Z " fill="#4D3F37" transform="translate(64,0)"/>
<path d="M0 0 C8.58 0 17.16 0 26 0 C26.020625 4.269375 26.04125 8.53875 26.0625 12.9375 C26.071604 14.28577881 26.08070801 15.63405762 26.09008789 17.02319336 C26.09258545 18.07643799 26.09508301 19.12968262 26.09765625 20.21484375 C26.10289307 21.29886475 26.10812988 22.38288574 26.11352539 23.49975586 C26 26 26 26 25 27 C23.21928754 27.08726223 21.4351686 27.10699041 19.65234375 27.09765625 C18.68031006 27.09515869 17.70827637 27.09266113 16.70678711 27.09008789 C15.46292236 27.08098389 14.21905762 27.07187988 12.9375 27.0625 C8.998125 27.041875 5.05875 27.02125 1 27 C1 34.92 1 42.84 1 51 C8.85342779 50.96041007 8.85342779 50.96041007 16.70678711 50.90991211 C17.6788208 50.90741455 18.65085449 50.90491699 19.65234375 50.90234375 C21.15269165 50.89448853 21.15269165 50.89448853 22.68334961 50.88647461 C25 51 25 51 26 52 C26.08737645 53.85369611 26.10698153 55.71067541 26.09765625 57.56640625 C26.09443359 58.69111328 26.09121094 59.81582031 26.08789062 60.97460938 C26.07532227 62.75061523 26.07532227 62.75061523 26.0625 64.5625 C26.05798828 65.75037109 26.05347656 66.93824219 26.04882812 68.16210938 C26.03699675 71.10812226 26.02051287 74.05403681 26 77 C26.7520874 76.99476318 27.5041748 76.98952637 28.27905273 76.98413086 C31.66519342 76.96342773 35.05132084 76.95036123 38.4375 76.9375 C39.62150391 76.92912109 40.80550781 76.92074219 42.02539062 76.91210938 C43.15009766 76.90888672 44.27480469 76.90566406 45.43359375 76.90234375 C46.47572021 76.89710693 47.51784668 76.89187012 48.59155273 76.88647461 C51 77 51 77 52 78 C52.08737645 79.85369611 52.10698153 81.71067541 52.09765625 83.56640625 C52.09515869 84.57904541 52.09266113 85.59168457 52.09008789 86.63500977 C52.08098389 87.93108154 52.07187988 89.22715332 52.0625 90.5625 C52.041875 94.666875 52.02125 98.77125 52 103 C43.09 103 34.18 103 25 103 C25 94.75 25 86.5 25 78 C16.75 78 8.5 78 0 78 C0 69.42 0 60.84 0 52 C-8.58 52 -17.16 52 -26 52 C-26 43.42 -26 34.84 -26 26 C-17.42 26 -8.84 26 0 26 C0 17.42 0 8.84 0 0 Z " fill="#A9873B" transform="translate(51,25)"/>
<path d="M0 0 C6.20902073 5.24410535 8.9803973 9.97062872 10 18 C5.38 18 0.76 18 -4 18 C-4.99 16.02 -5.98 14.04 -7 12 C-10.53890271 8.72004139 -13.28284269 7.7256498 -18 7.5625 C-23.64190637 7.81663993 -27.26286149 9.21460764 -31.25 13.3125 C-35.95731304 20.54158789 -36.11430034 29.1382184 -34.53515625 37.4453125 C-32.88231263 42.58966602 -30.26651734 45.00436016 -26 48 C-21.81589522 50.09205239 -16.55640105 49.42827791 -12 49 C-6.78592391 46.57275768 -6.19775216 45.49438039 -4 40 C0.62 40 5.24 40 10 40 C8.73168138 47.6099117 6.0099362 52.55442684 0 57.4375 C-9.01431325 62.13245482 -20.43440718 62.92590723 -30.22265625 60.0546875 C-38.43251349 56.11692792 -44.68541489 49.50231385 -47.7578125 40.87109375 C-50.43715335 30.32354773 -49.54698031 19.90285738 -45 10 C-40.92258477 3.82159485 -36.06839216 -1.10785904 -28.93359375 -3.4453125 C-19.38041834 -5.25163861 -8.36226613 -5.55493393 0 0 Z " fill="#4D3F37" transform="translate(448,35)"/>
<path d="M0 0 C4.29 0 8.58 0 13 0 C13.33 7.92 13.66 15.84 14 24 C15.65 22.68 17.3 21.36 19 20 C24.73122075 18.08959308 30.80237036 18.11597967 36.375 20.5625 C40.98158497 23.17755127 42.92210418 26.77387516 44.59155273 31.77050781 C45.1689347 34.92212292 45.11078231 37.96911646 45.09765625 41.171875 C45.0962413 41.8542926 45.09482635 42.53671021 45.09336853 43.23980713 C45.08779084 45.40991684 45.07524254 47.5799217 45.0625 49.75 C45.05748211 51.22525892 45.05291971 52.70051947 45.04882812 54.17578125 C45.03782875 57.78388798 45.02057953 61.39193375 45 65 C41.04 65 37.08 65 33 65 C32.94392578 62.30650391 32.94392578 62.30650391 32.88671875 59.55859375 C32.82104275 57.18487552 32.75459598 54.81117852 32.6875 52.4375 C32.65366211 50.66536133 32.65366211 50.66536133 32.61914062 48.85742188 C32.55813421 39.20647844 32.55813421 39.20647844 28 31 C23.6017333 30.45579256 20.12196647 30.15852515 16.5 32.875 C13.92547492 36.52224386 13.82417627 38.86183831 13.68359375 43.3203125 C13.64169922 44.57714844 13.59980469 45.83398438 13.55664062 47.12890625 C13.51732422 48.44761719 13.47800781 49.76632813 13.4375 51.125 C13.39430488 52.46485751 13.35069027 53.80470156 13.30664062 55.14453125 C13.2002909 58.4295562 13.09961683 61.71476398 13 65 C8.71 65 4.42 65 0 65 C0 43.55 0 22.1 0 0 Z " fill="#4D3F37" transform="translate(463,30)"/>
<path d="M0 0 C4.05933948 3.67605421 5.94337922 6.85844804 8 12 C8 15.63 8 19.26 8 23 C-8.335 23.495 -8.335 23.495 -25 24 C-22.66151858 29.91731018 -22.66151858 29.91731018 -19 32 C-14.94540609 32.46654469 -14.94540609 32.46654469 -11 32 C-10.278125 31.175 -9.55625 30.35 -8.8125 29.5 C-4.68818177 25.83393935 -1.00336603 26.61696136 4.33203125 26.82421875 C5.21246094 26.88222656 6.09289062 26.94023438 7 27 C5.8772341 30.75491049 4.82798211 33.7145045 2.25 36.6875 C1.78078125 37.24824219 1.3115625 37.80898437 0.828125 38.38671875 C-5.03119444 43.55744295 -10.89117995 43.51939195 -18.36328125 43.34375 C-25.01090389 42.71540328 -28.88203137 40.46110705 -33.375 35.625 C-38.48176536 29.03338711 -38.81569721 22.11514149 -38 14 C-36.23496249 6.761112 -32.0488587 2.16672849 -26 -2 C-17.85883685 -6.16103894 -7.49523871 -4.98710436 0 0 Z M-23 9 C-25.2773501 11.81509993 -25.2773501 11.81509993 -25 15 C-18.07 15 -11.14 15 -4 15 C-5.65338528 10.12140039 -5.65338528 10.12140039 -9 7 C-14.75000954 5.68032568 -17.91377873 5.60918582 -23 9 Z " fill="#4D3F37" transform="translate(551,53)"/>
<path d="M0 0 C8.58 0 17.16 0 26 0 C26.020625 4.269375 26.04125 8.53875 26.0625 12.9375 C26.071604 14.28577881 26.08070801 15.63405762 26.09008789 17.02319336 C26.09258545 18.07643799 26.09508301 19.12968262 26.09765625 20.21484375 C26.10289307 21.29886475 26.10812988 22.38288574 26.11352539 23.49975586 C26 26 26 26 25 27 C23.21928754 27.08726223 21.4351686 27.10699041 19.65234375 27.09765625 C18.57275391 27.09443359 17.49316406 27.09121094 16.38085938 27.08789062 C15.24455078 27.07951172 14.10824219 27.07113281 12.9375 27.0625 C11.79732422 27.05798828 10.65714844 27.05347656 9.48242188 27.04882812 C6.65489649 27.03699747 3.8274736 27.0205141 1 27 C1.00785522 28.08269165 1.00785522 28.08269165 1.01586914 29.18725586 C1.03657358 32.43732849 1.04963918 35.68738728 1.0625 38.9375 C1.07087891 40.07380859 1.07925781 41.21011719 1.08789062 42.38085938 C1.09272461 44.00024414 1.09272461 44.00024414 1.09765625 45.65234375 C1.10551147 47.15269165 1.10551147 47.15269165 1.11352539 48.68334961 C1 51 1 51 0 52 C-1.92667507 52.08748207 -3.85651861 52.10697334 -5.78515625 52.09765625 C-6.83840088 52.09515869 -7.89164551 52.09266113 -8.97680664 52.09008789 C-10.32508545 52.08098389 -11.67336426 52.07187988 -13.0625 52.0625 C-17.331875 52.041875 -21.60125 52.02125 -26 52 C-26 43.42 -26 34.84 -26 26 C-17.42 26 -8.84 26 0 26 C0 17.42 0 8.84 0 0 Z " fill="#A9873B" transform="translate(51,25)"/>
<path d="M0 0 C5.29115801 3.46897284 8.97056648 7.71374652 10.55859375 13.890625 C10.74421875 15.045625 10.92984375 16.200625 11.12109375 17.390625 C7.96672329 17.95841168 5.25124238 18.16413784 2.12109375 17.390625 C0.27245938 15.26666211 -0.96440913 13.0377111 -2.35546875 10.59375 C-4.44157923 7.57691331 -6.41046309 6.7202951 -9.875 5.75390625 C-17.45276965 4.38015854 -23.1631443 6.19494749 -29.62890625 10.015625 C-35.77217289 16.50018423 -36.45660618 23.54879824 -36.35131836 32.14233398 C-36.085035 38.68477819 -34.91729142 43.95110471 -30.48828125 48.96484375 C-25.42666995 53.61353413 -19.86133028 54.86867219 -13.19140625 54.7109375 C-8.35308423 54.04076452 -4.33175983 51.94033548 -1.00390625 48.390625 C0.10163768 46.42521357 1.11262269 44.40756713 2.12109375 42.390625 C5.09109375 42.390625 8.06109375 42.390625 11.12109375 42.390625 C10.4011627 49.94990101 6.58029847 54.26070994 1.09765625 59.09375 C-6.10824426 63.82173215 -15.60691915 63.2284761 -23.87890625 62.390625 C-30.46770628 60.74786488 -36.4377392 56.99134639 -40.28515625 51.31640625 C-46.10355426 41.35409106 -47.67591116 30.58945992 -45.19140625 19.25390625 C-42.09789993 10.01205611 -37.66340234 3.75060142 -28.9296875 -0.69921875 C-20.4963413 -4.44201811 -8.30825252 -3.97899446 0 0 Z " fill="#4D3F37" transform="translate(211.87890625,33.609375)"/>
<path d="M0 0 C2.66725044 2.08378941 4.14619858 4.25031168 5.625 7.26953125 C5.71875 9.9609375 5.71875 9.9609375 5.625 12.26953125 C3.85550905 12.3776835 2.08412513 12.45519208 0.3125 12.51953125 C-0.67363281 12.5659375 -1.65976562 12.61234375 -2.67578125 12.66015625 C-5.375 12.26953125 -5.375 12.26953125 -6.90625 10.26953125 C-7.63328125 9.27953125 -7.63328125 9.27953125 -8.375 8.26953125 C-10.88380616 7.78691458 -10.88380616 7.78691458 -13.5625 8.01953125 C-14.46355469 8.055625 -15.36460937 8.09171875 -16.29296875 8.12890625 C-16.98003906 8.1753125 -17.66710937 8.22171875 -18.375 8.26953125 C-17.98514617 10.76598828 -17.98514617 10.76598828 -16.375 13.26953125 C-13.55632675 14.3399135 -11.03773901 15.10865769 -8.125 15.76953125 C-1.91437358 17.20766944 2.02094355 18.75126467 6.625 23.26953125 C8.36451425 26.74855976 8.07401673 30.46571809 7.625 34.26953125 C5.68544281 38.3813925 3.18098001 41.44381399 -0.91796875 43.578125 C-4.40468312 44.5592831 -7.84039548 44.66862509 -11.4375 44.70703125 C-12.12231445 44.71718262 -12.80712891 44.72733398 -13.51269531 44.73779297 C-19.64957222 44.63259783 -23.58129052 42.85941011 -28.125 38.83203125 C-31.46450907 35.02870148 -32.375 33.38541941 -32.375 28.26953125 C-28.33666163 27.98379976 -24.40422222 27.81522968 -20.375 28.26953125 C-18.0625 30.70703125 -18.0625 30.70703125 -16.375 33.26953125 C-12.46227759 34.23055079 -10.20847302 34.54735559 -6.375 33.26953125 C-6.045 31.28953125 -5.715 29.30953125 -5.375 27.26953125 C-6.4371875 27.03878906 -7.499375 26.80804688 -8.59375 26.5703125 C-16.34563866 24.80981031 -22.97557864 23.23234781 -29.375 18.26953125 C-31.25786075 14.50380975 -31.01707084 10.36043976 -30.375 6.26953125 C-28.30647146 2.34004278 -25.61454859 -0.05166833 -21.75 -2.16796875 C-14.21957508 -3.42303957 -6.77629999 -3.99519354 0 0 Z " fill="#4D3F37" transform="translate(594.375,51.73046875)"/>
<path d="M0 0 C4.71615901 2.88744429 7.53572241 5.68684692 8.875 11.25 C8.936875 12.11625 8.99875 12.9825 9.0625 13.875 C5.1025 13.875 1.1425 13.875 -2.9375 13.875 C-3.2675 12.885 -3.5975 11.895 -3.9375 10.875 C-6.22455831 9.73147084 -7.53014762 9.77165561 -10.0625 9.8125 C-11.980625 9.8434375 -11.980625 9.8434375 -13.9375 9.875 C-14.2675 11.195 -14.5975 12.515 -14.9375 13.875 C-10.59179096 15.56499796 -6.30810652 17.07280244 -1.8125 18.3125 C3.26503874 19.82013842 7.54421463 21.49855333 10.5 26.125 C11.484082 30.93606758 10.75775549 35.0755152 9 39.625 C5.10532133 44.14785265 1.27043994 45.63636894 -4.515625 46.26171875 C-11.71316532 46.46961583 -18.11511205 46.49379354 -23.9375 41.875 C-27.2790471 38.5334529 -28.67396493 35.40266734 -29.9375 30.875 C-28.12710804 29.06460804 -25.50659565 29.57619483 -23.0625 29.5 C-21.99257813 29.45101562 -20.92265625 29.40203125 -19.8203125 29.3515625 C-18.86898437 29.52429688 -17.91765625 29.69703125 -16.9375 29.875 C-15.3046875 32.33984375 -15.3046875 32.33984375 -13.9375 34.875 C-12.02690188 35.75379048 -12.02690188 35.75379048 -9.9375 35.8125 C-9.256875 35.88339844 -8.57625 35.95429687 -7.875 36.02734375 C-5.60793603 36.00757002 -5.60793603 36.00757002 -2.9375 33.875 C-3.4325 31.4 -3.4325 31.4 -3.9375 28.875 C-5.67386719 28.42060547 -5.67386719 28.42060547 -7.4453125 27.95703125 C-8.98459807 27.53466631 -10.52364843 27.11144348 -12.0625 26.6875 C-12.82304688 26.49091797 -13.58359375 26.29433594 -14.3671875 26.09179688 C-19.6740085 24.60497203 -22.98267957 22.73741808 -26.9375 18.875 C-28.49694339 15.75611322 -28.22066275 13.3295855 -27.9375 9.875 C-25.80413714 4.63048297 -23.58144612 1.80085607 -18.34765625 -0.46875 C-12.44281885 -2.07655013 -5.78969554 -2.11108986 0 0 Z " fill="#4D3F37" transform="translate(634.9375,50.125)"/>
<path d="M0 0 C4.82894817 2.7244145 7.46405994 5.45085387 9.8125 10.5 C10.5625 13.8125 10.5625 13.8125 10.5625 23.8125 C-0.9875 23.8125 -12.5375 23.8125 -24.4375 23.8125 C-21.68960031 32.02417244 -21.68960031 32.02417244 -15.4375 36.8125 C-10.67366799 37.39368751 -7.29261886 37.26338085 -3 35 C-0.291941 32.88956695 -0.291941 32.88956695 1.5625 29.8125 C3.5078125 29.51953125 3.5078125 29.51953125 5.6875 29.625 C6.96625 29.686875 8.245 29.74875 9.5625 29.8125 C7.97251882 35.88333724 5.27196898 40.1837309 -0.1796875 43.4609375 C-6.33916734 46.01630923 -13.47536451 45.80615859 -19.9140625 44.19140625 C-25.83582664 41.6192114 -29.89188943 36.71368053 -32.25 30.76171875 C-34.87039895 21.39015307 -32.94704733 14.03235844 -28.875 5.5625 C-21.25280485 -3.03689966 -10.24806427 -4.74029405 0 0 Z M-21.4375 8.8125 C-23.76625487 11.79621717 -24.4375 13.02840855 -24.4375 16.8125 C-15.5275 16.8125 -6.6175 16.8125 2.5625 16.8125 C1.21405331 10.22453255 1.21405331 10.22453255 -1.5 7.4375 C-8.48585398 3.57298503 -15.03528175 4.01835066 -21.4375 8.8125 Z " fill="#4D3F37" transform="translate(382.4375,51.1875)"/>
<path d="M0 0 C3.79013467 2.24249635 6.13549658 4.69772208 8.5625 8.375 C9.375 11.75 9.375 11.75 9.5625 14.375 C4.29240777 14.90200922 4.29240777 14.90200922 1.5625 14.375 C-0.5625 11.5 -0.5625 11.5 -2.4375 8.375 C-7.08715214 5.94450002 -11.47384884 5.96266214 -16.4375 7.375 C-20.4912763 9.84251601 -21.97853296 11.93382719 -23.4375 16.375 C-24.13687641 22.61489087 -24.04220764 28.03469239 -20.4375 33.375 C-18.39693261 35.8406856 -17.56776076 36.33157975 -14.4375 37.375 C-9.13164624 37.71731315 -5.69954172 37.90640599 -1.4375 34.375 C-1.004375 33.488125 -0.57125 32.60125 -0.125 31.6875 C1.5625 29.375 1.5625 29.375 3.5234375 29.0546875 C5.5392755 29.06176062 7.55338752 29.21031865 9.5625 29.375 C9.31327601 33.61180777 9.0217498 35.8288651 6.25 39.125 C-1.47962327 45.59631251 -7.3568729 46.16848617 -17.4375 45.375 C-23.33714235 43.77679967 -27.07195593 40.4713953 -30.4375 35.375 C-33.78409443 28.22300385 -34.76499999 20.91299685 -32.375 13.3125 C-29.83089143 7.34041415 -25.71375846 2.8032406 -20.25 -0.625 C-13.51729083 -2.3909565 -6.47862803 -2.93256079 0 0 Z " fill="#4D3F37" transform="translate(313.4375,50.625)"/>
<path d="M0 0 C1.5631897 0.00785522 1.5631897 0.00785522 3.15795898 0.01586914 C4.17059814 0.0183667 5.1832373 0.02086426 6.2265625 0.0234375 C7.52263428 0.0325415 8.81870605 0.04164551 10.15405273 0.05102539 C16.31061523 0.08196289 16.31061523 0.08196289 22.59155273 0.11352539 C22.59155273 9.02352539 22.59155273 17.93352539 22.59155273 27.11352539 C14.01155273 27.11352539 5.43155273 27.11352539 -3.40844727 27.11352539 C-3.42907227 22.84415039 -3.44969727 18.57477539 -3.47094727 14.17602539 C-3.48005127 12.82774658 -3.48915527 11.47946777 -3.49853516 10.09033203 C-3.50103271 9.0370874 -3.50353027 7.98384277 -3.50610352 6.89868164 C-3.51134033 5.81466064 -3.51657715 4.73063965 -3.52197266 3.61376953 C-3.37158893 0.30177017 -3.30527426 0.15579853 0 0 Z " fill="#F9CE47" transform="translate(105.408447265625,75.886474609375)"/>
<path d="M0 0 C8.91 0 17.82 0 27 0 C27 8.58 27 17.16 27 26 C22.730625 26.020625 18.46125 26.04125 14.0625 26.0625 C12.04008179 26.07615601 12.04008179 26.07615601 9.97680664 26.09008789 C8.3969397 26.09383423 8.3969397 26.09383423 6.78515625 26.09765625 C5.15912476 26.10551147 5.15912476 26.10551147 3.50024414 26.11352539 C1 26 1 26 0 25 C-0.08737645 23.14630389 -0.10698153 21.28932459 -0.09765625 19.43359375 C-0.09515869 18.42095459 -0.09266113 17.40831543 -0.09008789 16.36499023 C-0.08098389 15.06891846 -0.07187988 13.77284668 -0.0625 12.4375 C-0.041875 8.333125 -0.02125 4.22875 0 0 Z " fill="#D0AB41" transform="translate(76,0)"/>
<path d="M0 0 C1.12019531 -0.00128906 2.24039063 -0.00257812 3.39453125 -0.00390625 C4.57402344 -0.00003906 5.75351563 0.00382812 6.96875 0.0078125 C8.73798828 0.00201172 8.73798828 0.00201172 10.54296875 -0.00390625 C12.22326172 -0.00197266 12.22326172 -0.00197266 13.9375 0 C14.97326172 0.00112793 16.00902344 0.00225586 17.07617188 0.00341797 C19.46875 0.1328125 19.46875 0.1328125 20.46875 1.1328125 C20.55612645 2.98650861 20.57573153 4.84348791 20.56640625 6.69921875 C20.56390869 7.71185791 20.56141113 8.72449707 20.55883789 9.76782227 C20.54973389 11.06389404 20.54062988 12.35996582 20.53125 13.6953125 C20.510625 17.7996875 20.49 21.9040625 20.46875 26.1328125 C11.55875 26.1328125 2.64875 26.1328125 -6.53125 26.1328125 C-6.551875 22.0284375 -6.5725 17.9240625 -6.59375 13.6953125 C-6.602854 12.39924072 -6.61195801 11.10316895 -6.62133789 9.76782227 C-6.62383545 8.75518311 -6.62633301 7.74254395 -6.62890625 6.69921875 C-6.63414307 5.65709229 -6.63937988 4.61496582 -6.64477539 3.54125977 C-6.43122622 -0.98919732 -3.95971296 0.00431207 0 0 Z " fill="#D0AB41" transform="translate(82.53125,101.8671875)"/>
<path d="M0 0 C4.269375 -0.020625 8.53875 -0.04125 12.9375 -0.0625 C14.95991821 -0.07615601 14.95991821 -0.07615601 17.02319336 -0.09008789 C18.6030603 -0.09383423 18.6030603 -0.09383423 20.21484375 -0.09765625 C21.84087524 -0.10551147 21.84087524 -0.10551147 23.49975586 -0.11352539 C26 0 26 0 27 1 C27.09946453 2.76859193 27.13080217 4.54111451 27.1328125 6.3125 C27.13474609 7.92511719 27.13474609 7.92511719 27.13671875 9.5703125 C27.13285156 10.70210937 27.12898438 11.83390625 27.125 13 C27.13080078 14.69769531 27.13080078 14.69769531 27.13671875 16.4296875 C27.13542969 17.50476563 27.13414063 18.57984375 27.1328125 19.6875 C27.13168457 20.68136719 27.13055664 21.67523438 27.12939453 22.69921875 C27 25 27 25 26 26 C24.07332493 26.08748207 22.14348139 26.10697334 20.21484375 26.09765625 C19.16159912 26.09515869 18.10835449 26.09266113 17.02319336 26.09008789 C15.67491455 26.08098389 14.32663574 26.07187988 12.9375 26.0625 C8.668125 26.041875 4.39875 26.02125 0 26 C0 17.42 0 8.84 0 0 Z " fill="#806234" transform="translate(25,51)"/>
<path d="M0 0 C1.5631897 0.00785522 1.5631897 0.00785522 3.15795898 0.01586914 C4.17059814 0.0183667 5.1832373 0.02086426 6.2265625 0.0234375 C7.52263428 0.0325415 8.81870605 0.04164551 10.15405273 0.05102539 C16.31061523 0.08196289 16.31061523 0.08196289 22.59155273 0.11352539 C22.59155273 9.02352539 22.59155273 17.93352539 22.59155273 27.11352539 C18.48717773 27.13415039 14.38280273 27.15477539 10.15405273 27.17602539 C8.20994507 27.1896814 8.20994507 27.1896814 6.2265625 27.20361328 C4.70760376 27.20735962 4.70760376 27.20735962 3.15795898 27.21118164 C1.59476929 27.21903687 1.59476929 27.21903687 0 27.22705078 C-2.40844727 27.11352539 -2.40844727 27.11352539 -3.40844727 26.11352539 C-3.50804347 24.27193516 -3.53925137 22.42655572 -3.54125977 20.58227539 C-3.54254883 19.46208008 -3.54383789 18.34188477 -3.54516602 17.18774414 C-3.54129883 16.00825195 -3.53743164 14.82875977 -3.53344727 13.61352539 C-3.53731445 12.4340332 -3.54118164 11.25454102 -3.54516602 10.03930664 C-3.54387695 8.91911133 -3.54258789 7.79891602 -3.54125977 6.64477539 C-3.54013184 5.60901367 -3.53900391 4.57325195 -3.5378418 3.50610352 C-3.36284722 0.27035479 -3.23899974 0.1526746 0 0 Z " fill="#FACF47" transform="translate(105.408447265625,24.886474609375)"/>
<path d="M0 0 C2.97 0 5.94 0 9 0 C9 21.45 9 42.9 9 65 C6.03 65 3.06 65 0 65 C0 43.55 0 22.1 0 0 Z " fill="#4D3F37" transform="translate(332,30)"/>
<path d="M0 0 C0 2.97 0 5.94 0 9 C-1.01320313 9.14695312 -1.01320313 9.14695312 -2.046875 9.296875 C-7.57122711 10.19732499 -7.57122711 10.19732499 -12.5 12.6875 C-16.75406982 19.24585764 -16.40976065 26.88170186 -16.625 34.4375 C-16.68300781 36.1071582 -16.68300781 36.1071582 -16.7421875 37.81054688 C-16.83590966 40.54020476 -16.92162294 43.26986563 -17 46 C-19.64 46 -22.28 46 -25 46 C-25 31.15 -25 16.3 -25 1 C-22.36 1 -19.72 1 -17 1 C-16.67 2.65 -16.34 4.3 -16 6 C-15.52949219 5.65066406 -15.05898438 5.30132812 -14.57421875 4.94140625 C-13.95160156 4.48636719 -13.32898438 4.03132813 -12.6875 3.5625 C-12.07261719 3.11003906 -11.45773437 2.65757813 -10.82421875 2.19140625 C-7.24466472 -0.14641812 -4.15320534 -0.09229345 0 0 Z " fill="#4D3F37" transform="translate(277,49)"/>
<path d="M0 0 C2.97 0 5.94 0 9 0 C9 14.85 9 29.7 9 45 C6.03 45 3.06 45 0 45 C0 30.15 0 15.3 0 0 Z " fill="#4D3F37" transform="translate(232,50)"/>
<path d="M0 0 C1.32 6.36 1.32 6.36 0 9 C-3.11708365 10.55854182 -5.6858308 9.68784644 -9 9 C-10.32 2.64 -10.32 2.64 -9 0 C-5.88291635 -1.55854182 -3.3141692 -0.68784644 0 0 Z " fill="#4D3F37" transform="translate(241,31)"/>
</svg>
