<?xml version="1.0" standalone="no"?>
<!DOCTYPE svg PUBLIC "-//W3C//DTD SVG 1.1//EN" "http://www.w3.org/Graphics/SVG/1.1/DTD/svg11.dtd">
<svg xmlns="http://www.w3.org/2000/svg" width="148" height="44" viewBox="0 0 148 44" fill="none">
<g clip-path="url(#clip0_13355_1722)">
<path d="M8.25 17.875H35.75V33L22 42.625L8.25 33V17.875Z" fill="#4D3F37"/>
<path d="M22 1.375L1.375 15.125L22 28.875L42.625 15.125L22 1.375Z" fill="white"/>
<path fill-rule="evenodd" clip-rule="evenodd" d="M21.9997 0.135742L44.4838 15.1252L21.9997 30.1146L-0.484375 15.1252L21.9997 0.135742ZM3.23385 15.1252L21.9997 27.6357L40.7656 15.1252L21.9997 2.61456L3.23385 15.1252Z" fill="#4D3F37"/>
<path d="M13.75 11L6.875 15.125L13.75 19.25L20.625 15.125L13.75 11Z" fill="#D1AB41"/>
<path d="M30.25 11L23.375 15.125L30.25 19.25L37.125 15.125L30.25 11Z" fill="#FACF47"/>
<path d="M22 5.5L15.125 9.625L22 13.75L28.875 9.625L22 5.5Z" fill="#A9873B"/>
<path fill-rule="evenodd" clip-rule="evenodd" d="M41.5938 30.25V15.125H43.6562V30.25H41.5938Z" fill="#4D3F37"/>
</g>
<path d="M144.674 33.1684C144.077 33.1684 143.554 33.0704 143.106 32.8744C142.658 32.6784 142.304 32.403 142.042 32.0484C141.781 31.6937 141.622 31.2784 141.566 30.8024H142.994C143.041 31.0264 143.13 31.2317 143.26 31.4184C143.4 31.605 143.587 31.7544 143.82 31.8664C144.063 31.9784 144.348 32.0344 144.674 32.0344C144.982 32.0344 145.234 31.9924 145.43 31.9084C145.636 31.815 145.785 31.6937 145.878 31.5444C145.972 31.3857 146.018 31.2177 146.018 31.0404C146.018 30.779 145.953 30.583 145.822 30.4524C145.701 30.3124 145.514 30.205 145.262 30.1304C145.02 30.0464 144.726 29.9717 144.38 29.9064C144.054 29.8504 143.736 29.7757 143.428 29.6824C143.13 29.5797 142.859 29.4537 142.616 29.3044C142.383 29.155 142.196 28.9684 142.056 28.7444C141.916 28.511 141.846 28.2264 141.846 27.8904C141.846 27.489 141.954 27.1297 142.168 26.8124C142.383 26.4857 142.686 26.2337 143.078 26.0564C143.48 25.8697 143.951 25.7764 144.492 25.7764C145.276 25.7764 145.906 25.963 146.382 26.3364C146.858 26.7097 147.138 27.237 147.222 27.9184H145.864C145.827 27.601 145.687 27.3584 145.444 27.1904C145.202 27.013 144.88 26.9244 144.478 26.9244C144.077 26.9244 143.769 27.0037 143.554 27.1624C143.34 27.321 143.232 27.531 143.232 27.7924C143.232 27.9604 143.293 28.1097 143.414 28.2404C143.536 28.371 143.713 28.483 143.946 28.5764C144.189 28.6604 144.483 28.7397 144.828 28.8144C145.323 28.9077 145.766 29.0244 146.158 29.1644C146.55 29.3044 146.863 29.5097 147.096 29.7804C147.33 30.051 147.446 30.4384 147.446 30.9424C147.456 31.381 147.344 31.7684 147.11 32.1044C146.886 32.4404 146.564 32.7017 146.144 32.8884C145.734 33.075 145.244 33.1684 144.674 33.1684Z" fill="#262322"/>
<path d="M138.365 33.1684C137.768 33.1684 137.245 33.0704 136.797 32.8744C136.349 32.6784 135.994 32.403 135.733 32.0484C135.472 31.6937 135.313 31.2784 135.257 30.8024H136.685C136.732 31.0264 136.82 31.2317 136.951 31.4184C137.091 31.605 137.278 31.7544 137.511 31.8664C137.754 31.9784 138.038 32.0344 138.365 32.0344C138.673 32.0344 138.925 31.9924 139.121 31.9084C139.326 31.815 139.476 31.6937 139.569 31.5444C139.662 31.3857 139.709 31.2177 139.709 31.0404C139.709 30.779 139.644 30.583 139.513 30.4524C139.392 30.3124 139.205 30.205 138.953 30.1304C138.71 30.0464 138.416 29.9717 138.071 29.9064C137.744 29.8504 137.427 29.7757 137.119 29.6824C136.82 29.5797 136.55 29.4537 136.307 29.3044C136.074 29.155 135.887 28.9684 135.747 28.7444C135.607 28.511 135.537 28.2264 135.537 27.8904C135.537 27.489 135.644 27.1297 135.859 26.8124C136.074 26.4857 136.377 26.2337 136.769 26.0564C137.17 25.8697 137.642 25.7764 138.183 25.7764C138.967 25.7764 139.597 25.963 140.073 26.3364C140.549 26.7097 140.829 27.237 140.913 27.9184H139.555C139.518 27.601 139.378 27.3584 139.135 27.1904C138.892 27.013 138.57 26.9244 138.169 26.9244C137.768 26.9244 137.46 27.0037 137.245 27.1624C137.03 27.321 136.923 27.531 136.923 27.7924C136.923 27.9604 136.984 28.1097 137.105 28.2404C137.226 28.371 137.404 28.483 137.637 28.5764C137.88 28.6604 138.174 28.7397 138.519 28.8144C139.014 28.9077 139.457 29.0244 139.849 29.1644C140.241 29.3044 140.554 29.5097 140.787 29.7804C141.02 30.051 141.137 30.4384 141.137 30.9424C141.146 31.381 141.034 31.7684 140.801 32.1044C140.577 32.4404 140.255 32.7017 139.835 32.8884C139.424 33.075 138.934 33.1684 138.365 33.1684Z" fill="#262322"/>
<path d="M131.559 33.1684C130.887 33.1684 130.289 33.0144 129.767 32.7064C129.244 32.3984 128.833 31.969 128.535 31.4184C128.245 30.8677 128.101 30.2284 128.101 29.5004C128.101 28.7537 128.245 28.105 128.535 27.5544C128.833 26.9944 129.244 26.5604 129.767 26.2524C130.289 25.935 130.896 25.7764 131.587 25.7764C132.277 25.7764 132.87 25.9304 133.365 26.2384C133.859 26.5464 134.242 26.957 134.513 27.4704C134.783 27.9744 134.919 28.5344 134.919 29.1504C134.919 29.2437 134.914 29.3464 134.905 29.4584C134.905 29.561 134.9 29.6777 134.891 29.8084H129.123V28.8144H133.519C133.491 28.2264 133.295 27.769 132.931 27.4424C132.567 27.1064 132.114 26.9384 131.573 26.9384C131.19 26.9384 130.84 27.027 130.523 27.2044C130.205 27.3724 129.949 27.6244 129.753 27.9604C129.566 28.287 129.473 28.7024 129.473 29.2064V29.5984C129.473 30.121 129.566 30.5644 129.753 30.9284C129.949 31.283 130.205 31.5537 130.523 31.7404C130.84 31.9177 131.185 32.0064 131.559 32.0064C132.007 32.0064 132.375 31.9084 132.665 31.7124C132.954 31.5164 133.169 31.2504 133.309 30.9144H134.709C134.587 31.3437 134.382 31.731 134.093 32.0764C133.803 32.4124 133.444 32.6784 133.015 32.8744C132.595 33.0704 132.109 33.1684 131.559 33.1684Z" fill="#262322"/>
<path d="M120.977 32.9999V22.9199H122.377V27.0919C122.61 26.6813 122.932 26.3593 123.343 26.1259C123.763 25.8926 124.225 25.7759 124.729 25.7759C125.289 25.7759 125.769 25.8926 126.171 26.1259C126.572 26.3499 126.88 26.6906 127.095 27.1479C127.309 27.5959 127.417 28.1606 127.417 28.8419V32.9999H126.031V28.9819C126.031 28.3286 125.891 27.8339 125.611 27.4979C125.331 27.1526 124.915 26.9799 124.365 26.9799C123.991 26.9799 123.655 27.0686 123.357 27.2459C123.058 27.4233 122.82 27.6846 122.643 28.0299C122.465 28.3659 122.377 28.7766 122.377 29.2619V32.9999H120.977Z" fill="#262322"/>
<path d="M116.054 33.1682C115.092 33.1682 114.262 32.9582 113.562 32.5382C112.871 32.1089 112.334 31.5162 111.952 30.7602C111.578 29.9949 111.392 29.1082 111.392 28.1002C111.392 27.1016 111.578 26.2196 111.952 25.4542C112.334 24.6889 112.871 24.0962 113.562 23.6762C114.262 23.2469 115.092 23.0322 116.054 23.0322C117.202 23.0322 118.13 23.3076 118.84 23.8582C119.558 24.4089 120.016 25.1836 120.212 26.1822H118.672C118.532 25.6036 118.242 25.1416 117.804 24.7962C117.374 24.4509 116.791 24.2782 116.054 24.2782C115.391 24.2782 114.817 24.4322 114.332 24.7402C113.846 25.0482 113.473 25.4869 113.212 26.0562C112.95 26.6256 112.82 27.3069 112.82 28.1002C112.82 28.8936 112.95 29.5796 113.212 30.1582C113.473 30.7276 113.846 31.1662 114.332 31.4742C114.817 31.7729 115.391 31.9222 116.054 31.9222C116.791 31.9222 117.374 31.7589 117.804 31.4322C118.242 31.0962 118.532 30.6436 118.672 30.0742H120.212C120.016 31.0449 119.558 31.8056 118.84 32.3562C118.13 32.8976 117.202 33.1682 116.054 33.1682Z" fill="#262322"/>
<path d="M105.267 32.9999V24.9919C105.267 24.5066 105.347 24.1099 105.505 23.8019C105.673 23.4939 105.916 23.2699 106.233 23.1299C106.551 22.9899 106.933 22.9199 107.381 22.9199H108.207V24.1099H107.605C107.269 24.1099 107.027 24.1799 106.877 24.3199C106.737 24.4506 106.667 24.6839 106.667 25.0199V32.9999H105.267ZM104.231 27.1339V25.9439H108.361V27.1339H104.231Z" fill="#262322"/>
<path d="M100.568 33.1684C99.9054 33.1684 99.308 33.0144 98.776 32.7064C98.2534 32.3984 97.838 31.969 97.53 31.4184C97.2314 30.8584 97.082 30.2144 97.082 29.4864C97.082 28.7397 97.236 28.091 97.544 27.5404C97.852 26.9804 98.272 26.5464 98.804 26.2384C99.336 25.9304 99.9334 25.7764 100.596 25.7764C101.268 25.7764 101.865 25.9304 102.388 26.2384C102.911 26.5464 103.321 26.9757 103.62 27.5264C103.928 28.077 104.082 28.7257 104.082 29.4724C104.082 30.219 103.928 30.8677 103.62 31.4184C103.321 31.969 102.906 32.3984 102.374 32.7064C101.842 33.0144 101.24 33.1684 100.568 33.1684ZM100.568 31.9644C100.951 31.9644 101.296 31.871 101.604 31.6844C101.921 31.4977 102.173 31.2224 102.36 30.8584C102.556 30.485 102.654 30.023 102.654 29.4724C102.654 28.9217 102.561 28.4644 102.374 28.1004C102.187 27.727 101.935 27.447 101.618 27.2604C101.31 27.0737 100.969 26.9804 100.596 26.9804C100.223 26.9804 99.8774 27.0737 99.56 27.2604C99.2427 27.447 98.986 27.727 98.79 28.1004C98.6034 28.4644 98.51 28.9217 98.51 29.4724C98.51 30.023 98.6034 30.485 98.79 30.8584C98.986 31.2224 99.238 31.4977 99.546 31.6844C99.8634 31.871 100.204 31.9644 100.568 31.9644Z" fill="#262322"/>
<path d="M92.124 32.9999V22.9199H93.524V32.9999H92.124Z" fill="#262322"/>
<path d="M87.8034 33.1684C87.1407 33.1684 86.5434 33.0144 86.0114 32.7064C85.4887 32.3984 85.0734 31.969 84.7654 31.4184C84.4667 30.8584 84.3174 30.2144 84.3174 29.4864C84.3174 28.7397 84.4714 28.091 84.7794 27.5404C85.0874 26.9804 85.5074 26.5464 86.0394 26.2384C86.5714 25.9304 87.1687 25.7764 87.8314 25.7764C88.5034 25.7764 89.1007 25.9304 89.6234 26.2384C90.146 26.5464 90.5567 26.9757 90.8554 27.5264C91.1634 28.077 91.3174 28.7257 91.3174 29.4724C91.3174 30.219 91.1634 30.8677 90.8554 31.4184C90.5567 31.969 90.1414 32.3984 89.6094 32.7064C89.0774 33.0144 88.4754 33.1684 87.8034 33.1684ZM87.8034 31.9644C88.186 31.9644 88.5314 31.871 88.8394 31.6844C89.1567 31.4977 89.4087 31.2224 89.5954 30.8584C89.7914 30.485 89.8894 30.023 89.8894 29.4724C89.8894 28.9217 89.796 28.4644 89.6094 28.1004C89.4227 27.727 89.1707 27.447 88.8534 27.2604C88.5454 27.0737 88.2047 26.9804 87.8314 26.9804C87.458 26.9804 87.1127 27.0737 86.7954 27.2604C86.4781 27.447 86.2214 27.727 86.0254 28.1004C85.8387 28.4644 85.7454 28.9217 85.7454 29.4724C85.7454 30.023 85.8387 30.485 86.0254 30.8584C86.2214 31.2224 86.4734 31.4977 86.7814 31.6844C87.0987 31.871 87.4394 31.9644 87.8034 31.9644Z" fill="#262322"/>
<path d="M80.2624 33.1684C79.5997 33.1684 79.0024 33.0144 78.4704 32.7064C77.9477 32.3984 77.5324 31.969 77.2244 31.4184C76.9257 30.8584 76.7764 30.2144 76.7764 29.4864C76.7764 28.7397 76.9304 28.091 77.2384 27.5404C77.5464 26.9804 77.9664 26.5464 78.4984 26.2384C79.0304 25.9304 79.6277 25.7764 80.2904 25.7764C80.9624 25.7764 81.5597 25.9304 82.0824 26.2384C82.605 26.5464 83.0157 26.9757 83.3144 27.5264C83.6224 28.077 83.7764 28.7257 83.7764 29.4724C83.7764 30.219 83.6224 30.8677 83.3144 31.4184C83.0157 31.969 82.6004 32.3984 82.0684 32.7064C81.5364 33.0144 80.9344 33.1684 80.2624 33.1684ZM80.2624 31.9644C80.645 31.9644 80.9904 31.871 81.2984 31.6844C81.6157 31.4977 81.8677 31.2224 82.0544 30.8584C82.2504 30.485 82.3484 30.023 82.3484 29.4724C82.3484 28.9217 82.255 28.4644 82.0684 28.1004C81.8817 27.727 81.6297 27.447 81.3124 27.2604C81.0044 27.0737 80.6637 26.9804 80.2904 26.9804C79.917 26.9804 79.5717 27.0737 79.2544 27.2604C78.937 27.447 78.6804 27.727 78.4844 28.1004C78.2977 28.4644 78.2044 28.9217 78.2044 29.4724C78.2044 30.023 78.2977 30.485 78.4844 30.8584C78.6804 31.2224 78.9324 31.4977 79.2404 31.6844C79.5577 31.871 79.8984 31.9644 80.2624 31.9644Z" fill="#262322"/>
<path d="M69.6514 32.9999V22.9199H71.0514V27.0919C71.2847 26.6813 71.6067 26.3593 72.0174 26.1259C72.4374 25.8926 72.8994 25.7759 73.4034 25.7759C73.9634 25.7759 74.444 25.8926 74.8454 26.1259C75.2467 26.3499 75.5547 26.6906 75.7694 27.1479C75.984 27.5959 76.0914 28.1606 76.0914 28.8419V32.9999H74.7054V28.9819C74.7054 28.3286 74.5654 27.8339 74.2854 27.4979C74.0054 27.1526 73.59 26.9799 73.0394 26.9799C72.666 26.9799 72.33 27.0686 72.0314 27.2459C71.7327 27.4233 71.4947 27.6846 71.3174 28.0299C71.14 28.3659 71.0514 28.7766 71.0514 29.2619V32.9999H69.6514Z" fill="#262322"/>
<path d="M65.5915 33.1684C64.9101 33.1684 64.3035 33.0144 63.7715 32.7064C63.2395 32.389 62.8195 31.955 62.5115 31.4044C62.2128 30.8537 62.0635 30.2144 62.0635 29.4864C62.0635 28.749 62.2128 28.105 62.5115 27.5544C62.8195 26.9944 63.2395 26.5604 63.7715 26.2524C64.3035 25.935 64.9101 25.7764 65.5915 25.7764C66.4501 25.7764 67.1688 26.0004 67.7475 26.4484C68.3261 26.8964 68.6948 27.503 68.8535 28.2684H67.3975C67.3041 27.8577 67.0895 27.5404 66.7535 27.3164C66.4268 27.0924 66.0348 26.9804 65.5775 26.9804C65.2041 26.9804 64.8588 27.0784 64.5415 27.2744C64.2241 27.461 63.9675 27.741 63.7715 28.1144C63.5848 28.4784 63.4915 28.931 63.4915 29.4724C63.4915 29.8737 63.5475 30.233 63.6595 30.5504C63.7715 30.8584 63.9208 31.1197 64.1075 31.3344C64.3035 31.549 64.5275 31.7124 64.7795 31.8244C65.0315 31.927 65.2975 31.9784 65.5775 31.9784C65.8855 31.9784 66.1608 31.9317 66.4035 31.8384C66.6555 31.7357 66.8655 31.5864 67.0335 31.3904C67.2108 31.1944 67.3321 30.961 67.3975 30.6904H68.8535C68.6948 31.437 68.3261 32.039 67.7475 32.4964C67.1688 32.9444 66.4501 33.1684 65.5915 33.1684Z" fill="#262322"/>
<path d="M58.2289 33.1682C57.5102 33.1682 56.8802 33.0422 56.3389 32.7902C55.7975 32.5289 55.3775 32.1649 55.0789 31.6982C54.7802 31.2316 54.6309 30.6856 54.6309 30.0602H56.1009C56.1102 30.4149 56.1942 30.7416 56.3529 31.0402C56.5209 31.3296 56.7589 31.5629 57.0669 31.7402C57.3842 31.9082 57.7715 31.9922 58.2289 31.9922C58.6209 31.9922 58.9569 31.9269 59.2369 31.7962C59.5262 31.6656 59.7455 31.4882 59.8949 31.2642C60.0442 31.0309 60.1189 30.7649 60.1189 30.4662C60.1189 30.1209 60.0395 29.8362 59.8809 29.6122C59.7222 29.3882 59.5075 29.2062 59.2369 29.0662C58.9755 28.9169 58.6675 28.7862 58.3129 28.6742C57.9675 28.5622 57.6035 28.4409 57.2209 28.3102C56.4462 28.0582 55.8675 27.7316 55.4849 27.3302C55.1115 26.9289 54.9249 26.4062 54.9249 25.7622C54.9249 25.2116 55.0555 24.7356 55.3169 24.3342C55.5782 23.9236 55.9422 23.6062 56.4089 23.3822C56.8849 23.1489 57.4449 23.0322 58.0889 23.0322C58.7235 23.0322 59.2789 23.1489 59.7549 23.3822C60.2309 23.6156 60.6042 23.9376 60.8749 24.3482C61.1455 24.7589 61.2809 25.2396 61.2809 25.7902H59.7969C59.7969 25.5382 59.7315 25.2909 59.6009 25.0482C59.4702 24.8056 59.2742 24.6096 59.0129 24.4602C58.7515 24.3016 58.4295 24.2222 58.0469 24.2222C57.7295 24.2129 57.4449 24.2642 57.1929 24.3762C56.9409 24.4882 56.7449 24.6516 56.6049 24.8662C56.4649 25.0809 56.3949 25.3376 56.3949 25.6362C56.3949 25.9349 56.4555 26.1776 56.5769 26.3642C56.7075 26.5416 56.8942 26.6956 57.1369 26.8262C57.3795 26.9569 57.6595 27.0782 57.9769 27.1902C58.3035 27.2929 58.6629 27.4096 59.0549 27.5402C59.5402 27.6989 59.9695 27.8949 60.3429 28.1282C60.7255 28.3522 61.0242 28.6462 61.2389 29.0102C61.4629 29.3649 61.5749 29.8222 61.5749 30.3822C61.5749 30.8676 61.4489 31.3202 61.1969 31.7402C60.9449 32.1602 60.5715 32.5056 60.0769 32.7762C59.5822 33.0376 58.9662 33.1682 58.2289 33.1682Z" fill="#262322"/>
<path d="M85.6416 17.1436C85.1456 17.1436 84.7336 17.0596 84.4056 16.8916C84.0776 16.7236 83.8336 16.4996 83.6736 16.2196C83.5136 15.9316 83.4336 15.6236 83.4336 15.2956C83.4336 14.8956 83.5376 14.5556 83.7456 14.2756C83.9536 13.9876 84.2496 13.7676 84.6336 13.6156C85.0176 13.4636 85.4776 13.3876 86.0136 13.3876H87.5856C87.5856 13.0356 87.5336 12.7436 87.4296 12.5116C87.3256 12.2796 87.1696 12.1076 86.9616 11.9956C86.7616 11.8756 86.5056 11.8156 86.1936 11.8156C85.8336 11.8156 85.5256 11.9036 85.2696 12.0796C85.0136 12.2476 84.8536 12.4996 84.7896 12.8356H83.5896C83.6376 12.4116 83.7816 12.0516 84.0216 11.7556C84.2696 11.4516 84.5856 11.2196 84.9696 11.0596C85.3536 10.8916 85.7616 10.8076 86.1936 10.8076C86.7616 10.8076 87.2376 10.9076 87.6216 11.1076C88.0056 11.3076 88.2936 11.5916 88.4856 11.9596C88.6856 12.3196 88.7856 12.7516 88.7856 13.2556V16.9996H87.7416L87.6456 15.9796C87.5576 16.1396 87.4536 16.2916 87.3336 16.4356C87.2136 16.5796 87.0696 16.7036 86.9016 16.8076C86.7416 16.9116 86.5536 16.9916 86.3376 17.0476C86.1296 17.1116 85.8976 17.1436 85.6416 17.1436ZM85.8696 16.1716C86.1256 16.1716 86.3576 16.1196 86.5656 16.0156C86.7736 15.9116 86.9496 15.7716 87.0936 15.5956C87.2456 15.4116 87.3576 15.2076 87.4296 14.9836C87.5096 14.7516 87.5536 14.5156 87.5616 14.2756V14.2396H86.1336C85.7896 14.2396 85.5096 14.2836 85.2936 14.3716C85.0856 14.4516 84.9336 14.5636 84.8376 14.7076C84.7416 14.8516 84.6936 15.0196 84.6936 15.2116C84.6936 15.4116 84.7376 15.5836 84.8256 15.7276C84.9216 15.8636 85.0576 15.9716 85.2336 16.0516C85.4096 16.1316 85.6216 16.1716 85.8696 16.1716Z" fill="#4D3F37"/>
<path d="M80.2089 17.1436C79.6969 17.1436 79.2489 17.0596 78.8649 16.8916C78.4809 16.7236 78.1769 16.4876 77.9529 16.1836C77.7289 15.8796 77.5929 15.5236 77.5449 15.1156H78.7689C78.8089 15.3076 78.8849 15.4836 78.9969 15.6436C79.1169 15.8036 79.2769 15.9316 79.4769 16.0276C79.6849 16.1236 79.9289 16.1716 80.2089 16.1716C80.4729 16.1716 80.6889 16.1356 80.8569 16.0636C81.0329 15.9836 81.1609 15.8796 81.2409 15.7516C81.3209 15.6156 81.3609 15.4716 81.3609 15.3196C81.3609 15.0956 81.3049 14.9276 81.1929 14.8156C81.0889 14.6956 80.9289 14.6036 80.7129 14.5396C80.5049 14.4676 80.2529 14.4036 79.9569 14.3476C79.6769 14.2996 79.4049 14.2356 79.1409 14.1556C78.8849 14.0676 78.6529 13.9596 78.4449 13.8316C78.2449 13.7036 78.0849 13.5436 77.9649 13.3516C77.8449 13.1516 77.7849 12.9076 77.7849 12.6196C77.7849 12.2756 77.8769 11.9676 78.0609 11.6956C78.2449 11.4156 78.5049 11.1996 78.8409 11.0476C79.1849 10.8876 79.5889 10.8076 80.0529 10.8076C80.7249 10.8076 81.2649 10.9676 81.6729 11.2876C82.0809 11.6076 82.3209 12.0596 82.3929 12.6436H81.2289C81.1969 12.3716 81.0769 12.1636 80.8689 12.0196C80.6609 11.8676 80.3849 11.7916 80.0409 11.7916C79.6969 11.7916 79.4329 11.8596 79.2489 11.9956C79.0649 12.1316 78.9729 12.3116 78.9729 12.5356C78.9729 12.6796 79.0249 12.8076 79.1289 12.9196C79.2329 13.0316 79.3849 13.1276 79.5849 13.2076C79.7929 13.2796 80.0449 13.3476 80.3409 13.4116C80.7649 13.4916 81.1449 13.5916 81.4809 13.7116C81.8169 13.8316 82.0849 14.0076 82.2849 14.2396C82.4849 14.4716 82.5849 14.8036 82.5849 15.2356C82.5929 15.6116 82.4969 15.9436 82.2969 16.2316C82.1049 16.5196 81.8289 16.7436 81.4689 16.9036C81.1169 17.0636 80.6969 17.1436 80.2089 17.1436Z" fill="#4D3F37"/>
<path d="M74.4394 17.1436C73.9274 17.1436 73.4794 17.0596 73.0954 16.8916C72.7114 16.7236 72.4074 16.4876 72.1834 16.1836C71.9594 15.8796 71.8234 15.5236 71.7754 15.1156H72.9994C73.0394 15.3076 73.1154 15.4836 73.2274 15.6436C73.3474 15.8036 73.5074 15.9316 73.7074 16.0276C73.9154 16.1236 74.1594 16.1716 74.4394 16.1716C74.7034 16.1716 74.9194 16.1356 75.0874 16.0636C75.2634 15.9836 75.3914 15.8796 75.4714 15.7516C75.5514 15.6156 75.5914 15.4716 75.5914 15.3196C75.5914 15.0956 75.5354 14.9276 75.4234 14.8156C75.3194 14.6956 75.1594 14.6036 74.9434 14.5396C74.7354 14.4676 74.4834 14.4036 74.1874 14.3476C73.9074 14.2996 73.6354 14.2356 73.3714 14.1556C73.1154 14.0676 72.8834 13.9596 72.6754 13.8316C72.4754 13.7036 72.3154 13.5436 72.1954 13.3516C72.0754 13.1516 72.0154 12.9076 72.0154 12.6196C72.0154 12.2756 72.1074 11.9676 72.2914 11.6956C72.4754 11.4156 72.7354 11.1996 73.0714 11.0476C73.4154 10.8876 73.8194 10.8076 74.2834 10.8076C74.9554 10.8076 75.4954 10.9676 75.9034 11.2876C76.3114 11.6076 76.5514 12.0596 76.6234 12.6436H75.4594C75.4274 12.3716 75.3074 12.1636 75.0994 12.0196C74.8914 11.8676 74.6154 11.7916 74.2714 11.7916C73.9274 11.7916 73.6634 11.8596 73.4794 11.9956C73.2954 12.1316 73.2034 12.3116 73.2034 12.5356C73.2034 12.6796 73.2554 12.8076 73.3594 12.9196C73.4634 13.0316 73.6154 13.1276 73.8154 13.2076C74.0234 13.2796 74.2754 13.3476 74.5714 13.4116C74.9954 13.4916 75.3754 13.5916 75.7114 13.7116C76.0474 13.8316 76.3154 14.0076 76.5154 14.2396C76.7154 14.4716 76.8154 14.8036 76.8154 15.2356C76.8234 15.6116 76.7274 15.9436 76.5274 16.2316C76.3354 16.5196 76.0594 16.7436 75.6994 16.9036C75.3474 17.0636 74.9274 17.1436 74.4394 17.1436Z" fill="#4D3F37"/>
<path d="M69.5433 16.9998V10.9518H70.7433V16.9998H69.5433ZM70.1553 9.8118C69.9233 9.8118 69.7313 9.7398 69.5793 9.5958C69.4353 9.4518 69.3633 9.2678 69.3633 9.0438C69.3633 8.8278 69.4353 8.6518 69.5793 8.5158C69.7313 8.3718 69.9233 8.2998 70.1553 8.2998C70.3793 8.2998 70.5673 8.3718 70.7193 8.5158C70.8713 8.6518 70.9473 8.8278 70.9473 9.0438C70.9473 9.2678 70.8713 9.4518 70.7193 9.5958C70.5673 9.7398 70.3793 9.8118 70.1553 9.8118Z" fill="#4D3F37"/>
<path d="M65.1445 17.1436C64.6485 17.1436 64.2365 17.0596 63.9085 16.8916C63.5805 16.7236 63.3365 16.4996 63.1765 16.2196C63.0165 15.9316 62.9365 15.6236 62.9365 15.2956C62.9365 14.8956 63.0405 14.5556 63.2485 14.2756C63.4565 13.9876 63.7525 13.7676 64.1365 13.6156C64.5205 13.4636 64.9805 13.3876 65.5165 13.3876H67.0885C67.0885 13.0356 67.0365 12.7436 66.9325 12.5116C66.8285 12.2796 66.6725 12.1076 66.4645 11.9956C66.2645 11.8756 66.0085 11.8156 65.6965 11.8156C65.3365 11.8156 65.0285 11.9036 64.7725 12.0796C64.5165 12.2476 64.3565 12.4996 64.2925 12.8356H63.0925C63.1405 12.4116 63.2845 12.0516 63.5245 11.7556C63.7725 11.4516 64.0885 11.2196 64.4725 11.0596C64.8565 10.8916 65.2645 10.8076 65.6965 10.8076C66.2645 10.8076 66.7405 10.9076 67.1245 11.1076C67.5085 11.3076 67.7965 11.5916 67.9885 11.9596C68.1885 12.3196 68.2885 12.7516 68.2885 13.2556V16.9996H67.2445L67.1485 15.9796C67.0605 16.1396 66.9565 16.2916 66.8365 16.4356C66.7165 16.5796 66.5725 16.7036 66.4045 16.8076C66.2445 16.9116 66.0565 16.9916 65.8405 17.0476C65.6325 17.1116 65.4005 17.1436 65.1445 17.1436ZM65.3725 16.1716C65.6285 16.1716 65.8605 16.1196 66.0685 16.0156C66.2765 15.9116 66.4525 15.7716 66.5965 15.5956C66.7485 15.4116 66.8605 15.2076 66.9325 14.9836C67.0125 14.7516 67.0565 14.5156 67.0645 14.2756V14.2396H65.6365C65.2925 14.2396 65.0125 14.2836 64.7965 14.3716C64.5885 14.4516 64.4365 14.5636 64.3405 14.7076C64.2445 14.8516 64.1965 15.0196 64.1965 15.2116C64.1965 15.4116 64.2405 15.5836 64.3285 15.7276C64.4245 15.8636 64.5605 15.9716 64.7365 16.0516C64.9125 16.1316 65.1245 16.1716 65.3725 16.1716Z" fill="#4D3F37"/>
<path d="M58.5605 17.1441C57.7365 17.1441 57.0245 16.9641 56.4245 16.6041C55.8325 16.2361 55.3725 15.7281 55.0445 15.0801C54.7245 14.4241 54.5645 13.6641 54.5645 12.8001C54.5645 11.9441 54.7245 11.1881 55.0445 10.5321C55.3725 9.87605 55.8325 9.36805 56.4245 9.00805C57.0245 8.64005 57.7365 8.45605 58.5605 8.45605C59.5445 8.45605 60.3405 8.69205 60.9485 9.16405C61.5645 9.63605 61.9565 10.3001 62.1245 11.1561H60.8045C60.6845 10.6601 60.4365 10.2641 60.0605 9.96805C59.6925 9.67205 59.1925 9.52405 58.5605 9.52405C57.9925 9.52405 57.5005 9.65605 57.0845 9.92005C56.6685 10.1841 56.3485 10.5601 56.1245 11.0481C55.9005 11.5361 55.7885 12.1201 55.7885 12.8001C55.7885 13.4801 55.9005 14.0681 56.1245 14.5641C56.3485 15.0521 56.6685 15.4281 57.0845 15.6921C57.5005 15.9481 57.9925 16.0761 58.5605 16.0761C59.1925 16.0761 59.6925 15.9361 60.0605 15.6561C60.4365 15.3681 60.6845 14.9801 60.8045 14.4921H62.1245C61.9565 15.3241 61.5645 15.9761 60.9485 16.4481C60.3405 16.9121 59.5445 17.1441 58.5605 17.1441Z" fill="#4D3F37"/>
<defs>
<clipPath id="clip0_13355_1722">
<rect width="44" height="44" fill="white"/>
</clipPath>
</defs>
</svg>