<?xml version="1.0" encoding="UTF-8"?>
<svg version="1.1" xmlns="http://www.w3.org/2000/svg" width="512" height="512">
<path d="M0 0 C1.45132828 0.00081573 1.45132828 0.00081573 2.93197632 0.00164795 C18.49714543 0.04177553 33.3929744 0.92077136 48.625 4.375 C50.10468262 4.70443604 50.10468262 4.70443604 51.61425781 5.04052734 C80.51222723 11.64564394 108.41992147 23.11969791 132.625 40.375 C133.18461426 40.77315918 133.74422852 41.17131836 134.32080078 41.58154297 C137.8218359 44.09735157 141.23798269 46.70832017 144.625 49.375 C145.58148438 50.12652344 146.53796875 50.87804687 147.5234375 51.65234375 C153.25610208 56.24632838 158.53948558 61.07856563 163.625 66.375 C164.8625 67.6125 164.8625 67.6125 166.125 68.875 C167.3625 70.1125 167.3625 70.1125 168.625 71.375 C169.18445313 71.89964844 169.74390625 72.42429687 170.3203125 72.96484375 C207.93646993 108.98193376 231.56666584 166.36999223 232.91474915 217.97415161 C232.99406333 222.56640864 233.009742 227.15714059 233 231.75 C232.99918427 233.20132828 232.99918427 233.20132828 232.99835205 234.68197632 C232.95822447 250.24714543 232.07922864 265.1429744 228.625 280.375 C228.40537598 281.36145508 228.18575195 282.34791016 227.95947266 283.36425781 C218.73869154 323.70599091 199.50211452 358.20245622 172.625 389.375 C171.97402344 390.15101563 171.32304687 390.92703125 170.65234375 391.7265625 C167.28185761 395.70358259 163.73226205 399.19088282 159.75 402.5546875 C158.32434979 403.77592463 156.92811315 405.032291 155.5625 406.3203125 C141.2890736 419.75121025 124.9014909 430.25444974 107.625 439.375 C106.46629395 439.99133301 106.46629395 439.99133301 105.28417969 440.62011719 C84.18024898 451.67802991 61.08094139 458.52578032 37.625 462.375 C36.54001221 462.55901367 35.45502441 462.74302734 34.3371582 462.93261719 C23.33117985 464.61534632 12.42710829 464.7734688 1.3125 464.75 C0.34245026 464.74945618 -0.62759949 464.74891235 -1.62704468 464.74835205 C-17.21128224 464.708258 -32.1243004 463.83346342 -47.375 460.375 C-48.36145508 460.15537598 -49.34791016 459.93575195 -50.36425781 459.70947266 C-90.70599091 450.48869154 -125.20245622 431.25211452 -156.375 404.375 C-157.15101563 403.72402344 -157.92703125 403.07304687 -158.7265625 402.40234375 C-162.70358259 399.03185761 -166.19088282 395.48226205 -169.5546875 391.5 C-170.77592463 390.07434979 -172.032291 388.67811315 -173.3203125 387.3125 C-186.75121025 373.0390736 -197.25444974 356.6514909 -206.375 339.375 C-206.99133301 338.21629395 -206.99133301 338.21629395 -207.62011719 337.03417969 C-224.01074932 305.75280014 -231.77252841 270.67470218 -231.69067383 235.52270508 C-231.68752306 232.70809787 -231.71104324 229.89455585 -231.73632812 227.08007812 C-231.79682872 210.00802049 -229.76362519 193.38975608 -225.625 176.8125 C-225.23658936 175.24338867 -225.23658936 175.24338867 -224.84033203 173.64257812 C-215.47639605 136.85848532 -196.94076138 102.48064478 -170.75 74.92578125 C-168.35491093 72.42068372 -168.35491093 72.42068372 -166.2890625 69.74609375 C-164.55531186 67.59836592 -162.85352392 65.89733079 -160.75 64.125 C-158.55737492 62.25987083 -156.39482227 60.39370237 -154.30078125 58.41796875 C-140.02913749 44.993159 -123.64677505 34.49306068 -106.375 25.375 C-105.6025293 24.96411133 -104.83005859 24.55322266 -104.03417969 24.12988281 C-71.83253642 7.25705634 -36.11002262 -0.07659362 0 0 Z " fill="#FFC048" transform="translate(255.375,23.625)"/>
<path d="M0 0 C0.71510742 0.10763672 1.43021484 0.21527344 2.16699219 0.32617188 C29.31673728 4.71676564 55.30849888 18.11349784 76 36 C76.55381348 36.47550293 77.10762695 36.95100586 77.67822266 37.44091797 C104.6636204 60.84494447 123.21224893 92.86807523 129.64160156 128.06591797 C129.95549882 129.75985124 130.31398155 131.44539784 130.6796875 133.12890625 C135.17074892 156.23018792 132.80327708 183.83340273 125 206 C124.79004395 206.61713867 124.58008789 207.23427734 124.36376953 207.87011719 C117.38772942 228.26629548 107.20677526 246.73019467 93 263 C92.15695312 263.97710937 91.31390625 264.95421875 90.4453125 265.9609375 C65.18685299 294.71130725 26.32415455 314.86309948 -12 318 C-57.30588036 320.32286056 -99.89184112 308.76991354 -134 278 C-135.39532892 276.83273011 -136.79109595 275.6659835 -138.1875 274.5 C-166.38136159 249.49121901 -185.31955476 210.51437301 -188 173 C-189.70184449 122.23607694 -174.91722424 82.02187836 -141.23828125 44.01171875 C-105.51419435 6.30795953 -50.09447929 -7.59994268 0 0 Z " fill="#FFFEFC" transform="translate(284,98)"/>
<path d="M0 0 C0.85667267 0.00359528 1.71334534 0.00719055 2.59597778 0.01089478 C3.4934523 0.01074875 4.39092682 0.01060272 5.31559753 0.01045227 C8.29702123 0.01115175 11.27838329 0.01894575 14.25979614 0.02676392 C16.32102932 0.02862797 18.38226293 0.03005193 20.4434967 0.03105164 C25.88017999 0.03487779 31.31683675 0.04470891 36.75350952 0.05575562 C42.29661704 0.06596764 47.83972882 0.07054881 53.38284302 0.07559204 C64.26762033 0.08633109 75.15237791 0.10340868 86.03713989 0.12442017 C88.2804337 6.67146648 89.22262091 13.09235039 90.16213989 19.93692017 C90.34389771 21.13123657 90.52565552 22.32555298 90.71292114 23.55606079 C92.47225035 36.34096061 92.03713989 47.83048295 92.03713989 61.12442017 C57.38713989 61.12442017 22.73713989 61.12442017 -12.96286011 61.12442017 C-12.96286011 47.59607549 -12.96286011 47.59607549 -12.41207886 41.76895142 C-12.29203491 40.49422974 -12.17199097 39.21950806 -12.04830933 37.90615845 C-11.91698608 36.59630981 -11.78566284 35.28646118 -11.65036011 33.93692017 C-11.55056854 32.92151154 -11.55056854 32.92151154 -11.44876099 31.8855896 C-8.29979974 0.0147128 -8.29979974 0.0147128 0 0 Z " fill="#FFC048" transform="translate(215.96286010742188,186.87557983398438)"/>
<path d="M0 0 C34.65 0 69.3 0 105 0 C105 11.27210884 105 11.27210884 104.44921875 16.87109375 C104.26915283 18.70945801 104.26915283 18.70945801 104.08544922 20.58496094 C103.95412598 21.85629883 103.82280273 23.12763672 103.6875 24.4375 C103.62097229 25.09286743 103.55444458 25.74823486 103.48590088 26.42346191 C100.46440069 56.07119863 100.46440069 56.07119863 98 61 C67.64 61 37.28 61 6 61 C1.37671493 40.19521717 0 21.56552408 0 0 Z " fill="#FFC048" transform="translate(204,264)"/>
<path d="M0 0 C24.75 0 49.5 0 75 0 C75.99 15.84 75.99 15.84 77 32 C77.83014741 38.60797341 78.65296922 45.14287689 79.66845703 51.71044922 C80.211925 55.46349971 80.60363209 59.22884241 81 63 C74.98292521 64.42894383 69.00041083 65.48304989 62.875 66.3125 C54.01178388 67.56342883 45.32068013 69.3512716 36.60302734 71.37426758 C35.68344238 71.58462646 34.76385742 71.79498535 33.81640625 72.01171875 C33.00631104 72.20209717 32.19621582 72.39247559 31.36157227 72.58862305 C28.83812672 73.02819771 26.55604063 73.16675744 24 73 C21.33230503 70.53118203 19.76135272 67.15385747 18 64 C17.37996094 62.90558594 16.75992188 61.81117188 16.12109375 60.68359375 C11.77128769 52.66937957 8.53876437 44.38345035 5.625 35.75 C5.12444092 34.27841431 5.12444092 34.27841431 4.61376953 32.77709961 C0.95255164 21.52897235 0 11.9515845 0 0 Z " fill="#FFC049" transform="translate(113,264)"/>
<path d="M0 0 C24.75 0 49.5 0 75 0 C75 25.80355247 66.35199329 52.0654637 51 73 C44.21281858 72.54647866 37.74648763 71.3695038 31.11328125 69.890625 C18.83231113 67.18397389 6.4174605 64.97856738 -6 63 C-5.91959473 62.44352783 -5.83918945 61.88705566 -5.75634766 61.3137207 C-4.28090954 51.02038249 -2.88237171 40.7258933 -1.875 30.375 C-1.79975098 29.62774658 -1.72450195 28.88049316 -1.64697266 28.1105957 C-0.77675401 18.75036753 -0.47030242 9.40604837 0 0 Z " fill="#FFC049" transform="translate(324,264)"/>
<path d="M0 0 C1.57171442 2.10181929 2.8815199 4.1130323 4.1875 6.375 C4.57897217 7.04257324 4.97044434 7.71014648 5.3737793 8.39794922 C17.09979118 28.88363444 24 50.28475214 24 74 C-0.42 74 -24.84 74 -50 74 C-52.375 49.8125 -52.375 49.8125 -53.11083984 42.26098633 C-54.64752574 26.57757488 -54.64752574 26.57757488 -57 11 C-56.02877197 10.83918945 -55.05754395 10.67837891 -54.05688477 10.51269531 C-50.36369278 9.89961559 -46.67180803 9.27893574 -42.98022461 8.65625 C-41.3991777 8.39058686 -39.81780807 8.1268355 -38.23608398 7.86523438 C-26.18189726 5.86963517 -11.84817547 0 0 0 Z " fill="#FFC049" transform="translate(375,174)"/>
<path d="M0 0 C1.18207031 0.268125 2.36414063 0.53625 3.58203125 0.8125 C10.26585064 2.29634187 16.97605771 3.64766948 23.6875 5 C25.59692383 5.39058594 25.59692383 5.39058594 27.54492188 5.7890625 C35.03512893 7.29700454 42.50968525 8.57170383 50.08520508 9.5703125 C52.4547782 9.91962557 54.69543846 10.36126421 57 11 C56.85900879 11.98468262 56.71801758 12.96936523 56.57275391 13.98388672 C56.03133369 17.78139725 55.50113022 21.58041558 54.97363281 25.37988281 C54.74765877 26.99714799 54.51898526 28.6140392 54.28710938 30.23046875 C52.19711645 44.82375266 51.13507746 59.24399301 50 74 C25.25 74 0.5 74 -25 74 C-22.67746857 50.77468572 -22.67746857 50.77468572 -20.3125 43.25 C-20.05194824 42.3849585 -19.79139648 41.51991699 -19.52294922 40.62866211 C-15.0156018 26.13808787 -8.41911299 12.62866949 0 0 Z " fill="#FFC048" transform="translate(137,174)"/>
<path d="M0 0 C17.82768583 9.94394803 26.27379245 33.24155788 32.28125 51.65234375 C32.875 53.9375 32.875 53.9375 32.875 56.9375 C24.23182439 57.80327389 15.68322457 58.08480473 7 58.0703125 C5.71367676 58.07126923 4.42735352 58.07222595 3.10205078 58.07321167 C0.39940162 58.07467284 -2.30321414 58.07258563 -5.00585938 58.06787109 C-8.4346279 58.06217479 -11.86331808 58.06546237 -15.29208374 58.07144356 C-18.61139509 58.07596789 -21.93068644 58.0727813 -25.25 58.0703125 C-26.46284668 58.07233673 -27.67569336 58.07436096 -28.92529297 58.07644653 C-36.37355527 58.05623477 -43.71351895 57.6798969 -51.125 56.9375 C-47.64549014 37.10429379 -36.78736674 12.95820744 -20.125 0.9375 C-13.41875742 -3.43613646 -7.13706308 -3.28651993 0 0 Z " fill="#FFC04A" transform="translate(265.125,114.0625)"/>
<path d="M0 0 C3.44226554 0.00532634 6.88439875 0.00004786 10.32666016 -0.00634766 C23.19966262 -0.0098214 36.00062412 0.27762589 48.84619141 1.13037109 C45.2161852 20.6458951 34.5494257 45.44559733 17.84619141 57.13037109 C12.55471969 60.07007761 7.79834515 61.17898878 1.84619141 60.13037109 C-14.21666608 54.06637288 -21.38645694 37.4606714 -28.06396484 22.89208984 C-35.15380859 7.01429362 -35.15380859 7.01429362 -35.15380859 1.13037109 C-23.46136254 -0.15964746 -11.7470015 -0.0215846 0 0 Z " fill="#FFC049" transform="translate(249.15380859375,339.86962890625)"/>
<path d="M0 0 C0.25056152 0.74870361 0.50112305 1.49740723 0.75927734 2.26879883 C6.67775704 19.79474584 13.34801916 36.14095753 23 52 C16.64174603 51.47500655 11.38688919 49.91734666 5.5 47.5 C4.62851318 47.14470215 3.75702637 46.7894043 2.85913086 46.42333984 C-16.07852379 38.50543368 -31.23561679 27.08475287 -46 13 C-46.60585937 12.44183594 -47.21171875 11.88367188 -47.8359375 11.30859375 C-49 10 -49 10 -49 8 C-33.15767613 3.6952582 -16.49081542 0 0 0 Z " fill="#FFC14B" transform="translate(198,343)"/>
<path d="M0 0 C16.66365225 0.86758692 32.84730403 3.92563239 49 8 C41.71185439 25.35464507 15.62459112 38.6615068 -0.80053711 45.55297852 C-8.06439673 48.47675485 -15.47712093 50.84335676 -23 53 C-21.74693296 49.65068062 -20.30826333 46.75249836 -18.375 43.75 C-10.09881145 30.15195915 -4.27594679 15.29325115 0 0 Z " fill="#FFC04A" transform="translate(314,343)"/>
<path d="M0 0 C-0.4846875 0.81339844 -0.969375 1.62679687 -1.46875 2.46484375 C-10.80348868 18.32849011 -17.53378929 34.42375146 -23 52 C-32.65187359 51.49734629 -41.93379601 50.33315207 -51.4375 48.5625 C-53.25797852 48.23668945 -53.25797852 48.23668945 -55.11523438 47.90429688 C-60.84177917 46.86054241 -66.44806299 45.75797711 -72 44 C-63.90451403 25.03838045 -34.94957718 11.53921305 -17 4 C-5.90468725 -0.26645701 -5.90468725 -0.26645701 0 0 Z " fill="#FFC04A" transform="translate(221,117)"/>
<path d="M0 0 C5.68437165 0.59716138 10.65504737 2.06585052 16 4.0625 C16.83233154 4.37340576 17.66466309 4.68431152 18.5222168 5.00463867 C37.7196459 12.37470306 53.32921762 23.74718862 68 38 C69.17175781 39.10214844 69.17175781 39.10214844 70.3671875 40.2265625 C72 42 72 42 72 44 C56.1183621 48.170039 39.51507733 52.27384695 23 52 C22.62230469 50.75089844 22.24460937 49.50179687 21.85546875 48.21484375 C18.67521213 38.03466243 14.99983377 28.30580804 10.375 18.6875 C9.69280396 17.26715454 9.69280396 17.26715454 8.99682617 15.81811523 C6.29573416 10.32154215 3.33574908 5.13609019 0 0 Z " fill="#FFC04A" transform="translate(291,117)"/>
</svg>
