<?xml version="1.0" encoding="UTF-8"?>
<svg version="1.1" xmlns="http://www.w3.org/2000/svg" width="512" height="512">
<path d="M0 0 C1.29188232 0.29003906 1.29188232 0.29003906 2.60986328 0.5859375 C16.74990979 3.85426286 29.90542283 8.7789157 43 15 C43.69174316 15.32726074 44.38348633 15.65452148 45.09619141 15.99169922 C59.68057441 23.01974689 72.79098318 32.45074658 84.48828125 43.60546875 C86.54128787 45.56268968 88.62030615 47.39212711 90.8125 49.1875 C120.45416206 74.25849991 136.9832638 115.74108077 143 153 C143 153.99 143 154.98 143 156 C144.23234375 155.97679687 145.4646875 155.95359375 146.734375 155.9296875 C167.08427352 155.65571883 184.17771914 158.70162093 199.5625 173.0625 C211.16096813 185.18725115 218.04745875 201.42277393 218.17700195 218.21435547 C218.18685875 219.27658577 218.18685875 219.27658577 218.19691467 220.36027527 C218.21656326 222.69591401 218.22829726 225.0314884 218.23828125 227.3671875 C218.24235678 228.17132206 218.2464323 228.97545662 218.25063133 229.80395889 C218.27146571 234.0681965 218.28577344 238.33240227 218.29516602 242.59667969 C218.30616789 246.96159758 218.34050232 251.32599689 218.38033772 255.69073296 C218.40673124 259.07979147 218.41487822 262.46873126 218.41844749 265.85788345 C218.42326253 267.46435129 218.43472753 269.07081571 218.45348549 270.67718124 C218.66510389 290.01611901 214.03658991 307.12159606 201 322 C200.46761719 322.61488281 199.93523437 323.22976563 199.38671875 323.86328125 C189.17140453 334.85876266 175.49389551 340.43188604 160.64363098 341.10714722 C158.05371316 341.16389294 155.46551132 341.19083859 152.875 341.203125 C151.45550049 341.21167511 151.45550049 341.21167511 150.00732422 341.22039795 C148.0172638 341.22979354 146.0271882 341.23636011 144.03710938 341.24023438 C141.00883845 341.24997158 137.98123805 341.2810595 134.953125 341.3125 C133.01042065 341.31902855 131.06771151 341.3242796 129.125 341.328125 C128.22894043 341.3404718 127.33288086 341.3528186 126.40966797 341.36553955 C119.8132319 341.34237179 114.10530414 340.43988182 108.7578125 336.23828125 C108.21898437 335.60277344 107.68015625 334.96726562 107.125 334.3125 C106.57070313 333.68988281 106.01640625 333.06726563 105.4453125 332.42578125 C100.97992113 324.93116493 101.70840691 316.16305568 101.7253418 307.74047852 C101.72098848 306.30564103 101.71580327 304.87080587 101.70985413 303.43597412 C101.69652029 299.55784163 101.69587911 295.67980693 101.69841743 291.80165601 C101.69949084 288.55625633 101.69459438 285.31087613 101.689812 282.06548065 C101.6787365 274.40553658 101.67826855 266.74564155 101.68432617 259.08569336 C101.69036657 251.20014305 101.67804883 243.31477114 101.6567561 235.42925125 C101.63910866 228.64258205 101.63314364 221.85596947 101.63639385 215.06927818 C101.63820165 211.02308574 101.63562085 206.97702061 101.62167931 202.93084908 C101.60905404 199.12468377 101.6110891 195.31879559 101.62409019 191.51263428 C101.62644524 190.12154482 101.62375998 188.73043556 101.61546707 187.33936882 C101.51781395 169.67564083 101.51781395 169.67564083 107.25 163.625 C110.21563122 159.17655317 108.96929886 155.07017866 108 150 C102.71203787 123.91858871 90.8997669 101.32530473 74 81 C73.34902344 80.2059375 72.69804687 79.411875 72.02734375 78.59375 C68.06953005 73.9056791 63.75294208 69.87217986 59 66 C58.05253906 65.2265625 57.10507812 64.453125 56.12890625 63.65625 C38.33423056 49.4116135 18.18196773 39.34729986 -4 34 C-4.65242676 33.83628906 -5.30485352 33.67257813 -5.97705078 33.50390625 C-26.55316073 28.55295561 -51.50276869 28.85670857 -72 34 C-72.68980957 34.16628906 -73.37961914 34.33257812 -74.09033203 34.50390625 C-103.32937887 41.73499638 -131.89998775 58.50458744 -151 82 C-151.76054687 82.92296875 -152.52109375 83.8459375 -153.3046875 84.796875 C-168.73310612 103.91569097 -187.56173684 135.28596232 -185 161 C-183.3091666 163.69697131 -183.3091666 163.69697131 -181 166 C-177.24596847 173.38060621 -177.57313581 181.29925163 -177.61181641 189.37304688 C-177.60774435 190.80803322 -177.60239892 192.24301643 -177.59588623 193.67799377 C-177.5822821 197.55198765 -177.5874825 201.42574017 -177.59702349 205.29973793 C-177.60465608 209.3674341 -177.59756453 213.43511057 -177.59286499 217.50280762 C-177.58741787 224.33182457 -177.59457156 231.16074397 -177.60888672 237.98974609 C-177.62521125 245.86794272 -177.619922 253.74590636 -177.6034075 261.62409735 C-177.5897628 268.40654913 -177.58788752 275.18893107 -177.59572351 281.97139215 C-177.60038366 286.01420564 -177.60107078 290.05690986 -177.59111404 294.09971619 C-177.58240304 297.90180726 -177.58854104 301.70360001 -177.60579681 305.5056591 C-177.60973972 306.89513086 -177.60866556 308.28462803 -177.60200882 309.67408943 C-177.55787462 319.82780508 -178.00629318 328.87431212 -185.28515625 336.5625 C-190.03330236 340.54272271 -195.24263509 341.11779663 -201.2734375 341.5703125 C-202.34770996 341.65297363 -203.42198242 341.73563477 -204.52880859 341.82080078 C-205.75204834 341.90950439 -205.75204834 341.90950439 -207 342 C-200.88638515 369.60300382 -193.6427126 395.38428191 -168.72900391 411.91650391 C-153.99656913 421.14871875 -138.4091894 425.99668454 -121.0078125 426.31640625 C-119.58890213 426.3475779 -119.58890213 426.3475779 -118.1413269 426.37937927 C-115.13595459 426.44447585 -112.13049899 426.50357336 -109.125 426.5625 C-107.08072074 426.6057232 -105.03644974 426.64933868 -102.9921875 426.69335938 C-97.99487584 426.8001161 -92.99748084 426.90149471 -88 427 C-87.8659375 426.23300781 -87.731875 425.46601563 -87.59375 424.67578125 C-85.96820394 417.35012961 -79.78333834 412.3136451 -74 408 C-66.40887108 403.91031431 -57.91217204 403.84305452 -49.48046875 403.83203125 C-48.13254997 403.82703865 -48.13254997 403.82703865 -46.75740051 403.82194519 C-44.86390694 403.81690398 -42.97040457 403.81453599 -41.0769043 403.81469727 C-38.20671675 403.81251461 -35.3369164 403.79433937 -32.46679688 403.77539062 C-30.6171888 403.7724552 -28.76757892 403.7704714 -26.91796875 403.76953125 C-26.07284225 403.76234573 -25.22771576 403.75516022 -24.35697937 403.74775696 C-13.06490928 403.79025306 -3.18161433 405.86258854 5.25 413.6875 C12.32374961 421.12258063 14.4035515 429.75846987 14.26953125 439.7734375 C13.46702133 449.38029539 9.19672764 456.70128231 2 463 C-3.9329176 467.07218318 -9.04989798 469.09995486 -16.25244141 469.17700195 C-17.30098297 469.18983719 -18.34952454 469.20267242 -19.42984009 469.21589661 C-21.12359268 469.22697701 -21.12359268 469.22697701 -22.8515625 469.23828125 C-24.0207724 469.246353 -25.1899823 469.25442474 -26.3946228 469.26274109 C-28.87097699 469.27657069 -31.34735016 469.28729786 -33.82373047 469.29516602 C-37.58989168 469.3123399 -41.35516607 469.35623361 -45.12109375 469.40039062 C-47.53124357 469.41052152 -49.94140083 469.41903638 -52.3515625 469.42578125 C-53.46858551 469.44328934 -54.58560852 469.46079742 -55.73648071 469.47883606 C-64.79625004 469.45400599 -72.90951588 467.57844653 -79.8125 461.375 C-80.49957031 460.78460938 -81.18664062 460.19421875 -81.89453125 459.5859375 C-85.00153148 455.76991866 -86.93152301 451.44426447 -89 447 C-90.85794189 446.98598145 -90.85794189 446.98598145 -92.75341797 446.97167969 C-97.43930377 446.9311887 -102.12457283 446.86528074 -106.81005859 446.79248047 C-108.82104446 446.76460795 -110.83213302 446.74322969 -112.84326172 446.72900391 C-142.55737144 446.50648187 -169.43205755 439.10667356 -192 419 C-192.83015625 418.26394531 -193.6603125 417.52789062 -194.515625 416.76953125 C-213.99692866 398.4535203 -223.12184672 370.8543552 -227 345 C-227 343.68 -227 342.36 -227 341 C-227.72703125 341.02320313 -228.4540625 341.04640625 -229.203125 341.0703125 C-248.26604333 341.41246744 -262.14713244 336.30876977 -276.1875 323.3125 C-287.47888825 311.41952139 -294.05082002 295.1415336 -294.17700195 278.78564453 C-294.18357315 278.077491 -294.19014435 277.36933746 -294.19691467 276.63972473 C-294.21656326 274.30408599 -294.22829726 271.9685116 -294.23828125 269.6328125 C-294.24235678 268.82867794 -294.2464323 268.02454338 -294.25063133 267.19604111 C-294.27146571 262.9318035 -294.28577344 258.66759773 -294.29516602 254.40332031 C-294.30616789 250.03840242 -294.34050232 245.67400311 -294.38033772 241.30926704 C-294.40673124 237.92020853 -294.41487822 234.53126874 -294.41844749 231.14211655 C-294.42326253 229.53564871 -294.43472753 227.92918429 -294.45348549 226.32281876 C-294.66540399 206.95645568 -290.01176157 189.92015326 -277 175 C-276.50242187 174.39671875 -276.00484375 173.7934375 -275.4921875 173.171875 C-266.07153742 162.66240606 -251.78558436 157.16352369 -238 156 C-234.66495475 155.89214693 -231.33630312 155.90418822 -228 155.9375 C-227.12988281 155.94201172 -226.25976562 155.94652344 -225.36328125 155.95117188 C-223.24215707 155.9628264 -221.1210689 155.98075643 -219 156 C-218.87044922 154.81470703 -218.87044922 154.81470703 -218.73828125 153.60546875 C-214.92022119 122.95590408 -202.95319383 93.39110682 -184 69 C-183.33484375 68.12472656 -182.6696875 67.24945313 -181.984375 66.34765625 C-174.55166879 56.78484521 -166.40317286 47.65844352 -157 40 C-156.278125 39.39027344 -155.55625 38.78054687 -154.8125 38.15234375 C-112.72419452 3.33257787 -53.70194351 -12.41091598 0 0 Z " fill="#F4B446" transform="translate(294,23)"/>
<path d="M0 0 C20.57224815 -0.46057272 38.15660479 2.58058929 53.7421875 17.12890625 C65.34065563 29.2536574 72.22714625 45.48918018 72.35668945 62.28076172 C72.36326065 62.98891525 72.36983185 63.69706879 72.37660217 64.42668152 C72.39625076 66.76232026 72.40798476 69.09789465 72.41796875 71.43359375 C72.42204428 72.23772831 72.4261198 73.04186287 72.43031883 73.87036514 C72.45115321 78.13460275 72.46546094 82.39880852 72.47485352 86.66308594 C72.48585539 91.02800383 72.52018982 95.39240314 72.56002522 99.75713921 C72.58641874 103.14619772 72.59456572 106.53513751 72.59813499 109.9242897 C72.60295003 111.53075754 72.61441503 113.13722196 72.63317299 114.74358749 C72.84479139 134.08252526 68.21627741 151.18800231 55.1796875 166.06640625 C54.64730469 166.68128906 54.11492187 167.29617188 53.56640625 167.9296875 C43.35109203 178.92516891 29.67358301 184.49829229 14.82331848 185.17355347 C12.23340066 185.23029919 9.64519882 185.25724484 7.0546875 185.26953125 C6.10835449 185.27523132 5.16202148 185.2809314 4.18701172 185.2868042 C2.1969513 185.29619979 0.2068757 185.30276636 -1.78320312 185.30664062 C-4.81147405 185.31637783 -7.83907445 185.34746575 -10.8671875 185.37890625 C-12.80989185 185.3854348 -14.75260099 185.39068585 -16.6953125 185.39453125 C-17.59137207 185.40687805 -18.48743164 185.41922485 -19.41064453 185.4319458 C-26.0070806 185.40877804 -31.71500836 184.50628807 -37.0625 180.3046875 C-37.60132813 179.66917969 -38.14015625 179.03367187 -38.6953125 178.37890625 C-39.24960937 177.75628906 -39.80390625 177.13367188 -40.375 176.4921875 C-44.84039137 168.99757118 -44.11190559 160.22946193 -44.0949707 151.80688477 C-44.09932402 150.37204728 -44.10450923 148.93721212 -44.11045837 147.50238037 C-44.12379221 143.62424788 -44.12443339 139.74621318 -44.12189507 135.86806226 C-44.12082166 132.62266258 -44.12571812 129.37728238 -44.1305005 126.1318869 C-44.141576 118.47194283 -44.14204395 110.8120478 -44.13598633 103.15209961 C-44.12994593 95.2665493 -44.14226367 87.38117739 -44.1635564 79.4956575 C-44.18120384 72.7089883 -44.18716886 65.92237572 -44.18391865 59.13568443 C-44.18211085 55.08949199 -44.18469165 51.04342686 -44.19863319 46.99725533 C-44.21125846 43.19109002 -44.2092234 39.38520184 -44.19622231 35.57904053 C-44.19386726 34.18795107 -44.19655252 32.79684181 -44.20484543 31.40577507 C-44.25416517 22.48470381 -44.03540709 14.1494945 -38.6328125 6.69140625 C-32.12035424 0.61311187 -24.48313853 0.55890052 -16.0078125 0.37890625 C-14.90993408 0.34692139 -13.81205566 0.31493652 -12.6809082 0.28198242 C-8.45427134 0.16806435 -4.2269578 0.09952671 0 0 Z " fill="#F4B446" transform="translate(439.8203125,178.93359375)"/>
<path d="M0 0 C0.86125488 0.19335938 1.72250977 0.38671875 2.60986328 0.5859375 C16.74990979 3.85426286 29.90542283 8.7789157 43 15 C43.69174316 15.32726074 44.38348633 15.65452148 45.09619141 15.99169922 C59.68057441 23.01974689 72.79098318 32.45074658 84.48828125 43.60546875 C86.54128787 45.56268968 88.62030615 47.39212711 90.8125 49.1875 C119.82797868 73.72887227 138.1283485 116.07947625 143 153 C143 154.32 143 155.64 143 157 C142.28457031 157.01981934 141.56914062 157.03963867 140.83203125 157.06005859 C137.5543514 157.15599327 134.27724999 157.26539298 131 157.375 C129.31197266 157.42140625 129.31197266 157.42140625 127.58984375 157.46875 C121.42917826 157.6849137 115.90846723 158.21877091 110 160 C109.86013672 159.31711914 109.72027344 158.63423828 109.57617188 157.93066406 C102.39901668 123.4872424 89.43993865 95.77046658 64 71 C63.26426758 70.23248413 63.26426758 70.23248413 62.51367188 69.44946289 C58.36076725 65.15509237 54.02203118 61.53775149 49.125 58.125 C48.38813965 57.61106689 47.6512793 57.09713379 46.89208984 56.56762695 C21.53307639 39.22792336 -6.76180813 30.77595345 -37.375 30.75 C-38.08931183 30.74932526 -38.80362366 30.74865051 -39.5395813 30.74795532 C-50.6084322 30.76455449 -61.22818515 31.29706992 -72 34 C-72.68980957 34.16628906 -73.37961914 34.33257812 -74.09033203 34.50390625 C-103.32937887 41.73499638 -131.89998775 58.50458744 -151 82 C-151.76054687 82.92296875 -152.52109375 83.8459375 -153.3046875 84.796875 C-171.17804759 106.9454497 -181.77360531 132.92916962 -186 161 C-187.051875 160.51917969 -188.10375 160.03835937 -189.1875 159.54296875 C-194.99498085 157.36516343 -200.86208077 157.43553962 -207 157.3125 C-208.15628906 157.27833984 -209.31257813 157.24417969 -210.50390625 157.20898438 C-213.33584046 157.12706892 -216.16748701 157.05773478 -219 157 C-218.4702803 150.15193685 -217.43534684 143.60934388 -215.8125 136.9375 C-215.59110352 136.02629395 -215.36970703 135.11508789 -215.14160156 134.17626953 C-206.11872653 98.12881411 -186.0872646 63.59364603 -157 40 C-156.27941406 39.3915625 -155.55882812 38.783125 -154.81640625 38.15625 C-112.73424123 3.32963067 -53.69904337 -12.41024573 0 0 Z " fill="#9D9079" transform="translate(294,23)"/>
<path d="M0 0 C6.27 0 12.54 0 19 0 C19.556875 2.289375 20.11375 4.57875 20.6875 6.9375 C21.44520345 9.96174683 22.22174472 12.98098342 23 16 C23.18191895 16.71559082 23.36383789 17.43118164 23.55126953 18.16845703 C29.69848902 41.98275235 40.71997159 60.92226256 62 74 C75.93270992 82.00423177 90.00155465 86.02260464 105.9921875 86.31640625 C107.41109787 86.3475779 107.41109787 86.3475779 108.8586731 86.37937927 C111.86404541 86.44447585 114.86950101 86.50357336 117.875 86.5625 C119.91927926 86.6057232 121.96355026 86.64933868 124.0078125 86.69335938 C129.00512416 86.8001161 134.00251916 86.90149471 139 87 C139.20109375 85.84951172 139.20109375 85.84951172 139.40625 84.67578125 C141.03179606 77.35012961 147.21666166 72.3136451 153 68 C160.59112892 63.91031431 169.08782796 63.84305452 177.51953125 63.83203125 C178.41814377 63.82870285 179.31675629 63.82537445 180.24259949 63.82194519 C182.13609306 63.81690398 184.02959543 63.81453599 185.9230957 63.81469727 C188.79328325 63.81251461 191.6630836 63.79433937 194.53320312 63.77539062 C196.3828112 63.7724552 198.23242108 63.7704714 200.08203125 63.76953125 C200.92715775 63.76234573 201.77228424 63.75516022 202.64302063 63.74775696 C213.93509072 63.79025306 223.81838567 65.86258854 232.25 73.6875 C239.32374961 81.12258063 241.4035515 89.75846987 241.26953125 99.7734375 C240.46702133 109.38029539 236.19672764 116.70128231 229 123 C223.0670824 127.07218318 217.95010202 129.09995486 210.74755859 129.17700195 C209.69901703 129.18983719 208.65047546 129.20267242 207.57015991 129.21589661 C206.44099152 129.22328354 205.31182312 129.23067047 204.1484375 129.23828125 C202.9792276 129.246353 201.8100177 129.25442474 200.6053772 129.26274109 C198.12902301 129.27657069 195.65264984 129.28729786 193.17626953 129.29516602 C189.41010832 129.3123399 185.64483393 129.35623361 181.87890625 129.40039062 C179.46875643 129.41052152 177.05859917 129.41903638 174.6484375 129.42578125 C173.53141449 129.44328934 172.41439148 129.46079742 171.26351929 129.47883606 C162.20374996 129.45400599 154.09048412 127.57844653 147.1875 121.375 C146.50042969 120.78460938 145.81335938 120.19421875 145.10546875 119.5859375 C141.99846852 115.76991866 140.06847699 111.44426447 138 107 C136.76137207 106.9906543 135.52274414 106.98130859 134.24658203 106.97167969 C129.56069623 106.9311887 124.87542717 106.86528074 120.18994141 106.79248047 C118.17895554 106.76460795 116.16786698 106.74322969 114.15673828 106.72900391 C84.44262856 106.50648187 57.56794245 99.10667356 35 79 C34.16984375 78.26394531 33.3396875 77.52789062 32.484375 76.76953125 C13.06575061 58.51245034 3.74914095 30.81645301 0 5 C0 3.35 0 1.7 0 0 Z " fill="#CEB078" transform="translate(67,363)"/>
<path d="M0 0 C0 0.33 0 0.66 0 1 C-3.3 1 -6.6 1 -10 1 C-10 61.72 -10 122.44 -10 185 C-47.18181818 185 -47.18181818 185 -53.2421875 180.23828125 C-53.78101563 179.60277344 -54.31984375 178.96726562 -54.875 178.3125 C-55.42929687 177.68988281 -55.98359375 177.06726563 -56.5546875 176.42578125 C-61.02007887 168.93116493 -60.29159309 160.16305568 -60.2746582 151.74047852 C-60.27901152 150.30564103 -60.28419673 148.87080587 -60.29014587 147.43597412 C-60.30347971 143.55784163 -60.30412089 139.67980693 -60.30158257 135.80165601 C-60.30050916 132.55625633 -60.30540562 129.31087613 -60.310188 126.06548065 C-60.3212635 118.40553658 -60.32173145 110.74564155 -60.31567383 103.08569336 C-60.30963343 95.20014305 -60.32195117 87.31477114 -60.3432439 79.42925125 C-60.36089134 72.64258205 -60.36685636 65.85596947 -60.36360615 59.06927818 C-60.36179835 55.02308574 -60.36437915 50.97702061 -60.37832069 46.93084908 C-60.39094596 43.12468377 -60.3889109 39.31879559 -60.37590981 35.51263428 C-60.37355476 34.12154482 -60.37624002 32.73043556 -60.38453293 31.33936882 C-60.43385267 22.41829756 -60.21509459 14.08308825 -54.8125 6.625 C-48.29922765 0.54594581 -40.66344262 0.49397402 -32.1875 0.3125 C-31.09832275 0.27906494 -30.00914551 0.24562988 -28.88696289 0.21118164 C-19.25855302 -0.05977354 -9.63114587 -0.10331384 0 0 Z " fill="#DA9B31" transform="translate(456,179)"/>
<path d="M0 0 C10.75452344 -0.11536438 21.4995657 -0.01615048 32.25 0.3125 C33.30823975 0.33497803 34.36647949 0.35745605 35.45678711 0.38061523 C43.67977685 0.67005082 49.89394358 2.06355626 56 8 C59.3707339 13.65801762 60.12232841 18.61971646 60.14044189 25.12139893 C60.14615204 26.35214645 60.15186218 27.58289398 60.15774536 28.85093689 C60.15899056 30.2069396 60.16011569 31.56294242 60.16113281 32.91894531 C60.16576444 34.3533389 60.17078956 35.78773125 60.17617798 37.22212219 C60.18927109 41.11280174 60.19574094 45.00346405 60.20018864 48.89416218 C60.20312446 51.3276753 60.20723023 53.76118375 60.21169281 56.19469452 C60.22535983 63.8166318 60.23503028 71.43855838 60.2388947 79.06050706 C60.24337313 87.8439734 60.26091432 96.62728396 60.2898953 105.41070294 C60.31154716 112.21004211 60.32160086 119.00933756 60.32293582 125.80871081 C60.32398137 129.86501994 60.32983575 133.92118246 60.34775543 137.97745514 C60.36429682 141.79587618 60.36636242 145.61404136 60.35761642 149.43248558 C60.35684927 150.82841619 60.36114602 152.22436091 60.37107468 153.62025642 C60.44080673 164.0410361 59.72934468 172.25973836 52.98828125 180.4921875 C41.11543753 189.49595503 22.60343108 185 10 185 C10 124.28 10 63.56 10 1 C6.7 1 3.4 1 0 1 C0 0.67 0 0.34 0 0 Z " fill="#DA9B31" transform="translate(56,179)"/>
<path d="M0 0 C6.27 0 12.54 0 19 0 C19.556875 2.289375 20.11375 4.57875 20.6875 6.9375 C21.44520345 9.96174683 22.22174472 12.98098342 23 16 C23.18191895 16.71559082 23.36383789 17.43118164 23.55126953 18.16845703 C29.69848902 41.98275235 40.71997159 60.92226256 62 74 C75.84607148 81.95445867 89.87396434 86.01708152 105.7734375 86.31640625 C107.1590538 86.3475779 107.1590538 86.3475779 108.57266235 86.37937927 C111.50670344 86.44446119 114.44082962 86.50356643 117.375 86.5625 C119.37110235 86.6057246 121.36719627 86.64934012 123.36328125 86.69335938 C128.24210176 86.80083131 133.12099213 86.90021176 138 87 C138.33 93.27 138.66 99.54 139 106 C132.92009902 106.09282292 126.84274572 106.17215183 120.76269531 106.21972656 C118.70303936 106.23959875 116.64343793 106.2667061 114.58398438 106.30175781 C84.67996217 106.79724356 57.68146168 99.20781234 35 79 C34.16984375 78.26394531 33.3396875 77.52789062 32.484375 76.76953125 C13.06575061 58.51245034 3.74914095 30.81645301 0 5 C0 3.35 0 1.7 0 0 Z " fill="#9D9079" transform="translate(67,363)"/>
</svg>
