<?xml version="1.0" encoding="UTF-8"?>
<svg version="1.1" xmlns="http://www.w3.org/2000/svg" width="512" height="512">
<path d="M0 0 C0.99694036 0.2794279 0.99694036 0.2794279 2.01402092 0.56450081 C4.22042263 1.18554672 6.42230302 1.82129176 8.62451172 2.45703125 C10.21603955 2.9080042 11.80784442 3.3580004 13.39990234 3.80709839 C16.82417251 4.77509444 20.24653454 5.74947729 23.6675415 6.72894287 C29.11367438 8.28808683 34.56374519 9.83311674 40.01464844 11.37548828 C45.74064289 12.99624939 51.46644019 14.61767917 57.19094849 16.24368286 C70.90656197 20.13863276 84.63252921 23.99523302 98.36669922 27.82421875 C99.32294064 28.09081551 100.27918205 28.35741226 101.26440048 28.63208771 C106.94360972 30.21510327 112.62317111 31.79685249 118.3028183 33.3782959 C126.16060238 35.56661955 134.0175801 37.75783676 141.87451172 39.94921875 C142.68583683 40.17546684 143.49716194 40.40171494 144.33307266 40.63481903 C160.5388933 45.1544757 176.73592119 49.70515433 192.92919922 54.26953125 C191.92919922 56.26953125 191.92919922 56.26953125 188.86795044 57.34524536 C187.48201248 57.7437546 186.09348233 58.1333077 184.703125 58.51611328 C183.94701935 58.73098389 183.1909137 58.94585449 182.41189575 59.16723633 C179.90156335 59.8784061 177.38817156 60.57803409 174.87451172 61.27734375 C173.13418477 61.76714915 171.39402352 62.25754365 169.65402222 62.74850464 C166.00183015 63.77720651 162.34819021 64.80053806 158.69335938 65.81982422 C154.00445654 67.12768397 149.31855199 68.44591644 144.63359261 69.76782417 C141.03831889 70.78154622 137.4419049 71.79116911 133.84508896 72.79940414 C132.11682753 73.2841017 130.38883206 73.76974862 128.66110611 74.25635147 C126.24651034 74.93543909 123.830529 75.60934247 121.4140625 76.28173828 C120.69706177 76.48431244 119.98006104 76.6868866 119.24133301 76.89559937 C116.36978964 77.68963475 113.92501083 78.26953125 110.92919922 78.26953125 C110.92919922 109.61953125 110.92919922 140.96953125 110.92919922 173.26953125 C116.53919922 173.92953125 122.14919922 174.58953125 127.92919922 175.26953125 C132.18299115 176.09030472 136.35078804 176.94577776 140.55419922 177.95703125 C141.6430542 178.21540771 142.73190918 178.47378418 143.85375977 178.73999023 C151.53069364 180.60135109 159.15764131 182.62260329 166.74169922 184.83203125 C167.6957666 185.10039795 168.64983398 185.36876465 169.6328125 185.64526367 C178.6414117 188.37595955 182.59657854 193.89658543 187.86669922 201.33203125 C188.42228516 202.10844971 188.97787109 202.88486816 189.55029297 203.68481445 C195.52354893 212.05387272 201.41174001 220.48354865 207.28271484 228.92456055 C208.99332768 231.44088977 208.99332768 231.44088977 211.47665405 234.24171448 C214.80132663 238.93144126 214.73378222 243.45926622 214.81640625 249.05957031 C214.85138844 250.1324936 214.88637062 251.20541689 214.92241287 252.310853 C215.03326592 255.8853596 215.11006639 259.45977159 215.18701172 263.03515625 C215.25933436 265.58109006 215.3338151 268.12696336 215.41030884 270.67277527 C215.56925891 276.11523066 215.71386849 281.55775706 215.84509277 287.00094604 C216.03399439 294.8336446 216.24867737 302.66546432 216.47068405 310.49728715 C216.73764193 319.92127819 216.9997407 329.34538155 217.24694824 338.76991272 C217.26584893 339.49032216 217.28474962 340.21073161 217.30422306 340.95297164 C217.32306773 341.67142188 217.3419124 342.38987212 217.36132812 343.13009357 C217.80239595 359.94269142 218.30210611 376.75278568 218.84326172 393.5625 C218.91581311 395.833565 218.98829323 398.10463227 219.06069946 400.3757019 C219.33124321 408.85268609 219.60228026 417.32965327 219.87652588 425.80651855 C220.61163471 448.63624981 221.13952389 471.42649175 220.92919922 494.26953125 C215.94793385 492.32579199 211.24699338 489.93206023 206.51513672 487.45507812 C196.03523085 482.1021066 185.0866021 478.49601389 173.67919922 475.70703125 C171.86826782 475.26097534 171.86826782 475.26097534 170.02075195 474.8059082 C162.05506385 472.89607943 154.07788364 471.26478897 145.99169922 469.95703125 C145.08452148 469.80999756 144.17734375 469.66296387 143.24267578 469.51147461 C126.78674158 467.03730032 110.33182942 465.91425713 93.69970703 465.95385742 C90.92945372 465.95703096 88.1602607 465.93336386 85.39013672 465.90820312 C64.91144258 465.83559245 39.51963829 466.6524436 22.92919922 480.26953125 C22.59919922 480.59953125 22.26919922 480.92953125 21.92919922 481.26953125 C19.78359513 481.39016205 17.63398115 481.43981009 15.48510742 481.46240234 C14.81184921 481.47057983 14.138591 481.47875732 13.44493103 481.48718262 C11.20662331 481.51208557 8.96837941 481.52856861 6.72998047 481.54296875 C5.96610708 481.54829243 5.2022337 481.5536161 4.41521263 481.5591011 C0.36885963 481.58585926 -3.67746229 481.60522193 -7.72387695 481.61962891 C-11.89935737 481.63624612 -16.07404374 481.68099042 -20.24922466 481.73200035 C-23.46207047 481.76570852 -26.67472912 481.77721041 -29.88773537 481.78285599 C-31.4263087 481.78956317 -32.96486995 481.80477165 -34.5032711 481.8287468 C-36.6627425 481.86046921 -38.82009184 481.86042573 -40.97973633 481.85302734 C-42.20693893 481.8611142 -43.43414154 481.86920105 -44.6985321 481.87753296 C-49.18579137 481.06850451 -50.77655769 479.36962268 -54.07080078 476.26953125 C-68.57361496 467.9338016 -88.12004675 466.15404402 -104.59033203 466.06640625 C-105.47825439 466.05934662 -106.36617676 466.05228699 -107.28100586 466.04501343 C-144.83446648 465.81480221 -182.35904447 468.71615835 -218.07080078 481.26953125 C-219.10527344 481.63280518 -219.10527344 481.63280518 -220.16064453 482.00341797 C-228.19800977 484.8901588 -235.53325479 488.43235682 -242.77783203 492.94921875 C-245.07080078 494.26953125 -245.07080078 494.26953125 -247.07080078 494.26953125 C-247.45672793 454.75322484 -246.061052 415.2171232 -245.00629902 375.71994591 C-244.93545752 373.05792974 -244.86469678 370.39591173 -244.79418945 367.73388672 C-244.76790305 366.74192991 -244.76790305 366.74192991 -244.74108561 365.72993357 C-244.45766996 354.98424627 -244.22076869 344.23801363 -244.00114927 333.49085431 C-243.7731402 322.38049487 -243.49629224 311.2719996 -243.1771819 300.16386855 C-243.00028741 293.95658708 -242.8444386 287.75050328 -242.74166298 281.54151535 C-242.64434838 275.70952823 -242.48722688 269.88208194 -242.28601074 264.05278397 C-242.22284161 261.92905795 -242.18056978 259.80457767 -242.16209984 257.67999268 C-242.0132508 242.53377103 -238.52300207 233.6234225 -228.62386072 222.11987042 C-226.38770623 219.45568204 -224.46285192 216.64051049 -222.51220703 213.76171875 C-221.85929687 212.818125 -221.20638672 211.87453125 -220.53369141 210.90234375 C-219.9065625 209.99226562 -219.27943359 209.0821875 -218.63330078 208.14453125 C-216.70447132 205.34725344 -214.77338424 202.5533266 -212.81054688 199.77978516 C-211.71891768 198.20468954 -210.66754429 196.60007738 -209.67871094 194.95849609 C-205.56905735 188.51452349 -200.50395466 187.06436434 -193.32080078 185.14453125 C-191.61597534 184.65605713 -191.61597534 184.65605713 -189.87670898 184.15771484 C-151.10720749 173.26953125 -151.10720749 173.26953125 -133.07080078 173.26953125 C-133.07080078 141.91953125 -133.07080078 110.56953125 -133.07080078 78.26953125 C-136.37080078 77.60953125 -139.67080078 76.94953125 -143.07080078 76.26953125 C-146.23090112 75.44573737 -149.3696313 74.59970883 -152.50830078 73.703125 C-153.35505371 73.46417007 -154.20180664 73.22521515 -155.07421875 72.97901917 C-156.84263589 72.47911806 -158.61053694 71.9773878 -160.37792969 71.47387695 C-163.0906985 70.701365 -165.80520736 69.93521849 -168.52001953 69.16992188 C-170.24538444 68.68135844 -171.97064864 68.19243919 -173.69580078 67.703125 C-174.9128772 67.35936073 -174.9128772 67.35936073 -176.15454102 67.00865173 C-181.83878953 65.38553687 -181.83878953 65.38553687 -184.07080078 64.26953125 C-184.06191833 65.15600845 -184.05303589 66.04248566 -184.04388428 66.95582581 C-183.96359735 75.32707782 -183.90276481 83.69819974 -183.86355209 92.06974888 C-183.84271433 96.37324568 -183.814467 100.67642323 -183.76904297 104.97973633 C-183.72544828 109.13595131 -183.70163502 113.29186001 -183.69129181 117.44828606 C-183.68392477 119.03067786 -183.66953859 120.61305368 -183.64788055 122.19531441 C-183.61866387 124.41906533 -183.61485215 126.64156527 -183.61669922 128.86547852 C-183.60781677 130.1290065 -183.59893433 131.39253448 -183.58978271 132.6943512 C-184.23433957 137.48503783 -185.87289314 141.41620638 -189.68597031 144.63147831 C-193.48558931 147.23060836 -197.23398133 147.94477529 -201.79345703 147.71875 C-205.81979534 146.92453232 -209.13481878 145.12580333 -212.07080078 142.26953125 C-214.98019625 137.51666899 -215.49025965 133.51101181 -215.41137695 128.06103516 C-215.41203407 126.86003174 -215.41203407 126.86003174 -215.41270447 125.63476562 C-215.41062499 123.00495479 -215.38733418 120.37579234 -215.36376953 117.74609375 C-215.35817058 115.91621245 -215.35390189 114.08632663 -215.35090637 112.25643921 C-215.33948119 107.45265166 -215.31003409 102.64913852 -215.27679443 97.84545898 C-215.24604332 92.93867708 -215.23239027 88.0318506 -215.21728516 83.125 C-215.18516212 73.50639021 -215.13399397 63.8879836 -215.07080078 54.26953125 C-186.53239902 46.22365273 -157.98924047 38.19491362 -129.43017578 30.22265625 C-128.51712929 29.96776932 -127.60408279 29.71288239 -126.66336823 29.45027161 C-116.47622524 26.60669995 -106.28818529 23.76636716 -96.09912109 20.9296875 C-92.48545483 19.92339056 -88.87185287 18.91686307 -85.25830078 17.91015625 C-84.38057762 17.66565231 -83.50285446 17.42114838 -82.59853363 17.16923523 C-71.30861281 14.02312839 -60.02829468 10.84562753 -48.75830078 7.62890625 C-46.39620502 6.95719441 -44.03406519 6.2856375 -41.671875 5.61425781 C-37.50352159 4.4294585 -33.33912813 3.23199309 -29.17675781 2.02636719 C-27.37336365 1.5131304 -25.56982605 1.00039721 -23.76611328 0.48828125 C-22.98703613 0.25832458 -22.20795898 0.02836792 -21.40527344 -0.20855713 C-20.31569336 -0.51427643 -20.31569336 -0.51427643 -19.20410156 -0.82617188 C-18.59301544 -1.00249146 -17.98192932 -1.17881104 -17.35232544 -1.36047363 C-11.20231339 -2.3578218 -5.94847495 -1.69545782 0 0 Z " fill="#FEEEAD" transform="translate(269.07080078125,9.73046875)"/>
<path d="M0 0 C0.99694036 0.2794279 0.99694036 0.2794279 2.01402092 0.56450081 C4.22042263 1.18554672 6.42230302 1.82129176 8.62451172 2.45703125 C10.21603955 2.9080042 11.80784442 3.3580004 13.39990234 3.80709839 C16.82417251 4.77509444 20.24653454 5.74947729 23.6675415 6.72894287 C29.11367438 8.28808683 34.56374519 9.83311674 40.01464844 11.37548828 C45.74064289 12.99624939 51.46644019 14.61767917 57.19094849 16.24368286 C70.90656197 20.13863276 84.63252921 23.99523302 98.36669922 27.82421875 C99.32294064 28.09081551 100.27918205 28.35741226 101.26440048 28.63208771 C106.94360972 30.21510327 112.62317111 31.79685249 118.3028183 33.3782959 C126.16060238 35.56661955 134.0175801 37.75783676 141.87451172 39.94921875 C142.68583683 40.17546684 143.49716194 40.40171494 144.33307266 40.63481903 C160.5388933 45.1544757 176.73592119 49.70515433 192.92919922 54.26953125 C191.92919922 56.26953125 191.92919922 56.26953125 188.86795044 57.34524536 C187.48201248 57.7437546 186.09348233 58.1333077 184.703125 58.51611328 C183.94701935 58.73098389 183.1909137 58.94585449 182.41189575 59.16723633 C179.90156335 59.8784061 177.38817156 60.57803409 174.87451172 61.27734375 C173.13418477 61.76714915 171.39402352 62.25754365 169.65402222 62.74850464 C166.00183015 63.77720651 162.34819021 64.80053806 158.69335938 65.81982422 C154.00445654 67.12768397 149.31855199 68.44591644 144.63359261 69.76782417 C141.03831889 70.78154622 137.4419049 71.79116911 133.84508896 72.79940414 C132.11682753 73.2841017 130.38883206 73.76974862 128.66110611 74.25635147 C126.24651034 74.93543909 123.830529 75.60934247 121.4140625 76.28173828 C120.69706177 76.48431244 119.98006104 76.6868866 119.24133301 76.89559937 C116.36978964 77.68963475 113.92501083 78.26953125 110.92919922 78.26953125 C110.93141983 79.4041832 110.93364044 80.53883514 110.93592834 81.70787048 C110.95639454 92.5164475 110.97128262 103.32502048 110.98101139 114.13361263 C110.98618151 119.68747212 110.99316933 125.24131569 111.00463867 130.79516602 C111.09973328 178.03262046 111.09973328 178.03262046 109.92919922 198.26953125 C87.32021119 202.04624744 64.80202921 205.51952165 41.92919922 207.26953125 C41.26482849 207.32067078 40.60045776 207.3718103 39.91595459 207.42449951 C16.25078472 209.22562005 -7.34487284 209.63818412 -31.07080078 209.26953125 C-32.10849609 209.2555127 -33.14619141 209.24149414 -34.21533203 209.22705078 C-63.14989294 208.71933508 -92.57003261 205.1149628 -121.07080078 200.26953125 C-122.10237305 200.09583008 -123.13394531 199.92212891 -124.19677734 199.74316406 C-125.1993457 199.56881836 -126.20191406 199.39447266 -127.23486328 199.21484375 C-128.13930176 199.05773926 -129.04374023 198.90063477 -129.97558594 198.73876953 C-132.07080078 198.26953125 -132.07080078 198.26953125 -133.07080078 197.26953125 C-133.16665077 195.72599994 -133.19268148 194.17808017 -133.1910553 192.63157654 C-133.19311729 191.12758804 -133.19311729 191.12758804 -133.19522095 189.59321594 C-133.18982803 187.92950203 -133.18982803 187.92950203 -133.18432617 186.23217773 C-133.1844722 185.07135681 -133.18461823 183.91053589 -133.18476868 182.71453857 C-133.18406895 178.85654873 -133.17627376 174.99860647 -133.16845703 171.140625 C-133.16659306 168.47404397 -133.1651199 165.80746561 -133.16416931 163.1408844 C-133.16105626 156.82624245 -133.15284322 150.51161774 -133.14281982 144.1969834 C-133.13165788 137.00967492 -133.12614803 129.82236564 -133.12112439 122.63505065 C-133.11066059 107.84653536 -133.09306165 93.0580336 -133.07080078 78.26953125 C-134.07210777 78.07421609 -134.07210777 78.07421609 -135.09364319 77.87495518 C-135.97950607 77.70034732 -136.86536896 77.52573946 -137.77807617 77.34584045 C-139.08875816 77.0886503 -139.08875816 77.0886503 -140.42591858 76.82626438 C-144.50618146 75.96739153 -148.50055427 74.84796703 -152.50830078 73.703125 C-153.35505371 73.46417007 -154.20180664 73.22521515 -155.07421875 72.97901917 C-156.84263589 72.47911806 -158.61053694 71.9773878 -160.37792969 71.47387695 C-163.0906985 70.701365 -165.80520736 69.93521849 -168.52001953 69.16992188 C-170.24538444 68.68135844 -171.97064864 68.19243919 -173.69580078 67.703125 C-174.9128772 67.35936073 -174.9128772 67.35936073 -176.15454102 67.00865173 C-181.83878953 65.38553687 -181.83878953 65.38553687 -184.07080078 64.26953125 C-184.06191833 65.15600845 -184.05303589 66.04248566 -184.04388428 66.95582581 C-183.96359735 75.32707782 -183.90276481 83.69819974 -183.86355209 92.06974888 C-183.84271433 96.37324568 -183.814467 100.67642323 -183.76904297 104.97973633 C-183.72544828 109.13595131 -183.70163502 113.29186001 -183.69129181 117.44828606 C-183.68392477 119.03067786 -183.66953859 120.61305368 -183.64788055 122.19531441 C-183.61866387 124.41906533 -183.61485215 126.64156527 -183.61669922 128.86547852 C-183.60781677 130.1290065 -183.59893433 131.39253448 -183.58978271 132.6943512 C-184.23433957 137.48503783 -185.87289314 141.41620638 -189.68597031 144.63147831 C-193.48558931 147.23060836 -197.23398133 147.94477529 -201.79345703 147.71875 C-205.81979534 146.92453232 -209.13481878 145.12580333 -212.07080078 142.26953125 C-214.98019625 137.51666899 -215.49025965 133.51101181 -215.41137695 128.06103516 C-215.41203407 126.86003174 -215.41203407 126.86003174 -215.41270447 125.63476562 C-215.41062499 123.00495479 -215.38733418 120.37579234 -215.36376953 117.74609375 C-215.35817058 115.91621245 -215.35390189 114.08632663 -215.35090637 112.25643921 C-215.33948119 107.45265166 -215.31003409 102.64913852 -215.27679443 97.84545898 C-215.24604332 92.93867708 -215.23239027 88.0318506 -215.21728516 83.125 C-215.18516212 73.50639021 -215.13399397 63.8879836 -215.07080078 54.26953125 C-186.53239902 46.22365273 -157.98924047 38.19491362 -129.43017578 30.22265625 C-128.51712929 29.96776932 -127.60408279 29.71288239 -126.66336823 29.45027161 C-116.47622524 26.60669995 -106.28818529 23.76636716 -96.09912109 20.9296875 C-92.48545483 19.92339056 -88.87185287 18.91686307 -85.25830078 17.91015625 C-84.38057762 17.66565231 -83.50285446 17.42114838 -82.59853363 17.16923523 C-71.30861281 14.02312839 -60.02829468 10.84562753 -48.75830078 7.62890625 C-46.39620502 6.95719441 -44.03406519 6.2856375 -41.671875 5.61425781 C-37.50352159 4.4294585 -33.33912813 3.23199309 -29.17675781 2.02636719 C-27.37336365 1.5131304 -25.56982605 1.00039721 -23.76611328 0.48828125 C-22.98703613 0.25832458 -22.20795898 0.02836792 -21.40527344 -0.20855713 C-20.31569336 -0.51427643 -20.31569336 -0.51427643 -19.20410156 -0.82617188 C-18.59301544 -1.00249146 -17.98192932 -1.17881104 -17.35232544 -1.36047363 C-11.20231339 -2.3578218 -5.94847495 -1.69545782 0 0 Z " fill="#F89255" transform="translate(269.07080078125,9.73046875)"/>
<path d="M0 0 C0.495 11.88 0.495 11.88 1 24 C20.40070738 27.30881877 39.7844433 30.31314457 59.375 32.25 C60.11748993 32.3264978 60.85997986 32.40299561 61.62496948 32.48181152 C81.03186372 34.45556699 100.51797887 35.02589894 120 36 C120 125.1 120 214.2 120 306 C117.40408864 303.40408864 115.62538192 300.9445584 113.68994141 297.859375 C101.89500397 279.17141175 83.98385144 269.41874611 62.84423828 264.22460938 C49.22557745 261.17814489 35.86261151 258.88121935 21.89453125 258.76171875 C20.94521729 258.75187958 19.99590332 258.74204041 19.01782227 258.73190308 C-11.90899862 258.47776956 -40.31934619 261.04794485 -70.22460938 269.30737305 C-73.13459967 270.03359072 -76.0366433 270.54428823 -79 271 C-79.24151916 249.03205907 -78.6111162 227.13050764 -77.83224487 205.17919922 C-77.47210947 195.02227738 -77.1312541 184.86470119 -76.79296875 174.70703125 C-76.7584794 173.67428699 -76.72399006 172.64154274 -76.68845558 171.5775032 C-75.96732145 149.88800039 -75.43147443 128.19568247 -74.9375 106.5 C-74.24843033 76.31884733 -73.31910941 46.16137313 -72 16 C-58.84057985 11.7393814 -45.67272522 7.7290414 -32.1875 4.625 C-31.15898926 4.38700684 -30.13047852 4.14901367 -29.07080078 3.90380859 C-19.38576062 1.73752078 -9.94532958 0 0 0 Z " fill="#FEF4C9" transform="translate(136,183)"/>
<path d="M0 0 C0.33 0 0.66 0 1 0 C1.32991109 20.83769217 0.70980256 41.59753949 -0.20068359 62.41479492 C-0.77947437 76.00465457 -1.1297328 89.5876235 -1.38081741 103.18672752 C-1.75710447 123.54817742 -2.29790746 143.90016155 -2.97265625 164.25390625 C-2.99457181 164.91534386 -3.01648736 165.57678146 -3.03906703 166.25826263 C-3.30637342 174.31250673 -3.57890354 182.36657 -3.8535561 190.42056656 C-4.09079621 197.3814656 -4.32417009 204.342493 -4.55735409 211.3035289 C-5.03419393 225.53582331 -5.51546155 239.76796562 -6 254 C-4.67602455 253.5902594 -4.67602455 253.5902594 -3.32530212 253.17224121 C-1.58054344 252.63355408 -1.58054344 252.63355408 0.19946289 252.08398438 C1.35023819 251.72832397 2.50101349 251.37266357 3.68666077 251.00622559 C29.40199372 243.19675479 55.30883266 240.63362665 82.0625 240.5625 C83.53731842 240.5532399 83.53731842 240.5532399 85.04193115 240.54379272 C116.23190881 240.41774564 149.87861519 245.06868608 175 265 C175.99193359 265.77537109 175.99193359 265.77537109 177.00390625 266.56640625 C183.44059414 272.28624723 187.8166395 280.56759091 192 288 C192 288.66 192 289.32 192 290 C192.66 290 193.32 290 194 290 C194.23589844 289.15179688 194.47179687 288.30359375 194.71484375 287.4296875 C196.16160267 283.5687321 198.15870218 280.43471519 200.5625 277.125 C201.00940186 276.50931152 201.45630371 275.89362305 201.91674805 275.25927734 C214.33999063 258.57921168 233.24979134 250.33984387 252.875 245.25 C253.62789307 245.05124268 254.38078613 244.85248535 255.15649414 244.64770508 C270.65461001 240.86834851 286.50846437 240.56040479 302.375 240.5625 C303.39591736 240.56110016 304.41683472 240.55970032 305.46868896 240.55825806 C333.18778053 240.58927582 361.36276031 243.69574217 387.76513672 252.57568359 C388.5621701 252.84319427 389.35920349 253.11070496 390.1803894 253.38632202 C390.7808609 253.58883575 391.3813324 253.79134949 392 254 C391.98077295 253.43231148 391.96154591 252.86462296 391.94173622 252.27973175 C390.43916617 207.8362106 389.09195632 163.38858469 387.79662108 118.93858719 C387.51333956 109.2179618 387.22736014 99.49742075 386.93909872 89.77694178 C386.71182553 82.10756987 386.48693927 74.43813022 386.26382411 66.76863623 C386.13229169 62.2488958 385.99984338 57.72918741 385.86484909 53.20954895 C384.80558081 17.69264074 384.80558081 17.69264074 385 0 C387.63853097 2.59768205 389.92663118 5.11883638 392.03125 8.16796875 C392.5888501 8.97081299 393.1464502 9.77365723 393.72094727 10.60083008 C394.60157837 11.88123169 394.60157837 11.88123169 395.5 13.1875 C396.74837479 14.98720335 397.99707867 16.78667846 399.24609375 18.5859375 C399.87241699 19.49053711 400.49874023 20.39513672 401.14404297 21.32714844 C403.92871058 25.33748007 406.74365907 29.32614738 409.5625 33.3125 C410.03816406 33.98627686 410.51382812 34.66005371 411.00390625 35.35424805 C413.10194907 38.32436441 415.16143961 41.18805971 417.5349884 43.95298767 C420.86657293 48.65420957 420.80438021 53.17598935 420.88720703 58.79003906 C420.92218922 59.86296235 420.9571714 60.93588564 420.99321365 62.04132175 C421.10406671 65.61582835 421.18086717 69.19024034 421.2578125 72.765625 C421.33013514 75.31155881 421.40461588 77.85743211 421.48110962 80.40324402 C421.64005969 85.84569941 421.78466927 91.28822581 421.91589355 96.73141479 C422.10479518 104.56411335 422.31947815 112.39593307 422.54148483 120.2277559 C422.80844271 129.65174694 423.07054148 139.0758503 423.31774902 148.50038147 C423.33664971 149.22079091 423.3555504 149.94120036 423.37502384 150.68344039 C423.40329085 151.76111575 423.40329085 151.76111575 423.43212891 152.86056232 C423.87319673 169.67316017 424.3729069 186.48325443 424.9140625 203.29296875 C424.98661389 205.56403375 425.05909402 207.83510102 425.13150024 210.10617065 C425.40204399 218.58315484 425.67308104 227.06012202 425.94732666 235.5369873 C426.68243549 258.36671856 427.21032468 281.1569605 427 304 C422.01873463 302.05626074 417.31779416 299.66252898 412.5859375 297.18554688 C402.10603163 291.83257535 391.15740288 288.22648264 379.75 285.4375 C377.9390686 284.99144409 377.9390686 284.99144409 376.09155273 284.53637695 C368.12586463 282.62654818 360.14868442 280.99525772 352.0625 279.6875 C351.15532227 279.54046631 350.24814453 279.39343262 349.31347656 279.24194336 C332.85754236 276.76776907 316.4026302 275.64472588 299.77050781 275.68432617 C297.0002545 275.68749971 294.23106149 275.66383261 291.4609375 275.63867188 C270.98224336 275.5660612 245.59043907 276.38291235 229 290 C228.67 290.33 228.34 290.66 228 291 C225.85439591 291.1206308 223.70478193 291.17027884 221.5559082 291.19287109 C220.88264999 291.20104858 220.20939178 291.20922607 219.51573181 291.21765137 C217.27742409 291.24255432 215.03918019 291.25903736 212.80078125 291.2734375 C212.03690786 291.27876118 211.27303448 291.28408485 210.48601341 291.28956985 C206.43966041 291.31632801 202.39333849 291.33569068 198.34692383 291.35009766 C194.17144341 291.36671487 189.99675704 291.41145917 185.82157612 291.4624691 C182.60873031 291.49617727 179.39607166 291.50767916 176.18306541 291.51332474 C174.64449208 291.52003192 173.10593083 291.5352404 171.56752968 291.55921555 C169.40805828 291.59093796 167.25070894 291.59089448 165.09106445 291.58349609 C163.86386185 291.59158295 162.63665924 291.5996698 161.37226868 291.60800171 C156.88500941 290.79897326 155.2942431 289.10009143 152 286 C137.49718582 277.66427035 117.95075403 275.88451277 101.48046875 275.796875 C100.59254639 275.78981537 99.70462402 275.78275574 98.78979492 275.77548218 C61.2363343 275.54527096 23.71175631 278.4466271 -12 291 C-13.03447266 291.36327393 -13.03447266 291.36327393 -14.08984375 291.73388672 C-22.12720899 294.62062755 -29.46245401 298.16282557 -36.70703125 302.6796875 C-39 304 -39 304 -41 304 C-41.38592715 264.48369359 -39.99025122 224.94759195 -38.93549824 185.45041466 C-38.86465674 182.78839849 -38.793896 180.12638048 -38.72338867 177.46435547 C-38.69710227 176.47239866 -38.69710227 176.47239866 -38.67028483 175.46040232 C-38.38686918 164.71471502 -38.14996791 153.96848238 -37.93034849 143.22132306 C-37.70233942 132.11096362 -37.42549146 121.00246835 -37.10638112 109.8943373 C-36.92948663 103.68705583 -36.77363782 97.48097203 -36.6708622 91.2719841 C-36.5735476 85.43999698 -36.4164261 79.61255069 -36.21520996 73.78325272 C-36.15204083 71.6595267 -36.109769 69.53504642 -36.09129906 67.41046143 C-35.94247063 52.26633733 -32.45407789 43.35504525 -22.55590761 31.85318685 C-20.30842508 29.17628943 -18.37040723 26.34723885 -16.40625 23.45703125 C-15.42011719 22.03487305 -15.42011719 22.03487305 -14.4140625 20.58398438 C-13.78242187 19.66939453 -13.15078125 18.75480469 -12.5 17.8125 C-10.00336743 14.2059831 -7.50405011 10.60137092 -5 7 C-4.23623047 5.89664307 -4.23623047 5.89664307 -3.45703125 4.77099609 C-2.33048896 3.16228402 -1.16961608 1.57767244 0 0 Z " fill="#FEE471" transform="translate(63,200)"/>
<path d="M0 0 C0.99694036 0.2794279 0.99694036 0.2794279 2.01402092 0.56450081 C4.22042263 1.18554672 6.42230302 1.82129176 8.62451172 2.45703125 C10.21603955 2.9080042 11.80784442 3.3580004 13.39990234 3.80709839 C16.82417251 4.77509444 20.24653454 5.74947729 23.6675415 6.72894287 C29.11367438 8.28808683 34.56374519 9.83311674 40.01464844 11.37548828 C45.74064289 12.99624939 51.46644019 14.61767917 57.19094849 16.24368286 C70.90656197 20.13863276 84.63252921 23.99523302 98.36669922 27.82421875 C99.32294064 28.09081551 100.27918205 28.35741226 101.26440048 28.63208771 C106.94360972 30.21510327 112.62317111 31.79685249 118.3028183 33.3782959 C126.16060238 35.56661955 134.0175801 37.75783676 141.87451172 39.94921875 C142.68583683 40.17546684 143.49716194 40.40171494 144.33307266 40.63481903 C160.5388933 45.1544757 176.73592119 49.70515433 192.92919922 54.26953125 C191.92919922 56.26953125 191.92919922 56.26953125 188.94197083 57.32505798 C187.58954928 57.7144295 186.23453057 58.0948405 184.87768555 58.46850586 C184.13924911 58.67855759 183.40081268 58.88860931 182.63999939 59.10502625 C180.18254793 59.80181053 177.7220266 60.48700479 175.26123047 61.171875 C173.54725899 61.65450638 171.83344992 62.13771485 170.11979675 62.62147522 C166.513771 63.63761848 162.90628339 64.64833928 159.29760742 65.6550293 C154.70837037 66.93546766 150.12220655 68.22650812 145.53703785 69.52143002 C141.98858655 70.52271881 138.4388685 71.51945313 134.88873863 72.51477242 C133.20023115 72.98847631 131.51202187 73.46324463 129.82413673 73.9391613 C121.00685327 76.42151757 112.22599278 78.69855866 103.24931335 80.54597473 C97.4920457 81.80066309 91.84380245 83.42735192 86.17919922 85.04296875 C84.88926147 85.40770713 83.59921939 85.77207671 82.30908203 86.1361084 C79.58674258 86.90498005 76.86515814 87.67645325 74.14404297 88.449646 C69.87717027 89.66101471 65.60646439 90.85851135 61.33544922 92.05517578 C48.20119761 95.740969 35.09695609 99.48802284 22.05419922 103.48828125 C18.97362733 104.4170439 15.89208779 105.34250442 12.81005859 106.26641846 C10.91615997 106.84369641 9.02658592 107.43539396 7.14208984 108.04266357 C4.53912929 108.88123955 1.92522559 109.66928548 -0.69580078 110.44921875 C-1.41622559 110.6970813 -2.13665039 110.94494385 -2.87890625 111.20031738 C-10.13825865 113.26116596 -16.71826975 110.98459024 -23.73786545 108.94456863 C-26.15840418 108.24418311 -28.5858371 107.57468581 -31.01687622 106.91171265 C-35.60936948 105.65610631 -40.19497091 104.37710605 -44.77896309 103.0908432 C-47.85038918 102.22916711 -50.92264023 101.37048788 -53.99510193 100.51251221 C-62.72059573 98.07534178 -71.44455058 95.63268169 -80.16821289 93.18896484 C-86.57369152 91.39505351 -92.97999333 89.60411071 -99.38720703 87.81640625 C-100.4256822 87.52663973 -101.46415737 87.23687321 -102.53410149 86.93832588 C-117.6157964 82.73521787 -132.73038222 78.70469405 -147.90405273 74.84814453 C-155.2701811 72.97436171 -162.58473262 70.95324653 -169.88330078 68.83203125 C-171.06214844 68.49494141 -172.24099609 68.15785156 -173.45556641 67.81054688 C-181.78623445 65.41181441 -181.78623445 65.41181441 -184.07080078 64.26953125 C-184.06191833 65.15600845 -184.05303589 66.04248566 -184.04388428 66.95582581 C-183.96359735 75.32707782 -183.90276481 83.69819974 -183.86355209 92.06974888 C-183.84271433 96.37324568 -183.814467 100.67642323 -183.76904297 104.97973633 C-183.72544828 109.13595131 -183.70163502 113.29186001 -183.69129181 117.44828606 C-183.68392477 119.03067786 -183.66953859 120.61305368 -183.64788055 122.19531441 C-183.61866387 124.41906533 -183.61485215 126.64156527 -183.61669922 128.86547852 C-183.60781677 130.1290065 -183.59893433 131.39253448 -183.58978271 132.6943512 C-184.23433957 137.48503783 -185.87289314 141.41620638 -189.68597031 144.63147831 C-193.48558931 147.23060836 -197.23398133 147.94477529 -201.79345703 147.71875 C-205.81979534 146.92453232 -209.13481878 145.12580333 -212.07080078 142.26953125 C-214.98019625 137.51666899 -215.49025965 133.51101181 -215.41137695 128.06103516 C-215.41203407 126.86003174 -215.41203407 126.86003174 -215.41270447 125.63476562 C-215.41062499 123.00495479 -215.38733418 120.37579234 -215.36376953 117.74609375 C-215.35817058 115.91621245 -215.35390189 114.08632663 -215.35090637 112.25643921 C-215.33948119 107.45265166 -215.31003409 102.64913852 -215.27679443 97.84545898 C-215.24604332 92.93867708 -215.23239027 88.0318506 -215.21728516 83.125 C-215.18516212 73.50639021 -215.13399397 63.8879836 -215.07080078 54.26953125 C-186.53239902 46.22365273 -157.98924047 38.19491362 -129.43017578 30.22265625 C-128.51712929 29.96776932 -127.60408279 29.71288239 -126.66336823 29.45027161 C-116.47622524 26.60669995 -106.28818529 23.76636716 -96.09912109 20.9296875 C-92.48545483 19.92339056 -88.87185287 18.91686307 -85.25830078 17.91015625 C-84.38057762 17.66565231 -83.50285446 17.42114838 -82.59853363 17.16923523 C-71.30861281 14.02312839 -60.02829468 10.84562753 -48.75830078 7.62890625 C-46.39620502 6.95719441 -44.03406519 6.2856375 -41.671875 5.61425781 C-37.50352159 4.4294585 -33.33912813 3.23199309 -29.17675781 2.02636719 C-27.37336365 1.5131304 -25.56982605 1.00039721 -23.76611328 0.48828125 C-22.98703613 0.25832458 -22.20795898 0.02836792 -21.40527344 -0.20855713 C-20.31569336 -0.51427643 -20.31569336 -0.51427643 -19.20410156 -0.82617188 C-18.59301544 -1.00249146 -17.98192932 -1.17881104 -17.35232544 -1.36047363 C-11.20231339 -2.3578218 -5.94847495 -1.69545782 0 0 Z " fill="#F97430" transform="translate(269.07080078125,9.73046875)"/>
</svg>
