<?xml version="1.0" encoding="UTF-8"?>
<svg version="1.1" xmlns="http://www.w3.org/2000/svg" width="512" height="512">
<path d="M0 0 C83.49 0 166.98 0 253 0 C253 16.83 253 33.66 253 51 C265.38472475 50.88182461 265.38472475 50.88182461 277.76904297 50.72973633 C291.8656613 50.61160376 302.23455263 52.01318562 313 62 C315.49297812 65.15169185 317.31034363 68.36206638 319 72 C319.33773438 72.66128906 319.67546875 73.32257813 320.0234375 74.00390625 C326.64464699 89.52426428 320.65732374 108.63814287 314.9453125 123.4453125 C310.95269344 133.36138577 306.59503296 142.53437587 300 151 C299.59555664 151.5249707 299.19111328 152.04994141 298.77441406 152.59082031 C279.99009711 176.71785496 249.18760006 193.59001354 220 202 C218.68 202 217.36 202 216 202 C215.59587891 203.0828125 215.59587891 203.0828125 215.18359375 204.1875 C210.88474762 214.40257991 203.33105581 222.84359354 196 231 C194.92105469 232.2065625 194.92105469 232.2065625 193.8203125 233.4375 C182.75631873 245.12775757 169.67382363 252.73174486 155 259 C154.16649224 279.51355207 160.34695196 300.89825108 174.25 316.3125 C181.18989023 323.68792817 189.11299857 329.09762378 197.9921875 333.85546875 C203.15986824 336.80124785 205.71771252 339.2942813 208 345 C208 358.53 208 372.06 208 386 C154.21 386 100.42 386 45 386 C45 344 45 344 49 337 C50.74829102 335.52197266 50.74829102 335.52197266 52.50390625 334.6640625 C53.15681641 334.32705322 53.80972656 333.99004395 54.48242188 333.64282227 C55.16884766 333.30694092 55.85527344 332.97105957 56.5625 332.625 C74.36448896 323.22972999 86.33869579 309.25872229 93.3203125 290.44140625 C96.45153958 279.85321987 97.22016036 268.97006129 98 258 C97.3090625 257.89558594 96.618125 257.79117187 95.90625 257.68359375 C71.75717181 252.00336703 51.53966207 227.990564 39 208 C38.33677734 206.60201172 38.33677734 206.60201172 37.66015625 205.17578125 C35.18583074 201.93295935 31.96315586 201.35146615 28.1875 200.3125 C6.55909123 193.70893028 -13.36950594 183.1350126 -31 169 C-31.77730469 168.38898438 -32.55460937 167.77796875 -33.35546875 167.1484375 C-52.86076699 150.92279117 -66.49037716 124.02361087 -70 99 C-71.26633603 85.02849064 -70.02147278 73.85274721 -61.23828125 62.484375 C-55.35317706 55.95221747 -47.45024892 51.72383681 -38.65281677 50.73660278 C-36.22004284 50.65658347 -33.80471793 50.66154917 -31.37109375 50.70703125 C-30.05843285 50.71339851 -30.05843285 50.71339851 -28.71925354 50.71989441 C-25.95833928 50.73652019 -23.19818895 50.77414034 -20.4375 50.8125 C-18.55144293 50.82756772 -16.66537427 50.84125244 -14.77929688 50.85351562 C-10.18590917 50.88637063 -5.59308353 50.93803865 -1 51 C-1.00523682 49.98800537 -1.01047363 48.97601074 -1.01586914 47.93334961 C-1.03425632 44.10328083 -1.04555242 40.27321576 -1.05493164 36.44311523 C-1.05989612 34.79955383 -1.06666991 33.15599668 -1.07543945 31.51245117 C-1.08785771 29.1215712 -1.09330698 26.73075058 -1.09765625 24.33984375 C-1.10281754 23.62980698 -1.10797882 22.9197702 -1.11329651 22.18821716 C-1.11407951 14.72829712 -0.50039067 7.50586003 0 0 Z M-40.46191406 79.86035156 C-43.93847745 84.69663752 -44.40947696 89.08845692 -43.6640625 94.84375 C-40.19453297 111.33421978 -33.37322472 127.46454794 -22 140 C-21.27296875 140.81984375 -20.5459375 141.6396875 -19.796875 142.484375 C-9.62989863 153.32466107 3.41841137 161.13213195 17 167 C17.66 167 18.32 167 19 167 C18.34205304 163.42713394 17.4470288 160.02112331 16.36328125 156.5546875 C8.37821689 130.61502892 3.14665768 104.90477052 0 78 C-5.33848672 77.90105457 -10.67643869 77.82849586 -16.015625 77.78027344 C-17.8314748 77.76016939 -19.64725995 77.73288165 -21.46289062 77.69824219 C-24.07438105 77.64966961 -26.68501498 77.62701973 -29.296875 77.609375 C-30.10743347 77.58872986 -30.91799194 77.56808472 -31.75311279 77.54681396 C-35.3832055 77.54537181 -37.5194881 77.63689997 -40.46191406 79.86035156 Z M253 78 C251.80384396 80.39231208 251.70064092 82.23137691 251.45703125 84.8984375 C248.67347458 113.11196316 242.11147767 140.18480994 233 167 C245.73131828 163.64965308 257.26006029 155.67769796 267 147 C268.24523437 145.89591797 268.24523437 145.89591797 269.515625 144.76953125 C284.14958003 131.01092016 293.01506071 111.78294249 296 92 C295.80902052 87.76216531 295.46822997 83.56522107 293 80 C289.16327717 77.44218478 286.05464013 77.74693544 281.61328125 77.8046875 C280.79627243 77.8075174 279.97926361 77.81034729 279.13749695 77.81326294 C276.52901541 77.82445459 273.9208777 77.8495571 271.3125 77.875 C269.54362475 77.88503112 267.77474412 77.89415674 266.00585938 77.90234375 C261.67044051 77.92439058 257.33527855 77.9589133 253 78 Z " fill="#FEC300" transform="translate(130,63)"/>
<path d="M0 0 C1.21962936 -0.00293564 2.43925873 -0.00587128 3.69584656 -0.00889587 C5.03409107 0.00318869 6.37233262 0.01560515 7.71057129 0.02832031 C9.1302728 0.03084563 10.54997703 0.03210969 11.96968079 0.0322113 C15.81480384 0.03671971 19.65957071 0.06067416 23.50457954 0.08953476 C26.71782379 0.1121448 29.93108285 0.12588967 33.14437437 0.13986111 C40.72565268 0.17323422 48.306704 0.22306343 55.88781738 0.28271484 C63.70289822 0.34388199 71.51771329 0.37554603 79.33300352 0.39299583 C86.0500867 0.40913582 92.76688689 0.44447031 99.48379946 0.49495888 C103.4924929 0.52484358 107.50087856 0.54728866 111.50968933 0.55090332 C115.27919446 0.55506613 119.04777757 0.58320604 122.81699181 0.62962532 C124.19799638 0.64263503 125.57911052 0.6472292 126.96016884 0.64266777 C138.67894976 0.61230486 138.67894976 0.61230486 142.55761719 3.58813477 C153.37958488 16.86487717 146.81408691 37.00659248 146.81408691 52.35644531 C93.02408691 52.35644531 39.23408691 52.35644531 -16.18591309 52.35644531 C-16.18591309 10.35644531 -16.18591309 10.35644531 -12.18591309 3.35644531 C-8.0881681 0.61559679 -4.87667751 -0.01683646 0 0 Z " fill="#FFC300" transform="translate(191.1859130859375,396.6435546875)"/>
<path d="M0 0 C0.66 0 1.32 0 2 0 C2.53343018 1.67956787 2.53343018 1.67956787 3.07763672 3.39306641 C9.43974008 24.03218271 9.43974008 24.03218271 23.40240479 39.35327148 C35.72154919 44.22248945 49.92149964 44.19226483 63 44 C61.36033597 48.17208992 58.30728471 50.98121629 55.1875 54.078125 C54.61797607 54.64956238 54.04845215 55.22099976 53.46166992 55.80975342 C52.2604332 57.01234789 51.05668003 58.21243334 49.85058594 59.41015625 C47.99959045 61.25040717 46.15954554 63.10112633 44.3203125 64.953125 C43.15168276 66.12043384 41.98243316 67.28712251 40.8125 68.453125 C40.26037842 69.00929504 39.70825684 69.56546509 39.1394043 70.13848877 C35.22993635 74 35.22993635 74 33 74 C33.2172876 75.29212402 33.4345752 76.58424805 33.65844727 77.91552734 C34.46068908 82.69652002 35.25446611 87.4788855 36.0456543 92.26171875 C36.38968783 94.33404545 36.73603527 96.40598935 37.0847168 98.47753906 C37.58466467 101.45020207 38.0763541 104.42412928 38.56640625 107.3984375 C38.72468399 108.32868744 38.88296173 109.25893738 39.04603577 110.21737671 C39.25636696 111.50848862 39.25636696 111.50848862 39.47094727 112.82568359 C39.59752213 113.58513275 39.72409698 114.34458191 39.85450745 115.12704468 C40 117 40 117 39 119 C38.40687012 118.67314209 37.81374023 118.34628418 37.20263672 118.00952148 C31.41192482 114.82278077 25.60999751 111.65755018 19.79589844 108.51367188 C18.0886078 107.58936154 16.38306983 106.66179238 14.68066406 105.72851562 C12.79538609 104.69822065 10.9006508 103.68906451 9 102.6875 C7.96875 102.13449219 6.9375 101.58148438 5.875 101.01171875 C1.22852276 99.37661331 -2.04611107 100.57294878 -6.46337891 102.55053711 C-7.72218578 103.20100382 -8.97641431 103.86038708 -10.2265625 104.52734375 C-10.89666351 104.87632217 -11.56676453 105.2253006 -12.25717163 105.58485413 C-14.38395382 106.69463659 -16.50449707 107.8157742 -18.625 108.9375 C-20.05688742 109.68762112 -21.48917559 110.43697779 -22.921875 111.18554688 C-25.5489254 112.55895977 -28.17333227 113.93718865 -30.79541016 115.32006836 C-33.18568205 116.57311276 -35.57944411 117.80709266 -38 119 C-37.1520837 109.96530561 -35.42597225 101.124937 -33.72851562 92.21679688 C-31.86386605 83.14932658 -31.86386605 83.14932658 -32 74 C-33.82501257 71.72498433 -35.27021814 70.27092726 -37.5 68.5 C-38.68441833 67.48837568 -39.86522788 66.47251549 -41.04296875 65.453125 C-41.6776709 64.90978516 -42.31237305 64.36644531 -42.96630859 63.80664062 C-46.74199555 60.45248895 -50.2634056 56.84051112 -53.8125 53.25 C-54.5240625 52.53392578 -55.235625 51.81785156 -55.96875 51.08007812 C-57.64822199 49.3890577 -59.32530349 47.69574761 -61 46 C-60.67 45.34 -60.34 44.68 -60 44 C-57.05886352 43.58911016 -54.17094607 43.29595781 -51.21484375 43.0546875 C-49.38564481 42.86470567 -47.55687486 42.67055612 -45.72851562 42.47265625 C-42.84152852 42.1639739 -39.96116384 41.87676629 -37.06567383 41.66064453 C-26.45761738 41.19649854 -26.45761738 41.19649854 -17.40802002 36.44885254 C-14.7269169 32.62877836 -13.17185971 28.43744726 -11.70999146 24.0322876 C-10.68065108 21.08589202 -9.26063958 18.38504694 -7.8125 15.625 C-7.34199219 14.68398437 -6.87148437 13.74296875 -6.38671875 12.7734375 C-4.2578125 8.515625 -2.12890625 4.2578125 0 0 Z " fill="#F9A824" transform="translate(255,124)"/>
<path d="M0 0 C0.08636719 1.24652344 0.17273438 2.49304688 0.26171875 3.77734375 C2.0971381 27.16391505 8.40085439 47.71600793 26 64 C29.54489685 66.87080077 33.19191246 69.49149789 37 72 C37.66773438 72.44214844 38.33546875 72.88429688 39.0234375 73.33984375 C39.57257813 73.70207031 40.12171875 74.06429687 40.6875 74.4375 C41.450625 74.953125 42.21375 75.46875 43 76 C43 76.33 43 76.66 43 77 C-3.53 77 -50.06 77 -98 77 C-98 76.34 -98 75.68 -98 75 C-96.24764922 73.91306077 -94.4449255 72.90705729 -92.625 71.9375 C-75.64627731 62.22112168 -64.5658591 46.17458752 -59.25 27.4375 C-57.27571576 18.78102297 -56.74166872 9.83022054 -56 1 C-51.40509296 1.45030089 -46.92323282 1.97031123 -42.40625 2.9296875 C-28.45460018 5.71859673 -16.79284813 3.95790264 -3.07519531 0.5065918 C-1 0 -1 0 0 0 Z " fill="#F9A824" transform="translate(284,321)"/>
<path d="M0 0 C0.8727356 0.00187317 1.74547119 0.00374634 2.64465332 0.00567627 C4.46984742 0.01234592 6.29502849 0.02615743 8.12011719 0.046875 C10.92656591 0.07835287 13.73245379 0.08788457 16.5390625 0.09375 C18.31771526 0.10290842 20.09636227 0.11328045 21.875 0.125 C22.7165564 0.12924988 23.55811279 0.13349976 24.4251709 0.13787842 C30.28900675 0.21088175 30.28900675 0.21088175 31.40625 1.328125 C31.49373207 3.25480007 31.51322334 5.18464361 31.50390625 7.11328125 C31.49907227 8.86801758 31.49907227 8.86801758 31.49414062 10.65820312 C31.48157227 12.50575195 31.48157227 12.50575195 31.46875 14.390625 C31.46423828 15.62619141 31.45972656 16.86175781 31.45507812 18.13476562 C31.44324608 21.19926617 31.42676173 24.26367221 31.40625 27.328125 C30.27082764 27.35318115 29.13540527 27.3782373 27.96557617 27.40405273 C23.75549919 27.49818076 19.54558512 27.59838837 15.33569336 27.70043945 C13.51314096 27.74376787 11.69054852 27.78544447 9.86791992 27.82543945 C7.24906339 27.88319262 4.63040805 27.94687256 2.01171875 28.01171875 C1.19599899 28.02843124 0.38027924 28.04514374 -0.4601593 28.06236267 C-3.73554544 28.14825745 -6.46631401 28.28564634 -9.59375 29.328125 C-14.45614957 42.69972383 -8.35295784 56.87425385 -2.921875 69.25 C0.65722471 76.76939296 4.82408581 83.15725799 10.40625 89.328125 C11.05980469 90.07449219 11.71335938 90.82085937 12.38671875 91.58984375 C19.78707336 99.54557206 29.04938785 105.92138318 38.90625 110.46875 C48.82834581 115.07050345 53.62820819 118.66115942 57.61865234 129.35888672 C59.08031164 133.01348804 60.96888323 136.46301072 62.78125 139.953125 C66.76125505 147.69772483 66.76125505 147.69772483 67.40625 151.328125 C61.46101075 150.76153173 56.4753878 149.02826923 50.96875 146.765625 C50.09347656 146.40992432 49.21820313 146.05422363 48.31640625 145.68774414 C31.14410972 138.59761989 14.97345029 129.93319264 0.40625 118.328125 C-0.37492187 117.71453125 -1.15609375 117.1009375 -1.9609375 116.46875 C-21.45649318 100.2340168 -35.08406084 73.35220872 -38.59375 48.328125 C-39.86008603 34.35661564 -38.61522278 23.18087221 -29.83203125 11.8125 C-21.8505136 2.95343329 -11.63745601 -0.17408757 0 0 Z " fill="#F9A824" transform="translate(98.59375,113.671875)"/>
<path d="M0 0 C5.37158939 -0.06926118 10.7415994 -0.12887515 16.11328125 -0.16479492 C17.93657715 -0.17978489 19.7598376 -0.20018384 21.58300781 -0.22631836 C36.76803074 -0.43837646 48.29528916 0.1418563 60 11 C62.49297812 14.15169185 64.31034363 17.36206638 66 21 C66.50660156 21.99193359 66.50660156 21.99193359 67.0234375 23.00390625 C73.64464699 38.52426428 67.65732374 57.63814287 61.9453125 72.4453125 C57.95269344 82.36138577 53.59503296 91.53437587 47 100 C46.59555664 100.5249707 46.19111328 101.04994141 45.77441406 101.59082031 C28.43008516 123.8682992 3.70954422 136.58717385 -22 147 C-23.04800781 147.42667969 -24.09601563 147.85335937 -25.17578125 148.29296875 C-32.74062679 151.22873 -32.74062679 151.22873 -37 150 C-36.14728516 148.43765625 -36.14728516 148.43765625 -35.27734375 146.84375 C-34.49717189 145.39595399 -33.71724287 143.9480271 -32.9375 142.5 C-32.30980713 141.35325806 -32.30980713 141.35325806 -31.66943359 140.18334961 C-29.64143914 136.40581187 -27.82198861 132.74876178 -26.51171875 128.66015625 C-24.01357051 121.06728878 -21.66261206 116.7252078 -14.44091797 112.84375 C-11.10827847 111.22130643 -7.74197232 109.68026922 -4.36669922 108.14892578 C15.21485497 98.64296395 29.22182725 80.94051724 36.7109375 60.87890625 C39.89121084 51.55503143 42.66862364 42.88580801 41 33 C40.87625 32.195625 40.7525 31.39125 40.625 30.5625 C40.315625 29.7890625 40.315625 29.7890625 40 29 C36.13676662 27.71225554 32.42509463 27.76617207 28.39453125 27.68359375 C27.55532639 27.66281265 26.71612152 27.64203156 25.85148621 27.62062073 C23.17190706 27.55525982 20.49223031 27.49630286 17.8125 27.4375 C15.99543263 27.39430198 14.17837512 27.35068727 12.36132812 27.30664062 C7.90765066 27.19880832 3.45389861 27.09963505 -1 27 C-0.67 18.09 -0.34 9.18 0 0 Z " fill="#F9A824" transform="translate(383,114)"/>
</svg>
